<svg xmlns="http://www.w3.org/2000/svg" width="16" height="16" viewBox="0 0 16 16">
  <g id="icon_calendar" transform="translate(-10 -14)">
    <rect id="area" width="16" height="16" transform="translate(10 14)" fill="none"/>
    <g id="그룹_53742" data-name="그룹 53742" transform="translate(-232.352 -6.26)">
      <path id="Icon_awesome-calendar-alt" data-name="Icon awesome-calendar-alt" d="M0,21.213a1.362,1.362,0,0,0,1.361,1.361h9.982A1.362,1.362,0,0,0,12.7,21.213V13.5H0Zm9.074-5.558a.341.341,0,0,1,.34-.34h1.134a.341.341,0,0,1,.34.34v1.134a.341.341,0,0,1-.34.34H9.415a.341.341,0,0,1-.34-.34Zm0,3.63a.341.341,0,0,1,.34-.34h1.134a.341.341,0,0,1,.34.34v1.134a.341.341,0,0,1-.34.34H9.415a.341.341,0,0,1-.34-.34Zm-3.63-3.63a.341.341,0,0,1,.34-.34H6.919a.341.341,0,0,1,.34.34v1.134a.341.341,0,0,1-.34.34H5.785a.341.341,0,0,1-.34-.34Zm0,3.63a.341.341,0,0,1,.34-.34H6.919a.341.341,0,0,1,.34.34v1.134a.341.341,0,0,1-.34.34H5.785a.341.341,0,0,1-.34-.34Zm-3.63-3.63a.341.341,0,0,1,.34-.34H3.289a.341.341,0,0,1,.34.34v1.134a.341.341,0,0,1-.34.34H2.155a.341.341,0,0,1-.34-.34Zm0,3.63a.341.341,0,0,1,.34-.34H3.289a.341.341,0,0,1,.34.34v1.134a.341.341,0,0,1-.34.34H2.155a.341.341,0,0,1-.34-.34Z" transform="translate(244 12.945)" fill="#ffb200"/>
      <path id="Icon_awesome-calendar-alt-2" data-name="Icon awesome-calendar-alt" d="M11.343,1.815H9.982V.454A.455.455,0,0,0,9.528,0H8.621a.455.455,0,0,0-.454.454V1.815H4.537V.454A.455.455,0,0,0,4.083,0H3.176a.455.455,0,0,0-.454.454V1.815H1.361A1.362,1.362,0,0,0,0,3.176V4.537H12.7V3.176A1.362,1.362,0,0,0,11.343,1.815Z" transform="translate(244 21)" fill="#34589c" stroke="rgba(0,0,0,0)" stroke-width="1"/>
    </g>
  </g>
</svg>
