<svg xmlns="http://www.w3.org/2000/svg" width="70.002" height="70" viewBox="0 0 70.002 70">
  <g id="fog_ver2" transform="translate(-129 -254)">
    <rect id="area" width="70" height="70" transform="translate(129 254)" fill="none"/>
    <g id="그룹_53810" data-name="그룹 53810" transform="translate(62.664 -35.106)">
      <g id="그룹_53808" data-name="그룹 53808" transform="translate(66.336 298.106)">
        <path id="합치기_9" data-name="합치기 9" d="M20.857,25.438H8.983a8.976,8.976,0,1,1,0-17.952,9.1,9.1,0,0,1,2.315.308A11.487,11.487,0,0,1,20.857.079V.006c.079,0,.153-.006.228-.006.2,0,.391.006.585.015.092,0,.183-.007.277-.009V.033A11.475,11.475,0,0,1,32.476,10.079,7.845,7.845,0,0,1,33.8,9.954a7.742,7.742,0,0,1,0,15.484Z" transform="translate(0 0)" fill="#8b8b8b"/>
      </g>
      <g id="그룹_53809" data-name="그룹 53809" transform="translate(69.9 309.879)">
        <path id="합치기_8" data-name="합치기 8" d="M33.668,40.3H14.222a14.219,14.219,0,1,1,0-28.439,14.367,14.367,0,0,1,3.666.492A18.2,18.2,0,0,1,33.668.071V.017c.12,0,.234-.017.355-.017A18.19,18.19,0,0,1,52.074,15.97a12.12,12.12,0,0,1,2.1-.195,12.263,12.263,0,1,1,0,24.526Z" transform="translate(0 0)" fill="#dcdcdc"/>
      </g>
    </g>
  </g>
</svg>
