<svg id="icon_dislike" xmlns="http://www.w3.org/2000/svg" width="14" height="14" viewBox="0 0 14 14">
  <rect id="사각형_29616" data-name="사각형 29616" width="14" height="14" fill="none"/>
  <path id="빼기_5" data-name="빼기 5" d="M6.893,12.5a1.074,1.074,0,0,1-.338-.06,2.568,2.568,0,0,1-1.443-1.566,4.474,4.474,0,0,1-.067-2.767H1.264A1.256,1.256,0,0,1,0,6.878,1.234,1.234,0,0,1,.687,5.752a1.222,1.222,0,0,1-.261-.76,1.237,1.237,0,0,1,.6-1.067l0-.007A1.24,1.24,0,0,1,1.43,2a1.262,1.262,0,0,1-.258-.774A1.26,1.26,0,0,1,2.436,0H8.621V8.482c-.36.433-.7.787-.8.885-.062.971-.141,2.233-.145,2.316a.061.061,0,0,1,0,.012.017.017,0,0,1,0,.007v.005a.963.963,0,0,1-.388.679A.719.719,0,0,1,6.893,12.5Zm5.153-4.717H10.184a1.112,1.112,0,0,1-.563-.153V0h2.426a1.127,1.127,0,0,1,1.126,1.126v5.53A1.127,1.127,0,0,1,12.046,7.783Z" transform="translate(0.379 0.75)" fill="#737980" stroke="#737980" stroke-width="0.4"/>
</svg>
