<svg xmlns="http://www.w3.org/2000/svg" width="70" height="70" viewBox="0 0 70 70">
  <g id="rainyandsnowy_ver2" transform="translate(-129 -254)">
    <rect id="area" width="70" height="70" transform="translate(129 254)" fill="none"/>
    <g id="그룹_53857" data-name="그룹 53857" transform="translate(-0.002 1.142)">
      <g id="그룹_53864" data-name="그룹 53864">
        <path id="Icon_metro-snowflake" data-name="Icon metro-snowflake" d="M21.271,16.358l-1.437-.83a4.23,4.23,0,0,0,.077-.767,4.083,4.083,0,0,0-.079-.769l1.437-.831a1.41,1.41,0,0,0-1.408-2.442l-1.451.838a4.2,4.2,0,0,0-1.319-.765V9.122a1.41,1.41,0,1,0-2.82,0v1.67a4.2,4.2,0,0,0-1.319.765L11.5,10.72a1.409,1.409,0,1,0-1.41,2.441l1.435.829a3.882,3.882,0,0,0,0,1.54l-1.436.829A1.41,1.41,0,1,0,11.5,18.8l1.447-.836a4.219,4.219,0,0,0,1.322.767V20.4a1.41,1.41,0,1,0,2.82,0V18.73a4.169,4.169,0,0,0,1.32-.766l1.45.837a1.41,1.41,0,0,0,1.41-2.442Z" transform="translate(169.463 288.066)" fill="#dfeaee"/>
        <path id="Icon_metro-snowflake-2" data-name="Icon metro-snowflake" d="M16.743,13.064l-.89-.514a2.618,2.618,0,0,0,.048-.475,2.527,2.527,0,0,0-.049-.476l.89-.514a.873.873,0,0,0-.872-1.512l-.9.519a2.6,2.6,0,0,0-.816-.473V8.585a.873.873,0,1,0-1.745,0V9.618a2.6,2.6,0,0,0-.816.473l-.9-.518a.872.872,0,1,0-.873,1.511l.888.513a2.4,2.4,0,0,0,0,.953l-.889.513a.873.873,0,1,0,.873,1.512l.9-.518a2.612,2.612,0,0,0,.818.475v1.033a.873.873,0,1,0,1.745,0V14.533a2.581,2.581,0,0,0,.817-.474l.9.518a.873.873,0,0,0,.873-1.512Z" transform="translate(158.83 298.689)" fill="#dfeaee"/>
        <path id="패스_20424" data-name="패스 20424" d="M1892.24,955.881a1.5,1.5,0,0,0-1.942-.82l-4.7,1.91a1.472,1.472,0,0,0-.427.268l-4.547-2.625c.01-.12.016-.241.016-.363s-.005-.22-.013-.328l.013-.007,4.7-2.713a1.478,1.478,0,0,0,.26.137l4.7,1.91a1.5,1.5,0,0,0,1.942-.82l.305-.751a1.5,1.5,0,0,0-.82-1.942l-2.26-.918,1.845-1.065a1.9,1.9,0,1,0-1.9-3.284l-1.977,1.142.369-2.663a1.5,1.5,0,0,0-1.272-1.681l-.8-.112a1.5,1.5,0,0,0-1.681,1.272l-.7,5.028a1.47,1.47,0,0,0,.018.5l-4.63,2.673-.017.011a4.342,4.342,0,0,0-.695-.384c0-.013,0-.025,0-.037v-5.346a1.47,1.47,0,0,0,.445-.236l4.006-3.119a1.5,1.5,0,0,0,.26-2.092l-.5-.64a1.5,1.5,0,0,0-2.092-.261l-2.122,1.651V937.9a1.9,1.9,0,1,0-3.792,0v2.13l-1.925-1.5a1.5,1.5,0,0,0-2.092.261l-.5.64a1.5,1.5,0,0,0,.26,2.092l4.006,3.119a1.493,1.493,0,0,0,.249.156v5.425c0,.058,0,.115.009.171a4.382,4.382,0,0,0-.459.28c-.021-.013-.041-.028-.063-.041l-4.63-2.673a1.476,1.476,0,0,0,.018-.5l-.7-5.028a1.5,1.5,0,0,0-1.681-1.272l-.8.112a1.5,1.5,0,0,0-1.272,1.681l.37,2.663-1.978-1.142a1.9,1.9,0,0,0-1.9,3.284l1.845,1.065-2.26.918a1.5,1.5,0,0,0-.821,1.942l.305.751a1.5,1.5,0,0,0,1.943.82l4.7-1.91a1.475,1.475,0,0,0,.26-.137l4.7,2.713c.032.019.065.034.1.05-.006.094-.01.189-.01.285s.005.211.012.314h0l-4.63,2.673a1.48,1.48,0,0,0-.427-.268l-4.7-1.91a1.5,1.5,0,0,0-1.943.82l-.305.751a1.5,1.5,0,0,0,.821,1.942l2.491,1.012-1.978,1.142a1.9,1.9,0,0,0,1.9,3.284l1.845-1.065-.335,2.416a1.5,1.5,0,0,0,1.272,1.682l.8.111a1.5,1.5,0,0,0,1.681-1.272l.7-5.028a1.475,1.475,0,0,0,.011-.294l4.7-2.711a4.422,4.422,0,0,0,.418.253v5.411a1.485,1.485,0,0,0-.249.156l-4.006,3.119a1.5,1.5,0,0,0-.26,2.092l.5.64a1.5,1.5,0,0,0,2.092.261l1.925-1.5v2.131a1.9,1.9,0,1,0,3.792,0V968.13l2.122,1.652a1.5,1.5,0,0,0,2.092-.261l.5-.64a1.5,1.5,0,0,0-.26-2.092l-4.006-3.119a1.475,1.475,0,0,0-.445-.236v-5.194a4.353,4.353,0,0,0,.662-.363l4.649,2.684a1.476,1.476,0,0,0,.011.294l.7,5.028a1.5,1.5,0,0,0,1.681,1.272l.8-.111a1.5,1.5,0,0,0,1.272-1.682l-.335-2.416,1.845,1.065a1.9,1.9,0,0,0,1.9-3.284l-1.977-1.142,2.491-1.012a1.5,1.5,0,0,0,.82-1.942Z" transform="translate(-1696.207 -681.67)" fill="#fff"/>
      </g>
      <g id="그룹_53863" data-name="그룹 53863" transform="translate(1 -81.261)">
        <path id="패스_20425" data-name="패스 20425" d="M346.465,260.708a11.931,11.931,0,0,1-23.863,0c0-6.591,11.936-24.374,11.936-24.374S346.462,254.119,346.465,260.708Z" transform="translate(-188.518 129.41)" fill="#a7f3ff" stroke="#a7f3ff" stroke-width="2"/>
        <path id="패스_20418" data-name="패스 20418" d="M-20832.965-5070.989v-22.685" transform="translate(20968.107 5431.447)" fill="none" stroke="#a7f3ff" stroke-linecap="round" stroke-width="4"/>
        <path id="패스_20423" data-name="패스 20423" d="M-20832.965-5090.459v-3.214" transform="translate(20968.107 5460.447)" fill="none" stroke="#a7f3ff" stroke-linecap="round" stroke-width="4"/>
        <path id="패스_20419" data-name="패스 20419" d="M-20832.965-5079.071v-14.6" transform="translate(20977.107 5435.489)" fill="none" stroke="#a7f3ff" stroke-linecap="round" stroke-width="4"/>
      </g>
    </g>
  </g>
</svg>
