<svg xmlns="http://www.w3.org/2000/svg" width="18" height="18" viewBox="0 0 18 18">
  <g id="icon_animallist" transform="translate(-2419.983 -4149.554)">
    <path id="패스_19832" data-name="패스 19832" d="M2437.65,4158.4l-1.115-.761a1.217,1.217,0,0,1-.371-1.578l.655-1.195a.779.779,0,0,0-.073-.858l-1.75-2.19a.74.74,0,0,0-.809-.245l-1.277.415a1.169,1.169,0,0,1-1.439-.687l-.506-1.268a.751.751,0,0,0-.7-.477l-2.768.031a.75.75,0,0,0-.692.493l-.478,1.279a1.171,1.171,0,0,1-1.424.72l-1.286-.386a.742.742,0,0,0-.8.264l-1.7,2.229a.779.779,0,0,0-.054.86l.681,1.179a1.217,1.217,0,0,1-.336,1.585l-1.1.787a.772.772,0,0,0-.3.805l.646,2.749a.756.756,0,0,0,.624.58l1.327.192a1.2,1.2,0,0,1,1,1.257l-.083,1.366a.769.769,0,0,0,.431.742l2.507,1.2a.735.735,0,0,0,.833-.137l.974-.939a1.158,1.158,0,0,1,1.589-.019l.995.918a.737.737,0,0,0,.835.118l2.48-1.255a.768.768,0,0,0,.414-.75l-.112-1.365a1.2,1.2,0,0,1,.977-1.279l1.323-.221a.759.759,0,0,0,.611-.595l.586-2.762A.774.774,0,0,0,2437.65,4158.4Zm-8.666,3.836a3.83,3.83,0,1,1,3.75-3.829A3.795,3.795,0,0,1,2428.984,4162.233Z" fill="#fff"/>
    <circle id="타원_835" data-name="타원 835" cx="2" cy="2" r="2" transform="translate(2426.983 4156.554)" fill="#fff"/>
  </g>
</svg>
