<svg xmlns="http://www.w3.org/2000/svg" width="14" height="14" viewBox="0 0 14 14">
  <g id="icon_like_default" transform="translate(-234 -1081)">
    <rect id="area" width="14" height="14" transform="translate(234 1081)" fill="none"/>
    <g id="Icon_awesome-heart" data-name="Icon awesome-heart" transform="translate(234.001 1080.502)" fill="none">
      <path d="M12.016,2.976a3.8,3.8,0,0,0-4.85.323l-.512.483L6.142,3.3a3.8,3.8,0,0,0-4.85-.323A3.22,3.22,0,0,0,1.034,7.92l5.03,4.751a.868.868,0,0,0,1.178,0l5.03-4.751a3.218,3.218,0,0,0-.255-4.944Z" stroke="none"/>
      <path d="M 3.471330642700195 3.247671127319336 C 2.881330490112305 3.247671127319336 2.340110778808594 3.426480293273926 1.906780242919922 3.764310836791992 C 1.354250907897949 4.19575023651123 1.032770156860352 4.796390533447266 1.001570701599121 5.455610275268555 C 0.9706802368164062 6.108250617980957 1.226230621337891 6.725461006164551 1.720710754394531 7.193130493164062 L 6.652546405792236 11.85192680358887 L 11.5846004486084 7.192930698394775 C 12.08026027679443 6.724980354309082 12.33639049530029 6.10792064666748 12.30580043792725 5.45543098449707 C 12.2748908996582 4.796401023864746 11.95354080200195 4.195810317993164 11.40151023864746 3.7647705078125 C 10.96759033203125 3.426480293273926 10.42668056488037 3.247671127319336 9.837230682373047 3.247671127319336 C 9.100330352783203 3.247671127319336 8.376871109008789 3.531630516052246 7.851880550384521 4.027191162109375 L 6.653850555419922 5.156590461730957 L 5.454610347747803 4.026061058044434 C 4.931610107421875 3.531380653381348 4.208730697631836 3.247671127319336 3.471330642700195 3.247671127319336 M 3.471328735351562 2.247666358947754 C 4.440459251403809 2.247666358947754 5.417014122009277 2.614051818847656 6.141770362854004 3.299551010131836 L 6.653850555419922 3.782290458679199 L 7.16593074798584 3.299551010131836 C 8.473410606384277 2.065351486206055 10.59189987182617 1.865591049194336 12.01636028289795 2.976130485534668 L 12.01635074615479 2.976130485534668 C 13.64876079559326 4.250761032104492 13.73454093933105 6.538431167602539 12.27109050750732 7.920070648193359 L 7.241310596466064 12.6713809967041 C 6.916390895843506 12.97815036773682 6.388710975646973 12.97815036773682 6.063790321350098 12.6713809967041 L 1.034010887145996 7.920070648193359 C -0.4268398284912109 6.538431167602539 -0.341059684753418 4.250761032104492 1.291340827941895 2.976130485534668 C 1.924627304077148 2.482406616210938 2.695598602294922 2.247666358947754 3.471328735351562 2.247666358947754 Z" stroke="none" fill="#ff583e"/>
    </g>
  </g>
</svg>
