<svg width="190" height="190" viewBox="0 0 190 190" fill="none" xmlns="http://www.w3.org/2000/svg">
<g filter="url(#filter0_d_1741_7134)">
<path d="M92 182C141.706 182 182 141.706 182 92C182 42.2944 141.706 2 92 2C42.2944 2 2 42.2944 2 92C2 141.706 42.2944 182 92 182Z" fill="white"/>
</g>
<mask id="mask0_1741_7134" style="mask-type:luminance" maskUnits="userSpaceOnUse" x="11" y="11" width="162" height="162">
<path d="M92 173C136.735 173 173 136.735 173 92C173 47.2649 136.735 11 92 11C47.2649 11 11 47.2649 11 92C11 136.735 47.2649 173 92 173Z" fill="white"/>
</mask>
<g mask="url(#mask0_1741_7134)">
<path d="M92 173C136.735 173 173 136.735 173 92C173 47.2649 136.735 11 92 11C47.2649 11 11 47.2649 11 92C11 136.735 47.2649 173 92 173Z" fill="#4783F5"/>
<path d="M142.1 236.676L134.51 242.856C134.51 242.856 108.33 254.066 62.9397 242.806L57.3097 234.816C57.3097 234.816 51.1597 188.396 53.5897 166.876C56.0197 145.356 61.0597 132.586 61.0597 132.586L62.3997 129.186L118.47 128.076C118.47 128.076 122.53 139.736 123.86 142.746C126.92 149.636 132.36 163.226 135.05 177.396C139.59 201.306 136.13 208.156 137.88 216.516C140.36 228.356 142.09 236.686 142.09 236.686L142.1 236.676Z" fill="white"/>
<path d="M124.56 144.356C108.78 144.956 100.83 162.456 115.58 172.426C119.95 175.386 130.13 176.366 135.58 174.596C132.68 161.156 127.95 150.966 124.55 144.356H124.56Z" fill="#F7B177"/>
<path d="M60.6109 132.036C60.6109 132.036 79.5009 133.186 118.081 132.176C120.351 132.116 122.381 133.566 123.061 135.736L123.361 136.716C123.801 138.116 124.311 141.496 122.911 141.926C114.451 144.556 86.2409 153.256 61.2809 140.466C59.9509 139.786 58.6309 139.486 58.6309 136.876C58.6309 134.266 60.6109 132.046 60.6109 132.046V132.036Z" fill="#FF7878"/>
<path d="M119.47 135.706C105.9 141.286 79.2799 140.516 68.7799 136.576C58.4199 132.816 33.5599 119.266 42.6499 77.3756C43.8499 71.8256 45.6499 65.7956 48.1599 59.2056C48.1599 59.2056 52.4199 43.9856 58.8099 40.4756C64.0099 37.6156 69.0199 48.2356 70.1399 56.7656C70.3999 58.7056 70.5199 59.9156 70.5199 59.9156C70.5199 59.9156 80.6799 58.9456 102.47 59.4356C106.88 59.5156 111.79 59.6756 117.17 59.9156C117.17 59.9156 128.42 43.9756 133.54 45.3856C138.65 46.7856 140.18 69.0456 140.18 69.0456C140.18 69.0456 143.14 77.4856 144.68 88.4656C147.39 107.986 135.71 129.046 119.49 135.716L119.47 135.706Z" fill="white"/>
<path d="M140.171 69.0357C140.171 69.0357 138.641 46.7857 133.531 45.3757C128.421 43.9757 117.161 59.9057 117.161 59.9057C111.781 59.6657 106.871 59.5157 102.461 59.4257C97.6409 72.2457 95.2609 89.3457 110.781 97.6357C124.701 105.066 137.341 98.4557 144.661 88.4457C143.131 77.4657 140.161 69.0257 140.161 69.0257L140.171 69.0357Z" fill="#F7B177"/>
<path d="M75.1009 86.3257C76.559 86.3257 77.7409 84.9243 77.7409 83.1957C77.7409 81.467 76.559 80.0657 75.1009 80.0657C73.6429 80.0657 72.4609 81.467 72.4609 83.1957C72.4609 84.9243 73.6429 86.3257 75.1009 86.3257Z" fill="#211F20"/>
<path d="M109.8 87.1855C111.258 87.1855 112.44 85.7842 112.44 84.0555C112.44 82.3269 111.258 80.9255 109.8 80.9255C108.342 80.9255 107.16 82.3269 107.16 84.0555C107.16 85.7842 108.342 87.1855 109.8 87.1855Z" fill="#211F20"/>
<path d="M99.9809 101.006C99.0909 105.876 93.9909 103.246 93.0009 100.016C92.6909 98.9957 92.6009 97.9657 92.6309 96.9257C92.7009 96.3657 92.7509 95.7957 92.7809 95.2357C93.0409 93.5357 93.5609 91.8557 94.0409 90.2657C94.4009 89.0857 92.9509 88.4957 92.3209 89.2857C91.7209 88.8957 90.7709 89.1757 90.8009 90.1657C90.8609 91.8357 90.9209 93.5557 90.8309 95.2657C90.7609 95.7757 90.7209 96.2757 90.6909 96.7857C90.4809 98.4257 90.0809 100.016 89.2909 101.466C88.3809 103.146 86.9509 104.526 85.1809 104.936C82.9109 105.456 80.3709 103.856 80.1509 101.166C80.0409 99.7657 78.0409 99.7557 78.1509 101.166C78.5409 106.016 83.3709 108.576 87.2709 106.486C89.2809 105.406 90.5909 103.716 91.4309 101.726C91.8809 102.796 92.5509 103.776 93.5209 104.606C96.4209 107.076 101.141 105.776 101.901 101.596C102.151 100.216 100.221 99.6257 99.9709 101.016L99.9809 101.006Z" fill="#211F20"/>
<path d="M97.3591 89.1456C97.3591 90.8856 95.1591 93.5356 92.4491 93.5356C89.7391 93.5356 87.5391 90.8856 87.5391 89.1456C87.5391 87.4056 89.7391 85.9856 92.4491 85.9856C95.1591 85.9856 97.3591 87.3956 97.3591 89.1456Z" fill="#FF9292"/>
<path d="M58.8006 40.4855C52.4106 43.9955 48.1506 59.2155 48.1506 59.2155C45.6506 65.8055 43.8406 71.8355 42.6406 77.3855C53.3906 76.0255 63.2806 69.6255 68.9806 59.0855C69.3806 58.3555 69.7606 57.5855 70.1306 56.7655C69.0106 48.2455 64.0006 37.6155 58.8006 40.4755V40.4855Z" fill="#BCB5B5"/>
<path d="M129 101.156C129 101.156 143.36 95.5056 158.37 98.5356" stroke="#211F20" stroke-width="2.2" stroke-miterlimit="10" stroke-linecap="round"/>
<path d="M132.67 109.826C132.67 109.826 143.99 110.126 150.81 117.816" stroke="#211F20" stroke-width="2.2" stroke-miterlimit="10" stroke-linecap="round"/>
<path d="M55.37 94.1256C55.37 94.1256 41.01 88.4756 26 91.5056" stroke="#211F20" stroke-width="2.2" stroke-miterlimit="10" stroke-linecap="round"/>
<path d="M51.7005 102.796C51.7005 102.796 40.3805 103.096 33.5605 110.786" stroke="#211F20" stroke-width="2.2" stroke-miterlimit="10" stroke-linecap="round"/>
<path d="M122.87 60.6956C122.87 60.6956 127.34 51.6256 130.57 52.5656C133.8 53.5056 135.31 61.3056 133.7 66.1956C132.87 68.7256 127.7 65.8656 124.83 64.5656C121.96 63.2656 122.22 62.1156 122.87 60.7056V60.6956Z" fill="#FFCACA"/>
<path d="M65.6507 57.9856C65.6507 57.9856 64.4807 48.6756 61.1207 48.4856C57.7607 48.2856 53.8607 55.0056 53.7407 60.1556C53.6807 62.8156 59.4607 61.6756 62.5107 60.9756C65.5607 60.2756 65.7907 59.5456 65.6507 57.9856Z" fill="#FFCACA"/>
<path d="M61.6909 131.096C59.8509 129.516 56.3009 127.216 53.9309 125.946C52.4909 125.176 51.2609 124.496 49.7109 125.206C49.0309 125.516 48.4409 126.026 47.8909 126.606C47.8909 126.606 45.2909 129.236 43.7409 138.246C43.0309 142.366 44.1009 148.056 48.7509 147.186C52.9009 146.416 56.9809 143.506 60.2809 140.236C60.2809 140.236 59.2209 138.446 61.6909 131.096Z" fill="#FF9292"/>
<path d="M69.4208 133.486C68.4508 129.636 64.2508 127.736 61.6908 131.096C59.2208 138.446 60.2808 140.236 60.2808 140.236C60.4708 140.916 60.7208 141.556 61.0908 142.066C61.8308 143.086 62.9608 143.566 64.1108 143.576C64.4608 137.736 69.4208 133.476 69.4208 133.476V133.486Z" fill="#FF7878"/>
<path d="M82.4016 144.336C82.8616 142.116 83.9816 139.076 83.1716 136.836C82.4316 134.786 80.6716 134.426 78.9416 134.046C76.2216 133.456 73.4516 133.226 69.4116 133.476C69.4116 133.476 64.4516 137.736 64.1016 143.576C64.8716 146.666 66.3116 149.456 68.4916 151.596C71.6216 154.676 76.4316 156.066 79.6216 152.026C79.8116 151.786 79.9716 151.516 80.1216 151.246C81.7816 147.266 82.2916 144.826 82.2916 144.826C82.3216 144.656 82.3616 144.496 82.4016 144.326V144.336Z" fill="#FF9292"/>
</g>
<defs>
<filter id="filter0_d_1741_7134" x="0" y="0" width="190" height="190" filterUnits="userSpaceOnUse" color-interpolation-filters="sRGB">
<feFlood flood-opacity="0" result="BackgroundImageFix"/>
<feColorMatrix in="SourceAlpha" type="matrix" values="0 0 0 0 0 0 0 0 0 0 0 0 0 0 0 0 0 0 127 0" result="hardAlpha"/>
<feOffset dx="3" dy="3"/>
<feGaussianBlur stdDeviation="2.5"/>
<feColorMatrix type="matrix" values="0 0 0 0 0.305882 0 0 0 0 0.376471 0 0 0 0 0.521569 0 0 0 0.2 0"/>
<feBlend mode="normal" in2="BackgroundImageFix" result="effect1_dropShadow_1741_7134"/>
<feBlend mode="normal" in="SourceGraphic" in2="effect1_dropShadow_1741_7134" result="shape"/>
</filter>
</defs>
</svg>
