<svg xmlns="http://www.w3.org/2000/svg" width="10" height="10" viewBox="0 0 10 10">
  <g id="icon_admin" transform="translate(-26 -233)">
    <rect id="area" width="10" height="10" transform="translate(26 233)" fill="none"/>
    <path id="Icon_awesome-crown" data-name="Icon awesome-crown" d="M7.82,6.635H1.659a.238.238,0,0,0-.237.237v.474a.238.238,0,0,0,.237.237H7.82a.238.238,0,0,0,.237-.237V6.872A.238.238,0,0,0,7.82,6.635ZM8.768,1.9a.711.711,0,0,0-.711.711.7.7,0,0,0,.065.293L7.05,3.543A.473.473,0,0,1,6.4,3.371L5.188,1.259a.711.711,0,1,0-.9,0L3.084,3.371a.474.474,0,0,1-.655.172L1.358,2.9a.711.711,0,1,0-.647.418.726.726,0,0,0,.114-.012L1.9,6.162H7.583L8.654,3.306a.726.726,0,0,0,.114.012.711.711,0,0,0,0-1.422Z" transform="translate(26.26 234.356)" fill="#fff"/>
  </g>
</svg>
