<svg xmlns="http://www.w3.org/2000/svg" width="70" height="70" viewBox="0 0 70 70">
  <g id="cloudy_day_ver2" transform="translate(-129 -254)">
    <rect id="area" width="70" height="70" transform="translate(129 254)" fill="none"/>
    <g id="그룹_53806" data-name="그룹 53806" transform="translate(-50.652 80.615)">
      <g id="그룹_53804" data-name="그룹 53804" transform="translate(180.606 176.29)">
        <path id="패스_20348" data-name="패스 20348" d="M202.554,228.614v-4.894a1.883,1.883,0,0,1,1.883-1.883v-.013a1.889,1.889,0,0,0-1.888,1.888v4.9a1.878,1.878,0,0,0,.835,1.567A1.874,1.874,0,0,1,202.554,228.614Z" transform="translate(-176.246 -173.351)" fill="#ffb400"/>
        <path id="패스_20351" data-name="패스 20351" d="M189.277,205.854a1.888,1.888,0,0,0-1.887-1.889h-4.9a1.889,1.889,0,1,0,0,3.777h4.9A1.887,1.887,0,0,0,189.277,205.854Z" transform="translate(-180.606 -176.899)" fill="#ffe256"/>
        <path id="패스_20352" data-name="패스 20352" d="M191.046,195.135a1.889,1.889,0,0,0,2.672-2.672L190.256,189a1.888,1.888,0,0,0-2.671,2.671Z" transform="translate(-179.329 -179.982)" fill="#ffe256"/>
        <path id="패스_20369" data-name="패스 20369" d="M4.014,6.686A1.889,1.889,0,0,0,6.685,4.014L3.224.554A1.888,1.888,0,0,0,.553,3.224Z" transform="translate(27.998 0) rotate(45)" fill="#ffe256"/>
        <path id="패스_20355" data-name="패스 20355" d="M203.246,228.79a1.867,1.867,0,0,0,1.052.322h0A1.867,1.867,0,0,1,203.246,228.79Z" transform="translate(-176.108 -171.967)" fill="#ffb400"/>
        <path id="패스_20356" data-name="패스 20356" d="M204.436,221.834a1.883,1.883,0,0,0-1.883,1.883v4.894a1.885,1.885,0,0,0,1.883,1.883Z" transform="translate(-176.245 -173.349)" fill="#ffb400"/>
        <path id="패스_20358" data-name="패스 20358" d="M206.007,223.719v4.894a1.877,1.877,0,0,1-.831,1.561,1.884,1.884,0,0,0,.836-1.567v-4.9a1.889,1.889,0,0,0-1.888-1.888v.013A1.883,1.883,0,0,1,206.007,223.719Z" transform="translate(-175.933 -173.351)" fill="#ffb400"/>
        <path id="패스_20360" data-name="패스 20360" d="M221.861,189a1.881,1.881,0,0,0-2.662,0l-3.463,3.461a1.883,1.883,0,1,0,2.665,2.662l3.461-3.462A1.882,1.882,0,0,0,221.861,189Z" transform="translate(-173.736 -179.982)" fill="#ffe256"/>
        <path id="패스_20361" data-name="패스 20361" d="M227.2,203.97h-4.9a1.883,1.883,0,0,0,0,3.765h4.9a1.883,1.883,0,1,0,0-3.765Z" transform="translate(-172.696 -176.898)" fill="#ffe256"/>
        <path id="패스_20362" data-name="패스 20362" d="M218.4,217.155a1.883,1.883,0,1,0-2.665,2.661l3.463,3.461a1.882,1.882,0,1,0,2.662-2.661Z" transform="translate(-173.736 -174.388)" fill="#ffb400"/>
        <path id="패스_20365" data-name="패스 20365" d="M204.124,229.112h0a1.867,1.867,0,0,0,1.052-.322A1.867,1.867,0,0,1,204.124,229.112Z" transform="translate(-175.933 -171.967)" fill="#ffb400"/>
        <path id="패스_20366" data-name="패스 20366" d="M206.007,228.611v-4.894a1.883,1.883,0,0,0-1.883-1.883v8.661a1.885,1.885,0,0,0,1.883-1.883Z" transform="translate(-175.933 -173.349)" fill="#ffb400"/>
        <circle id="타원_1092" data-name="타원 1092" cx="16.782" cy="16.782" r="16.782" transform="translate(11.986 11.552)" fill="#ffe256"/>
      </g>
      <g id="그룹_53805" data-name="그룹 53805" transform="translate(189.602 202.86)">
        <path id="합치기_7" data-name="합치기 7" d="M30.4,36.455H12.867a12.863,12.863,0,1,1,3.322-25.28A16.45,16.45,0,0,1,30.4.063V.011c.109,0,.22-.011.322-.011.218,0,.435,0,.648.013l.068,0v0A16.455,16.455,0,0,1,47.059,14.446a10.866,10.866,0,0,1,1.9-.176,11.092,11.092,0,0,1,0,22.185Z" fill="#fff"/>
      </g>
    </g>
  </g>
</svg>
