<svg xmlns="http://www.w3.org/2000/svg" width="70" height="70" viewBox="0 0 70 70">
  <g id="night_ver2" transform="translate(-129 -254)">
    <rect id="area" width="70" height="70" transform="translate(129 254)" fill="none"/>
    <path id="패스_20407" data-name="패스 20407" d="M96.356,448.464c-7.075-11.272-4.831-26,4.485-36.5a37.523,37.523,0,0,0-9.732,4.333c-15.789,9.911-21.438,29.335-12.619,43.382s28.768,17.4,44.553,7.489a37.521,37.521,0,0,0,8.133-6.881C117.67,464.114,103.43,459.733,96.356,448.464Z" transform="translate(61.25 -153.415)" fill="#ffe256"/>
    <path id="패스_20415" data-name="패스 20415" d="M237.89,417.286,242,415.123l-.787,4.583,3.33,3.244-4.6.668-2.056,4.171-2.06-4.171-4.6-.668,3.332-3.244-.786-4.583Z" transform="translate(-65.135 -147.983)" fill="#ffe256"/>
  </g>
</svg>
