<svg xmlns="http://www.w3.org/2000/svg" width="20" height="20" viewBox="0 0 20 20">
  <g id="icon_list" transform="translate(-26 -666)">
    <rect id="area" width="20" height="20" transform="translate(26 666)" fill="none"/>
    <path id="Icon_awesome-list" data-name="Icon awesome-list" d="M3.125,15.875H.625A.625.625,0,0,0,0,16.5V19a.625.625,0,0,0,.625.625h2.5A.625.625,0,0,0,3.75,19V16.5A.625.625,0,0,0,3.125,15.875Zm0-12.5H.625A.625.625,0,0,0,0,4V6.5a.625.625,0,0,0,.625.625h2.5A.625.625,0,0,0,3.75,6.5V4A.625.625,0,0,0,3.125,3.375Zm0,6.25H.625A.625.625,0,0,0,0,10.25v2.5a.625.625,0,0,0,.625.625h2.5a.625.625,0,0,0,.625-.625v-2.5A.625.625,0,0,0,3.125,9.625ZM19.375,16.5H6.875a.625.625,0,0,0-.625.625v1.25A.625.625,0,0,0,6.875,19h12.5A.625.625,0,0,0,20,18.375v-1.25A.625.625,0,0,0,19.375,16.5Zm0-12.5H6.875a.625.625,0,0,0-.625.625v1.25a.625.625,0,0,0,.625.625h12.5A.625.625,0,0,0,20,5.875V4.625A.625.625,0,0,0,19.375,4Zm0,6.25H6.875a.625.625,0,0,0-.625.625v1.25a.625.625,0,0,0,.625.625h12.5A.625.625,0,0,0,20,12.125v-1.25A.625.625,0,0,0,19.375,10.25Z" transform="translate(26 664.625)" fill="#5e6d7b"/>
  </g>
</svg>
