<svg xmlns="http://www.w3.org/2000/svg" width="90" height="32" viewBox="0 0 90 32">
  <g id="logo_login" transform="translate(-4 -81)">
    <rect id="area" width="90" height="32" transform="translate(4 81)" fill="none"/>
    <path id="빼기_3" data-name="빼기 3" d="M72.755,30.422a2.355,2.355,0,0,1-1.635-.586,2.14,2.14,0,0,1-.648-1.666V9.133a2.281,2.281,0,0,1,.6-1.681,2.156,2.156,0,0,1,1.589-.6,2.12,2.12,0,0,1,1.342.447,2.149,2.149,0,0,1,.756,1.25A5.484,5.484,0,0,1,77,6.942a6.62,6.62,0,0,1,2.268-.463A8.693,8.693,0,0,1,82.228,7a7.234,7.234,0,0,1,2.592,1.635,8.185,8.185,0,0,1,1.836,2.823,10.819,10.819,0,0,1,.694,4.057,9.813,9.813,0,0,1-.648,3.656,8.088,8.088,0,0,1-1.774,2.746A7.986,7.986,0,0,1,82.3,23.665a8.32,8.32,0,0,1-3.193.617,8.166,8.166,0,0,1-2.067-.293,4.83,4.83,0,0,1-2.006-1.1V28.17a2.068,2.068,0,0,1-.694,1.666A2.4,2.4,0,0,1,72.755,30.422ZM78.71,10.305a3.494,3.494,0,0,0-1.45.293,3.661,3.661,0,0,0-1.126.787,3.5,3.5,0,0,0-.741,1.157,3.887,3.887,0,0,0-.262,1.435v2.437a4.909,4.909,0,0,0,.231,1.5,4.313,4.313,0,0,0,.664,1.3,3.307,3.307,0,0,0,1.049.91,2.846,2.846,0,0,0,1.388.34,4.148,4.148,0,0,0,1.836-.386,3.764,3.764,0,0,0,1.311-1.049,4.347,4.347,0,0,0,.772-1.589,7.816,7.816,0,0,0,.246-2.006,6.182,6.182,0,0,0-1.018-3.764A3.423,3.423,0,0,0,78.71,10.305ZM40.76,24.385c-.089,0-.173,0-.248-.01a5.2,5.2,0,0,1-2.3-.509,4.172,4.172,0,0,1-1.466-1.25,4.712,4.712,0,0,1-.771-1.759,9.537,9.537,0,0,1-.216-2.036V10.614H34.9a1.96,1.96,0,0,1-1.419-.509,1.793,1.793,0,0,1-.524-1.342,1.805,1.805,0,0,1,.524-1.326A1.928,1.928,0,0,1,34.9,6.911h.895V4.936a2.191,2.191,0,0,1,.648-1.682,2.321,2.321,0,0,1,1.635-.6,2.366,2.366,0,0,1,1.589.6,2.116,2.116,0,0,1,.695,1.682V6.911h2.067a1.917,1.917,0,0,1,1.435.525,1.834,1.834,0,0,1,.509,1.326A1.821,1.821,0,0,1,43.86,10.1a1.949,1.949,0,0,1-1.435.509H40.358v8.208a3.936,3.936,0,0,0,.185,1.3c.123.348.465.525,1.018.525h.385a2.922,2.922,0,0,0,.416-.031c.121,0,.288,0,.509-.015l.073,0a1.846,1.846,0,0,1,.605.109,1.474,1.474,0,0,1,.633.448,1.734,1.734,0,0,1,.34.972,1.627,1.627,0,0,1-.154.987,1.842,1.842,0,0,1-.555.6,2.493,2.493,0,0,1-.71.34,3.872,3.872,0,0,1-.648.139c-.369.062-.732.114-1.08.154A5.4,5.4,0,0,1,40.76,24.385Zm-15.49-.041a10.287,10.287,0,0,1-3.255-.509,7.206,7.206,0,0,1-4.5-4.258,10.255,10.255,0,0,1-.663-3.873,11.814,11.814,0,0,1,.54-3.641A8.456,8.456,0,0,1,18.96,9.179a7.375,7.375,0,0,1,2.514-1.913,7.872,7.872,0,0,1,3.363-.694,8.288,8.288,0,0,1,3.209.57A6.605,6.605,0,0,1,30.33,8.7a7.12,7.12,0,0,1,1.45,2.375,12.58,12.58,0,0,1,.71,2.993,2.974,2.974,0,0,1-.463,2.329,3.489,3.489,0,0,1-2.653.756h-7.93a3.678,3.678,0,0,0,1.327,2.715,4.584,4.584,0,0,0,2.746.8,8.742,8.742,0,0,0,3.579-.926c.139-.06.325-.135.57-.231a2.317,2.317,0,0,1,.756-.154h.055a1.577,1.577,0,0,1,.731.186,1.5,1.5,0,0,1,.633.787A1.889,1.889,0,0,1,32,21.4a1.7,1.7,0,0,1-.37.772,2.782,2.782,0,0,1-.617.54c-.219.139-.406.254-.555.34a10.175,10.175,0,0,1-2.545,1A11.577,11.577,0,0,1,25.27,24.344Zm-.432-14.1a3.02,3.02,0,0,0-2.407,1.049,3.482,3.482,0,0,0-.617,1.018,5.6,5.6,0,0,0-.308,1.111h6.449a5.675,5.675,0,0,0-.324-1.065,4.141,4.141,0,0,0-.6-1.034,3.163,3.163,0,0,0-.91-.771A2.546,2.546,0,0,0,24.838,10.243ZM65.258,24a2.357,2.357,0,0,1-1.635-.586,2.141,2.141,0,0,1-.648-1.666V9.194a2.191,2.191,0,0,1,.648-1.682,2.321,2.321,0,0,1,1.635-.6,2.367,2.367,0,0,1,1.589.6,2.117,2.117,0,0,1,.694,1.682V21.752a2.07,2.07,0,0,1-.694,1.666A2.4,2.4,0,0,1,65.258,24Zm-12.62,0a2.338,2.338,0,0,1-1.65-.617,2.212,2.212,0,0,1-.664-1.7V4.5h-4.2a2.13,2.13,0,0,1-1.543-.54,1.878,1.878,0,0,1-.555-1.4,1.969,1.969,0,0,1,.555-1.45A2.094,2.094,0,0,1,46.128.555H59.4a2.094,2.094,0,0,1,1.543.555,1.969,1.969,0,0,1,.555,1.45,1.879,1.879,0,0,1-.555,1.4A2.13,2.13,0,0,1,59.4,4.5H54.983V21.69a2.14,2.14,0,0,1-.71,1.7A2.428,2.428,0,0,1,52.638,24ZM2.345,24a2.4,2.4,0,0,1-1.666-.617A2.187,2.187,0,0,1,0,21.69V3.98A3.578,3.578,0,0,1,.834,1.435,3.572,3.572,0,0,1,3.518.555H8.054c2.62,0,4.6.649,5.877,1.928A7.572,7.572,0,0,1,15.86,8.053a7.622,7.622,0,0,1-1.944,5.538c-1.29,1.321-3.262,1.99-5.862,1.99H4.659V21.69a2.163,2.163,0,0,1-.694,1.7A2.371,2.371,0,0,1,2.345,24ZM7.85,7.185c-1.587,0-3.177,1.8-3.538,3.414a1.893,1.893,0,0,0,.2,1.594c.516.708,1.725.908,2.955,1.018.46.041.826.061,1.152.061a2.655,2.655,0,0,0,1.988-.58,1.944,1.944,0,0,0,.448-1.488C11,9.47,9.662,7.34,8.031,7.193,7.971,7.188,7.91,7.185,7.85,7.185Zm4.314-1.125A1.711,1.711,0,0,0,10.6,8.216a1.313,1.313,0,0,0,.644.795,1.3,1.3,0,0,0,.61.149A1.711,1.711,0,0,0,13.419,7a1.3,1.3,0,0,0-1.255-.943ZM3.442,5.3a1.289,1.289,0,0,0-.493.1,1.527,1.527,0,0,0-.72,2.019,1.593,1.593,0,0,0,1.427,1.03,1.285,1.285,0,0,0,.493-.1,1.527,1.527,0,0,0,.72-2.019A1.592,1.592,0,0,0,3.442,5.3Zm6.663-2.54a1.789,1.789,0,0,0-1.626,1.49A1.966,1.966,0,0,0,8.707,5.73a1.383,1.383,0,0,0,.87.625,1.307,1.307,0,0,0,.275.03,1.792,1.792,0,0,0,1.627-1.491A1.967,1.967,0,0,0,11.25,3.41a1.383,1.383,0,0,0-.87-.624,1.309,1.309,0,0,0-.275-.029ZM6.09,2.415a1.315,1.315,0,0,0-.2.015,1.771,1.771,0,0,0-1.3,2.045A1.681,1.681,0,0,0,6.127,6.068a1.286,1.286,0,0,0,.2-.015,1.771,1.771,0,0,0,1.3-2.044A1.681,1.681,0,0,0,6.09,2.415Zm59.2,3.417a2.985,2.985,0,0,1-1.142-.216A2.822,2.822,0,0,1,63.221,5a3.036,3.036,0,0,1-.633-.926,2.818,2.818,0,0,1-.231-1.142A2.848,2.848,0,0,1,62.589,1.8a2.983,2.983,0,0,1,.633-.941,3.03,3.03,0,0,1,.925-.632,2.933,2.933,0,0,1,2.284,0,3.024,3.024,0,0,1,.926.632,2.785,2.785,0,0,1,.617.941,3.016,3.016,0,0,1,.216,1.126,2.846,2.846,0,0,1-2.9,2.9Z" transform="translate(5.293 81.643)" fill="#fff"/>
  </g>
</svg>
