<svg xmlns="http://www.w3.org/2000/svg" width="120" height="32" viewBox="0 0 120 32">
  <g id="logo_login" transform="translate(-16 -19)">
    <rect id="area" width="120" height="32" transform="translate(16 19)" fill="none"/>
    <path id="logo" d="M71.487,30.8a2.538,2.538,0,0,1-1.781-.65A2.4,2.4,0,0,1,69,28.3V7.186a2.558,2.558,0,0,1,.656-1.865,2.328,2.328,0,0,1,1.731-.667,2.283,2.283,0,0,1,1.462.5,2.389,2.389,0,0,1,.823,1.386,5.976,5.976,0,0,1,2.437-1.779,7.108,7.108,0,0,1,2.47-.514,9.311,9.311,0,0,1,3.227.582,7.843,7.843,0,0,1,2.823,1.814,9.091,9.091,0,0,1,2,3.131,12.2,12.2,0,0,1,.756,4.5,11.06,11.06,0,0,1-.706,4.055,8.992,8.992,0,0,1-1.932,3.045A8.706,8.706,0,0,1,81.889,23.3a8.932,8.932,0,0,1-3.479.684,8.759,8.759,0,0,1-2.252-.325,5.241,5.241,0,0,1-2.185-1.214V28.3a2.313,2.313,0,0,1-.756,1.847A2.59,2.59,0,0,1,71.487,30.8ZM78.6,13.414c-1.742,0-3.488,1.98-3.885,3.749a2.08,2.08,0,0,0,.22,1.751c.567.777,1.894,1,3.244,1.118.512.046.913.067,1.264.067a2.918,2.918,0,0,0,2.183-.637,2.136,2.136,0,0,0,.493-1.634c-.065-1.9-1.53-4.244-3.321-4.4C78.731,13.417,78.664,13.414,78.6,13.414Zm4.738-1.235a1.879,1.879,0,0,0-1.723,2.366,1.443,1.443,0,0,0,.708.874,1.428,1.428,0,0,0,.67.163,1.879,1.879,0,0,0,1.723-2.366,1.422,1.422,0,0,0-1.378-1.036Zm-9.579-.839a1.416,1.416,0,0,0-.542.107,1.678,1.678,0,0,0-.791,2.218,1.75,1.75,0,0,0,1.567,1.13,1.415,1.415,0,0,0,.541-.107,1.676,1.676,0,0,0,.791-2.217A1.749,1.749,0,0,0,73.757,11.34Zm7.318-2.789a1.965,1.965,0,0,0-1.786,1.636,2.158,2.158,0,0,0,.251,1.629,1.518,1.518,0,0,0,.955.685,1.467,1.467,0,0,0,.3.032A1.967,1.967,0,0,0,82.583,10.9a2.158,2.158,0,0,0-.251-1.628,1.519,1.519,0,0,0-.955-.686A1.441,1.441,0,0,0,81.075,8.551Zm-4.408-.376a1.44,1.44,0,0,0-.218.017,1.945,1.945,0,0,0-1.433,2.245,1.849,1.849,0,0,0,1.691,1.751,1.45,1.45,0,0,0,.217-.017,1.944,1.944,0,0,0,1.432-2.245A1.846,1.846,0,0,0,76.666,8.175ZM115.883,24.1c-.1,0-.186,0-.267-.011a5.574,5.574,0,0,1-2.5-.565,4.562,4.562,0,0,1-1.6-1.386,5.272,5.272,0,0,1-.84-1.95,10.774,10.774,0,0,1-.235-2.258v-9.1H109.5a2.112,2.112,0,0,1-1.546-.564,2.008,2.008,0,0,1-.571-1.489,2.021,2.021,0,0,1,.571-1.471,2.076,2.076,0,0,1,1.546-.582h.975V2.532A2.452,2.452,0,0,1,111.18.667,2.5,2.5,0,0,1,112.961,0a2.554,2.554,0,0,1,1.731.667,2.367,2.367,0,0,1,.756,1.865v2.19H117.7a2.065,2.065,0,0,1,1.563.582,2.055,2.055,0,0,1,.554,1.471,2.043,2.043,0,0,1-.554,1.489,2.1,2.1,0,0,1-1.563.564h-2.252v9.1a4.452,4.452,0,0,0,.2,1.437c.134.386.507.582,1.109.582h.42a3.19,3.19,0,0,0,.454-.034c.134,0,.321-.006.554-.018l.077,0a1.989,1.989,0,0,1,.663.122,1.607,1.607,0,0,1,.689.5,1.939,1.939,0,0,1,.37,1.078,1.829,1.829,0,0,1-.168,1.1,2.034,2.034,0,0,1-.6.667,2.7,2.7,0,0,1-.773.377,4.205,4.205,0,0,1-.706.154c-.4.068-.8.126-1.177.171A5.8,5.8,0,0,1,115.883,24.1Zm-92.894-.011a6.929,6.929,0,0,1-2.706-.479,5.347,5.347,0,0,1-1.865-1.283,4.965,4.965,0,0,1-1.076-1.848,7.086,7.086,0,0,1-.336-2.173,6.243,6.243,0,0,1,2.487-5.2c1.65-1.271,4.127-1.916,7.361-1.916h.218a3.557,3.557,0,0,1,.42.034,6.046,6.046,0,0,0-.151-.941,2.236,2.236,0,0,0-.454-.906,2.617,2.617,0,0,0-.907-.685,3.554,3.554,0,0,0-1.513-.274,6.138,6.138,0,0,0-3.025.958c-.154.09-.358.193-.6.308a2.11,2.11,0,0,1-.807.188h-.068a1.788,1.788,0,0,1-.789-.189,1.866,1.866,0,0,1-.756-.821A2.007,2.007,0,0,1,18.1,7.7a1.925,1.925,0,0,1,.319-.907,2.633,2.633,0,0,1,.622-.65,4.541,4.541,0,0,1,.554-.359,12.574,12.574,0,0,1,2.5-1.044,10.006,10.006,0,0,1,2.84-.394,8.911,8.911,0,0,1,3.748.685,5.993,5.993,0,0,1,3.495,4.311,13.406,13.406,0,0,1,.32,2.909v9.033a2.423,2.423,0,0,1-.756,1.882,2.56,2.56,0,0,1-1.765.684,2.651,2.651,0,0,1-1.395-.376,2.254,2.254,0,0,1-.924-1.163,4.9,4.9,0,0,1-1.126.855,7.379,7.379,0,0,1-1.244.547A7.1,7.1,0,0,1,24.064,24,7.8,7.8,0,0,1,22.989,24.089Zm3.6-9.068a9.145,9.145,0,0,0-1.714.154,4.842,4.842,0,0,0-1.429.5,2.671,2.671,0,0,0-.975.89,2.423,2.423,0,0,0-.353,1.334,2.306,2.306,0,0,0,.471,1.659,1.617,1.617,0,0,0,1.176.462,3.772,3.772,0,0,0,2.3-.736,3.416,3.416,0,0,0,1.294-1.694,2.7,2.7,0,0,0,.134-.753V15.056a3.933,3.933,0,0,0-.487-.034ZM9.679,24.089a11.282,11.282,0,0,1-3.966-.667,8.293,8.293,0,0,1-3.042-1.95,9.084,9.084,0,0,1-1.967-3.1A11.416,11.416,0,0,1,0,14.234a11.589,11.589,0,0,1,.705-4.14A8.381,8.381,0,0,1,2.739,6.981a9.111,9.111,0,0,1,3.21-1.95,12.492,12.492,0,0,1,4.268-.685,9.344,9.344,0,0,1,1.865.189,13.463,13.463,0,0,1,1.8.5c.155.067.353.168.6.308a2.547,2.547,0,0,1,.672.547,1.917,1.917,0,0,1,.42.838A2.15,2.15,0,0,1,15.46,7.9a1.879,1.879,0,0,1-.622.89,2.152,2.152,0,0,1-.79.359,1.929,1.929,0,0,1-.4.043,1.812,1.812,0,0,1-.391-.043,4.784,4.784,0,0,1-.655-.188,10,10,0,0,0-1.177-.342,5.481,5.481,0,0,0-1.21-.137A4.879,4.879,0,0,0,6.369,9.992a5.964,5.964,0,0,0-1.327,4.072,7.229,7.229,0,0,0,.4,2.5,5.355,5.355,0,0,0,1.093,1.83,4.736,4.736,0,0,0,1.613,1.13,5,5,0,0,0,1.966.394,7.4,7.4,0,0,0,2.756-.582,3.527,3.527,0,0,1,.622-.188,1.815,1.815,0,0,1,.391-.043,1.922,1.922,0,0,1,.4.043,1.72,1.72,0,0,1,.774.41,2.135,2.135,0,0,1,.571,1.044,2.249,2.249,0,0,1,.034,1.266,1.993,1.993,0,0,1-.488.787,2.139,2.139,0,0,1-.722.462l-.672.257a14.1,14.1,0,0,1-1.9.513A11.262,11.262,0,0,1,9.679,24.089Zm88.494-.034a11,11,0,0,1-3.546-.565A8,8,0,0,1,91.7,21.745a8.236,8.236,0,0,1-1.984-2.977A11.545,11.545,0,0,1,89,14.474a13.3,13.3,0,0,1,.588-4.038,9.418,9.418,0,0,1,1.714-3.2,8.031,8.031,0,0,1,2.739-2.122,8.439,8.439,0,0,1,3.664-.77,8.879,8.879,0,0,1,3.5.633,7.184,7.184,0,0,1,2.487,1.728,7.935,7.935,0,0,1,1.579,2.634,14.12,14.12,0,0,1,.773,3.319,3.345,3.345,0,0,1-.5,2.583c-.468.556-1.441.838-2.89.838H94a4.108,4.108,0,0,0,1.445,3.011,4.932,4.932,0,0,0,2.991.89,9.394,9.394,0,0,0,3.9-1.026c.156-.068.36-.152.622-.257a2.5,2.5,0,0,1,.823-.171h.061a1.69,1.69,0,0,1,.8.207,1.65,1.65,0,0,1,.689.873,2.131,2.131,0,0,1,.168,1.18,1.9,1.9,0,0,1-.4.856,3.051,3.051,0,0,1-.672.6c-.252.163-.45.287-.6.377a10.994,10.994,0,0,1-2.773,1.112A12.407,12.407,0,0,1,98.173,24.055ZM97.7,8.417a3.383,3.383,0,0,0-1.546.326,3.46,3.46,0,0,0-1.076.838,3.88,3.88,0,0,0-.672,1.129,6.345,6.345,0,0,0-.336,1.232H101.1a6.3,6.3,0,0,0-.353-1.181,4.614,4.614,0,0,0-.655-1.146A3.465,3.465,0,0,0,99.1,8.76,2.734,2.734,0,0,0,97.7,8.417ZM58.245,24.055A11,11,0,0,1,54.7,23.49a8,8,0,0,1-2.924-1.745,8.239,8.239,0,0,1-1.983-2.977,11.547,11.547,0,0,1-.723-4.294,13.324,13.324,0,0,1,.588-4.038,9.417,9.417,0,0,1,1.714-3.2A8.042,8.042,0,0,1,54.11,5.116a8.439,8.439,0,0,1,3.664-.77,8.874,8.874,0,0,1,3.5.633,7.181,7.181,0,0,1,2.487,1.728,7.91,7.91,0,0,1,1.579,2.634,14.128,14.128,0,0,1,.774,3.319,3.347,3.347,0,0,1-.5,2.583c-.468.556-1.441.838-2.891.838H54.077a4.109,4.109,0,0,0,1.445,3.011,4.932,4.932,0,0,0,2.991.89,9.4,9.4,0,0,0,3.9-1.026c.159-.07.369-.156.622-.257a2.49,2.49,0,0,1,.824-.171h.061a1.688,1.688,0,0,1,.8.207,1.646,1.646,0,0,1,.689.873,2.123,2.123,0,0,1,.168,1.18,1.893,1.893,0,0,1-.4.856,3.046,3.046,0,0,1-.672.6c-.252.163-.45.286-.6.377a10.986,10.986,0,0,1-2.773,1.112A12.408,12.408,0,0,1,58.245,24.055ZM57.774,8.417a3.388,3.388,0,0,0-1.546.326,3.475,3.475,0,0,0-1.076.838,3.881,3.881,0,0,0-.672,1.129,6.325,6.325,0,0,0-.336,1.232h7.025a6.326,6.326,0,0,0-.353-1.181,4.6,4.6,0,0,0-.655-1.146,3.478,3.478,0,0,0-.991-.855A2.739,2.739,0,0,0,57.774,8.417ZM38.482,23.678a2.54,2.54,0,0,1-1.781-.65A2.4,2.4,0,0,1,36,21.18V7.22a2.385,2.385,0,0,1,.688-1.814,2.556,2.556,0,0,1,3.092-.239A2.281,2.281,0,0,1,40.667,6.3a3.756,3.756,0,0,1,.991-1.026,5.208,5.208,0,0,1,1.109-.582,5.021,5.021,0,0,1,1.059-.274,6.267,6.267,0,0,1,.807-.069,6.043,6.043,0,0,1,1.378.137,2.61,2.61,0,0,1,.555.189,2.362,2.362,0,0,1,.689.479,2.315,2.315,0,0,1,.538.873,2.728,2.728,0,0,1,.067,1.369,1.5,1.5,0,0,1-.924,1.318,2.768,2.768,0,0,1-.812.126,2.62,2.62,0,0,1-.616-.074,4.728,4.728,0,0,0-.941-.1,2.442,2.442,0,0,0-1.293.359,4.035,4.035,0,0,0-1.042.924,5.787,5.787,0,0,0-.773,1.282,8.078,8.078,0,0,0-.488,1.438v8.52a2.316,2.316,0,0,1-.756,1.848A2.593,2.593,0,0,1,38.482,23.678Z" transform="translate(16 20)" fill="#fff"/>
  </g>
</svg>
