<svg xmlns="http://www.w3.org/2000/svg" width="38" height="38" viewBox="0 0 38 38">
  <g id="attendance_default" transform="translate(-67 -328)">
    <circle id="타원_1076" data-name="타원 1076" cx="19" cy="19" r="19" transform="translate(67 328)" fill="none"/>
    <g id="그룹_53766" data-name="그룹 53766" transform="translate(-0.148 1.202)">
      <g id="합치기_4" data-name="합치기 4" transform="translate(73.147 335.15)" fill="none">
        <path d="M14.462,22.734c-.594-.033-.977-.5-1.348-.692-.371.19-.754.66-1.348.692-1.517.4-3.685-.05-4.1-.889a.439.439,0,0,0-.6-.158c-.561.976-2.128-.593-2.411-.711a1.508,1.508,0,0,1-.381-.229,1.607,1.607,0,0,1-.562-1.08.954.954,0,0,1-.386-.226A1.771,1.771,0,0,1,2.051,18.7c-.408-.6-.6-1.129-.25-1.715C1,16.573.494,16.072.536,15.428a1.863,1.863,0,0,1-.5-1.347,2.26,2.26,0,0,1,0-.772,2.034,2.034,0,0,1,.561-1.8A2.2,2.2,0,0,1,.477,9.311q.009-.04.019-.08A3.4,3.4,0,0,1,1.39,7.659,2.228,2.228,0,0,1,1.542,5.9C.379,4.472.36.719,2.209.743A6.4,6.4,0,0,1,5.2,1.849a2.387,2.387,0,0,1,.291.2l.091.007A2.335,2.335,0,0,1,6.428,1.5a4.018,4.018,0,0,1,.341-.421A3.508,3.508,0,0,1,8.2.173a2.494,2.494,0,0,1,1.871.156l.047.025a2.491,2.491,0,0,1,.738.063q.069.017.138.039A2.394,2.394,0,0,1,12.191.009a2.343,2.343,0,0,1,.924.107,2.34,2.34,0,0,1,.923-.107,2.4,2.4,0,0,1,1.194.446q.068-.022.138-.039a2.5,2.5,0,0,1,.739-.063l.047-.025a2.492,2.492,0,0,1,1.87-.156,3.511,3.511,0,0,1,1.436.9A4.019,4.019,0,0,1,19.8,1.5a2.368,2.368,0,0,1,.506.268,2.064,2.064,0,0,1,.338-.327A5.931,5.931,0,0,1,23.171.068c1.727-.289,2.075,3.4,1,4.643a3.21,3.21,0,0,1,.458,1.11,2.144,2.144,0,0,1,.211,1.838,3.391,3.391,0,0,1,.894,1.572q.01.038.018.076a2.2,2.2,0,0,1-.116,2.2,2.034,2.034,0,0,1,.561,1.805,2.253,2.253,0,0,1,0,.771,1.866,1.866,0,0,1-.5,1.346c.042.644-.461,1.145-1.266,1.557.353.585.158,1.111-.249,1.715a1.771,1.771,0,0,1-1.275.744.956.956,0,0,1-.386.226,1.606,1.606,0,0,1-.563,1.08,1.477,1.477,0,0,1-.381.229c-.282.118-1.85,1.687-2.41.711a.438.438,0,0,0-.6.158c-.312.627-1.6,1.037-2.866,1.037A4.89,4.89,0,0,1,14.462,22.734Z" stroke="none"/>
        <path d="M 10.52981662750244 22.88295555114746 C 10.95776176452637 22.8829345703125 11.38317775726318 22.83589172363281 11.76669406890869 22.73427772521973 C 12.36071491241455 22.70201873779297 12.74372482299805 22.23202896118164 13.11442470550537 22.04233741760254 C 13.48547458648682 22.23195838928223 13.86854457855225 22.7016487121582 14.46221446990967 22.73423767089844 C 15.97941780090332 23.13618087768555 18.14756393432617 22.684326171875 18.56520462036133 21.8456974029541 C 18.6615047454834 21.65129852294922 18.9846019744873 21.55049514770508 19.16460418701172 21.68819808959961 C 19.72440147399902 22.66380310058594 21.29310607910156 21.09509658813477 21.57480430603027 20.97719764709473 C 21.70980453491211 20.9213981628418 21.83850479125977 20.84579849243164 21.95550537109375 20.74859809875488 C 22.28604507446289 20.4762077331543 22.47538375854492 20.08020782470703 22.5180835723877 19.6684684753418 C 22.62806510925293 19.64770889282227 22.76250457763672 19.56224822998047 22.90366363525391 19.44278717041016 C 23.40678405761719 19.38445854187012 23.88652420043945 19.13095855712891 24.17850494384766 18.69839859008789 C 24.58620452880859 18.09539794921875 24.78060531616211 17.56889724731445 24.42780494689941 16.9838981628418 C 25.2326545715332 16.5723876953125 25.73599433898926 16.0715274810791 25.69384384155273 15.4271879196167 C 26.27177429199219 14.75896835327148 26.1634349822998 14.26007843017578 26.19540405273438 14.08139801025391 C 26.24010467529297 13.82478809356689 26.24005508422852 13.56448841094971 26.19625473022461 13.31081771850586 C 26.30961418151855 12.68259811401367 26.13308525085449 12.00708770751953 25.63560485839844 11.5055980682373 C 26.08884429931641 10.80713844299316 26.08669471740723 9.97769832611084 25.75116539001465 9.307647705078125 C 25.74532508850098 9.28211784362793 25.73921394348145 9.256657600402832 25.7328052520752 9.231298446655273 C 25.58084487915039 8.627218246459961 25.2695140838623 8.091048240661621 24.83918380737305 7.659458160400391 C 24.99506378173828 6.996608257293701 25.01567459106445 6.320188045501709 24.62794494628906 5.821167945861816 C 24.5461540222168 5.427467823028564 24.39229393005371 5.04899787902832 24.16997528076172 4.710907936096191 C 25.24646377563477 3.47161865234375 24.89817810058594 -0.2205859571695328 23.1714038848877 0.06839802861213684 C 22.22370529174805 0.22679802775383 21.41190528869629 0.8441980481147766 20.64600372314453 1.439998030662537 C 20.5105152130127 1.545557975769043 20.3985652923584 1.65474808216095 20.30800437927246 1.766558051109314 C 20.15158462524414 1.657588005065918 19.98123359680176 1.567517995834351 19.801513671875 1.498697996139526 C 19.69649505615234 1.351448059082031 19.58426475524902 1.208708047866821 19.4607048034668 1.077298045158386 C 19.07550430297852 0.6677980422973633 18.55800437927246 0.347398042678833 18.02520370483398 0.1727980375289917 C 17.4159107208252 -0.02790128812193871 16.72740364074707 0.04139741137623787 16.15500450134277 0.3284980356693268 C 16.13917350769043 0.3364180326461792 16.12351417541504 0.3447380363941193 16.10798454284668 0.3533680438995361 C 15.85998725891113 0.3371377289295197 15.60874366760254 0.359618216753006 15.36930465698242 0.4166980385780334 C 15.3231840133667 0.4278480410575867 15.2772741317749 0.4407780170440674 15.23172473907471 0.455208033323288 C 14.88625431060791 0.2064180374145508 14.47834491729736 0.04781803116202354 14.03820419311523 0.008998031727969646 C 13.72657585144043 -0.01926190592348576 13.41227531433105 0.02113797701895237 13.11478424072266 0.1164380311965942 C 12.8172550201416 0.02113824523985386 12.50282764434814 -0.01926220767199993 12.19050407409668 0.008998031727969646 C 11.750244140625 0.04782802984118462 11.34275436401367 0.2064580321311951 10.9974946975708 0.4553680419921875 C 10.95176410675049 0.4408680200576782 10.90569400787354 0.427888035774231 10.85940456390381 0.4166980385780334 C 10.62054443359375 0.3596380352973938 10.36955642700195 0.3371481597423553 10.12159442901611 0.3533580303192139 C 10.10606479644775 0.344728022813797 10.09041404724121 0.3364080190658569 10.07460403442383 0.3284980356693268 C 9.502204895019531 0.04139837250113487 8.813705444335938 -0.02790237404406071 8.20350456237793 0.1727980375289917 C 7.670704364776611 0.347398042678833 7.154104232788086 0.6677980422973633 6.768904685974121 1.077298045158386 C 6.645414352416992 1.20861804485321 6.533244609832764 1.351248025894165 6.428294658660889 1.498398065567017 C 6.109514236450195 1.620388031005859 5.820464611053467 1.809238076210022 5.585414409637451 2.0520179271698 C 5.553874492645264 2.048768043518066 5.52316427230835 2.046097993850708 5.493924617767334 2.044647932052612 C 5.407354354858398 1.976108074188232 5.31059455871582 1.910628080368042 5.202904224395752 1.848598003387451 C 4.269604682922363 1.311298012733459 3.281404495239258 0.7577980160713196 2.208604574203491 0.7433980107307434 C 0.3598198890686035 0.7186993360519409 0.3787645697593689 4.472157955169678 1.542154431343079 5.903257846832275 C 1.216244459152222 6.392787933349609 1.242704510688782 7.03190803527832 1.39018440246582 7.658837795257568 C 0.959754467010498 8.09052848815918 0.6486744284629822 8.626948356628418 0.4959044456481934 9.231298446655273 C 0.4892144501209259 9.25773811340332 0.4828644692897797 9.28427791595459 0.4768044650554657 9.310908317565918 C 0.1429044604301453 9.980387687683105 0.1414944529533386 10.80827808380127 0.5940044522285461 11.5055980682373 C 0.09695445746183395 12.00664806365967 -0.07972554117441177 12.6814079284668 0.03302445635199547 13.30914783477783 C -0.01080554164946079 13.56334781646729 -0.01059554237872362 13.82422828674316 0.03420445695519447 14.08139801025391 C 0.06535445898771286 14.2601375579834 -0.04235554113984108 14.75935840606689 0.5356744527816772 15.42791843414307 C 0.4939544498920441 16.07186889648438 0.9970444440841675 16.57256889343262 1.800904512405396 16.9838981628418 C 1.448104500770569 17.56889724731445 1.643404483795166 18.09539794921875 2.051104545593262 18.69839859008789 C 2.342874526977539 19.13065719604492 2.822174549102783 19.38410758972168 3.324914455413818 19.44266891479492 C 3.466334342956543 19.56239891052246 3.601104497909546 19.64802742004395 3.711224555969238 19.66859817504883 C 3.753564357757568 20.08030891418457 3.943444490432739 20.47622871398926 4.273204326629639 20.74859809875488 C 4.391104221343994 20.84579849243164 4.51980447769165 20.9213981628418 4.653904438018799 20.97719764709473 C 4.93650484085083 21.0950984954834 6.504305362701416 22.66379547119141 7.065004348754883 21.68819808959961 C 7.244104385375977 21.55049514770508 7.568104267120361 21.65219879150391 7.664404392242432 21.8456974029541 C 7.975953578948975 22.47230911254883 9.264994621276855 22.88301467895508 10.52981662750244 22.88295555114746 M 10.52988433837891 24.38295745849609 L 10.52981472015381 22.88295745849609 L 10.52988433837891 24.38295745849609 C 9.417462348937988 24.38300895690918 8.036151885986328 24.11825561523438 7.110174655914307 23.42929267883301 C 6.92667818069458 23.48005104064941 6.733121871948242 23.50629997253418 6.53240442276001 23.50631713867188 C 5.520374298095703 23.50638771057129 4.611144542694092 22.81173896789551 4.067904472351074 22.39668846130371 C 4.029077053070068 22.36702156066895 3.981001853942871 22.33029365539551 3.944293975830078 22.3028621673584 C 3.720207929611206 22.19678115844727 3.510136365890503 22.06354522705078 3.319024562835693 21.9059886932373 C 2.949377059936523 21.60066986083984 2.661802530288696 21.21688652038574 2.470982789993286 20.78270530700684 C 1.789683818817139 20.55777168273926 1.2035311460495 20.12383270263672 0.807824432849884 19.53759765625 C 0.6085807681083679 19.24291229248047 0.1381108909845352 18.54704284667969 0.1150738894939423 17.66428375244141 C -0.5405674576759338 17.10833358764648 -0.8264528512954712 16.51210784912109 -0.9244828224182129 15.97778224945068 C -1.425538301467896 15.20756340026855 -1.449068903923035 14.54206562042236 -1.456894278526306 14.25692081451416 C -1.504637360572815 13.94255447387695 -1.512484908103943 13.62584114074707 -1.480443358421326 13.31163883209229 C -1.550911426544189 12.62882614135742 -1.420876383781433 11.94534397125244 -1.115668416023254 11.34280300140381 C -1.358698487281799 10.51626300811768 -1.304079532623291 9.625833511352539 -0.944227397441864 8.80914306640625 C -0.793011486530304 8.238736152648926 -0.5391087532043457 7.700776100158691 -0.1970500499010086 7.220950126647949 C -0.2323447167873383 6.802907943725586 -0.2085230350494385 6.413049221038818 -0.1258221566677094 6.053058624267578 C -0.8797693252563477 4.529008388519287 -0.9993371963500977 2.349334239959717 -0.3192155361175537 0.9199280142784119 C 0.1877744644880295 -0.1456019729375839 1.102524399757385 -0.7567219734191895 2.190494537353516 -0.7567219734191895 L 2.228304386138916 -0.7564719915390015 C 3.481492757797241 -0.7396508455276489 4.592963695526123 -0.2120684534311295 5.475011348724365 0.2778268754482269 C 5.541511535644531 0.1976033002138138 5.608328342437744 0.1218553856015205 5.676164627075195 0.04971802979707718 C 6.226204395294189 -0.535021960735321 6.957824230194092 -0.9974819421768188 7.73639440536499 -1.252611994743347 C 8.117804527282715 -1.378062009811401 8.521284103393555 -1.441931962966919 8.934084892272949 -1.441931962966919 C 9.449662208557129 -1.441931962966919 9.966105461120605 -1.341047406196594 10.44541549682617 -1.148298859596252 C 10.54266834259033 -1.144231915473938 10.63977909088135 -1.136601686477661 10.73656368255615 -1.125431656837463 C 11.15205192565918 -1.32220447063446 11.59970378875732 -1.444719791412354 12.05871486663818 -1.485201954841614 C 12.16499423980713 -1.494822025299072 12.27677440643311 -1.499851942062378 12.3875846862793 -1.499851942062378 C 12.63027667999268 -1.499851942062378 12.87347888946533 -1.476265072822571 13.11473751068115 -1.429480791091919 C 13.46605491638184 -1.497624635696411 13.82400417327881 -1.516551494598389 14.17361450195312 -1.484881997108459 C 14.6303882598877 -1.444594860076904 15.07737827301025 -1.322147011756897 15.49278354644775 -1.125384330749512 C 15.58975791931152 -1.136592268943787 15.6868839263916 -1.144230127334595 15.78399085998535 -1.148296594619751 C 16.26279449462891 -1.340914964675903 16.77951049804688 -1.441931962966919 17.29532432556152 -1.441931962966919 C 17.70820426940918 -1.441931962966919 18.11166381835938 -1.378001928329468 18.49447441101074 -1.251911997795105 C 19.16232872009277 -1.033051609992981 19.79677581787109 -0.6607644557952881 20.31081008911133 -0.1896373927593231 C 21.01537704467773 -0.7042124271392822 21.88874626159668 -1.238028764724731 22.92412376403809 -1.411081910133362 C 23.06908416748047 -1.43533194065094 23.21564483642578 -1.447651982307434 23.35948371887207 -1.447651982307434 C 24.42143440246582 -1.447651982307434 25.32138442993164 -0.8096719980239868 25.82856369018555 0.3027080297470093 C 26.38127517700195 1.514919519424438 26.46223449707031 3.374701499938965 25.87363052368164 4.760396480560303 C 25.93055534362793 4.907071590423584 25.9802360534668 5.057021617889404 26.02255058288574 5.209927558898926 C 26.35712051391602 5.777319431304932 26.49227523803711 6.45074462890625 26.42665863037109 7.221794128417969 C 26.76775741577148 7.700248718261719 27.02085304260254 8.236105918884277 27.17167854309082 8.804227828979492 C 27.53354072570801 9.622310638427734 27.58896446228027 10.51461791992188 27.34533500671387 11.34286499023438 C 27.65083694458008 11.94602203369141 27.78079986572266 12.63015747070312 27.70981216430664 13.3137092590332 C 27.74193382263184 13.62837982177734 27.73402976989746 13.9452543258667 27.68610382080078 14.25953483581543 C 27.67794990539551 14.54367923736572 27.6540584564209 15.20801258087158 27.15426635742188 15.97665119171143 C 27.0564022064209 16.51144027709961 26.77041053771973 17.10812568664551 26.114013671875 17.66441345214844 C 26.09124565124512 18.54739570617676 25.62074851989746 19.24332046508789 25.42113494873047 19.53855895996094 C 25.0257453918457 20.12431716918945 24.43954467773438 20.55811882019043 23.75802230834961 20.78292846679688 C 23.56771469116211 21.21591949462891 23.28147315979004 21.598388671875 22.91403388977051 21.90238761901855 L 22.91403388977051 21.90238761901855 C 22.72258377075195 22.06143188476562 22.51140594482422 22.19576835632324 22.28465270996094 22.30288505554199 C 22.24819374084473 22.33015632629395 22.20074653625488 22.36641883850098 22.162353515625 22.3957576751709 C 21.61893463134766 22.81106758117676 20.70939445495605 23.50616836547852 19.69718360900879 23.50631713867188 C 19.49610137939453 23.50634574890137 19.30214691162109 23.48003005981445 19.11837387084961 23.42913627624512 C 18.19164085388184 24.11836814880371 16.81098175048828 24.3829402923584 15.69924449920654 24.38294792175293 C 15.1715784072876 24.38294792175293 14.67106628417969 24.32722663879395 14.20915794372559 24.21717834472656 C 13.77016353607178 24.16507148742676 13.4067850112915 24.01226615905762 13.11474704742432 23.84554100036621 C 12.82246780395508 24.0124683380127 12.45888900756836 24.16534233093262 12.01933670043945 24.21731567382812 C 11.55773544311523 24.32724380493164 11.05739307403564 24.38293075561523 10.52988433837891 24.38295745849609 Z" stroke="none" fill="#76a1ef"/>
      </g>
      <g id="왼쪽귀" transform="translate(73.668 337.051) rotate(-8)">
        <path id="패스_19552" data-name="패스 19552" d="M.444.246A6.146,6.146,0,0,1,2.663,0c2.063.024,1.064,2.371-.168,2.7C1.215,3.047-.933.774.444.246Z" transform="matrix(0.799, 0.602, -0.602, 0.799, 1.648, 0)" fill="#76a1ef"/>
      </g>
      <g id="오른쪽귀" transform="translate(93.556 336.098)">
        <path id="패스_19553" data-name="패스 19553" d="M.35,2.1A4.533,4.533,0,0,0,2.1,2.307c1.624-.02.838-2-.133-2.278C.956-.259-.734,1.656.35,2.1Z" transform="matrix(-0.799, 0.602, -0.602, -0.799, 3.811, 1.844)" fill="#76a1ef"/>
      </g>
      <g id="얼굴" transform="translate(76.263 344.098)">
        <path id="패스_19536" data-name="패스 19536" d="M432.085,435.176c.566,0,.832-.514.879-1.008a1.939,1.939,0,0,0-.244-1.1.75.75,0,0,0-1.235,0,2.11,2.11,0,0,0-.247,1.092C431.271,434.646,431.521,435.176,432.085,435.176Z" transform="translate(-426.575 -430.409)" fill="#76a1ef"/>
        <path id="패스_19537" data-name="패스 19537" d="M495.161,437.945c.848-.3.7-1.419.41-2.063a.685.685,0,0,0-1.065-.137,1.305,1.305,0,0,0-.424.822,1.751,1.751,0,0,0,.022.789A.84.84,0,0,0,495.161,437.945Z" transform="translate(-480.356 -432.817)" fill="#76a1ef"/>
        <path id="패스_19544" data-name="패스 19544" d="M1.02,3.251c.777-.409.643-1.93.376-2.807A.528.528,0,0,0,.42.258,2.162,2.162,0,0,0,.032,1.376a3.514,3.514,0,0,0,.02,1.073C.168,3.054.605,3.469,1.02,3.251Z" transform="matrix(-0.174, -0.985, 0.985, -0.174, 15.738, 6.751)" fill="#76a1ef"/>
        <path id="패스_19545" data-name="패스 19545" d="M1.02.059c.777.409.643,1.93.376,2.807a.528.528,0,0,1-.976.187A2.162,2.162,0,0,1,.031,1.934,3.514,3.514,0,0,1,.051.861C.168.256.605-.159,1.02.059Z" transform="matrix(0.174, -0.985, 0.985, 0.174, 1, 6.177)" fill="#76a1ef"/>
        <g id="그룹_53605" data-name="그룹 53605" transform="matrix(0.951, 0.309, -0.309, 0.951, 7.946, 3.492)">
          <g id="그룹_53606" data-name="그룹 53606" transform="translate(0 0.627)">
            <g id="그룹_53476" data-name="그룹 53476" transform="translate(2.045 0)">
              <path id="패스_20074" data-name="패스 20074" d="M1.025,3.235a.423.423,0,0,1-.409-.319L.013.525A.423.423,0,0,1,.833.319l.6,2.39a.422.422,0,0,1-.306.513A.43.43,0,0,1,1.025,3.235Z" transform="translate(0 0)" fill="#76a1ef"/>
            </g>
            <g id="그룹_53478" data-name="그룹 53478" transform="translate(0 1.813)">
              <g id="그룹_53477" data-name="그룹 53477" transform="translate(0 0)">
                <path id="패스_20075" data-name="패스 20075" d="M1.452,2.527A2.193,2.193,0,0,1,.177,2.114a.422.422,0,1,1,.491-.688,1.327,1.327,0,0,0,1.1.215,1.309,1.309,0,0,0,.858-.71C2.64.906,2.655.879,2.67.853A.435.435,0,0,1,2.963.595a.426.426,0,0,1,.378.08A.9.9,0,0,1,3.429.73,1.312,1.312,0,0,0,4.521.948,1.333,1.333,0,0,0,5.388.236a.423.423,0,0,1,.759.373A2.178,2.178,0,0,1,4.728,1.767a2.151,2.151,0,0,1-1.51-.18,2.152,2.152,0,0,1-1.242.874A2.135,2.135,0,0,1,1.452,2.527Z" fill="#76a1ef"/>
              </g>
            </g>
          </g>
          <g id="그룹_53607" data-name="그룹 53607" transform="translate(1.159 0)">
            <path id="패스_20076" data-name="패스 20076" d="M2.2,1.579l-.385.263a.864.864,0,0,1-.577.146L.775,1.939a.864.864,0,0,1-.748-.649h0A.864.864,0,0,1,.653.241L1.5.027a.865.865,0,0,1,1.05.627h0A.864.864,0,0,1,2.2,1.579Z" transform="translate(0 0)" fill="#76a1ef"/>
          </g>
        </g>
      </g>
    </g>
  </g>
</svg>
