<svg xmlns="http://www.w3.org/2000/svg" width="58" height="48" viewBox="0 0 58 48">
  <g id="icon_bubble" transform="translate(-139 -382)">
    <rect id="area" width="58" height="48" transform="translate(139 382)" fill="none"/>
    <path id="패스_20291" data-name="패스 20291" d="M639.555,611.339a15.8,15.8,0,0,1,6.01,1.134q.428.175.85.38a14.463,14.463,0,0,1,5.317,4.439,15.237,15.237,0,0,1,1.238,1.985,16.075,16.075,0,0,1,.787,13.076q-.265.684-.6,1.34a14.871,14.871,0,0,1-5.111,5.714v12.4l-9.813-9.813-12.635-.006a16.972,16.972,0,0,1-4.96-.7,14.4,14.4,0,0,1-2.076-.808,14.547,14.547,0,0,1-7.547-9.3,16.72,16.72,0,0,1,1.587-12.788,14.25,14.25,0,0,1,13-7.052l13.95,0Zm-29.374,7.64a15.153,15.153,0,0,0-4.895,1.4,14.46,14.46,0,0,0-5.316,4.438,15.27,15.27,0,0,0-1.238,1.985,16.076,16.076,0,0,0-.787,13.076q.265.684.6,1.34a14.87,14.87,0,0,0,5.11,5.714v12.4l9.813-9.813,12.635-.006a16.993,16.993,0,0,0,4.96-.7,14.491,14.491,0,0,0,2.077-.808,13.749,13.749,0,0,0,4.7-3.744l-.387-.387L625.6,643.87a18.67,18.67,0,0,1-6.184-1.006,15.6,15.6,0,0,1-4.98-2.857,17.184,17.184,0,0,1-5.67-10.346,18.68,18.68,0,0,1,1.416-10.681Zm14.386,5.029a2.432,2.432,0,1,1-2.432,2.432,2.433,2.433,0,0,1,2.432-2.432Zm8.03,0a2.432,2.432,0,1,1-2.432,2.432,2.433,2.433,0,0,1,2.432-2.432Zm8.03,0a2.432,2.432,0,1,1-2.432,2.432,2.433,2.433,0,0,1,2.432-2.432Zm-1.074-8.876-13.951,0a12.3,12.3,0,0,0-5.3,1.124,10.738,10.738,0,0,0-5.624,6.917,12.828,12.828,0,0,0-.294,1.339,12.466,12.466,0,0,0,2.471,9.884,10.938,10.938,0,0,0,8.751,3.8l14.213-.005,4.427,4.428v-5.37a15.5,15.5,0,0,0,4.022-3.09,10.9,10.9,0,0,0,2.642-5.959,12.224,12.224,0,0,0,.088-1.775,11.845,11.845,0,0,0-4.319-8.952,10.369,10.369,0,0,0-.937-.659,11.518,11.518,0,0,0-6.187-1.682Z" transform="translate(-457.915 -229.337)" fill="#a4adb7"/>
  </g>
</svg>
