<svg xmlns="http://www.w3.org/2000/svg" width="79" height="28" viewBox="0 0 79 28">
  <g id="logo" transform="translate(-4 -81)">
    <rect id="area" width="79" height="28" transform="translate(4 81)" fill="none"/>
    <path id="빼기_3" data-name="빼기 3" d="M63.8,26.676a2.065,2.065,0,0,1-1.434-.514,1.876,1.876,0,0,1-.568-1.461V8.008a2,2,0,0,1,.528-1.474,1.891,1.891,0,0,1,1.394-.528,1.859,1.859,0,0,1,1.177.392,1.884,1.884,0,0,1,.663,1.1,4.809,4.809,0,0,1,1.962-1.407,5.8,5.8,0,0,1,1.989-.406,7.623,7.623,0,0,1,2.6.46,6.343,6.343,0,0,1,2.273,1.434,7.177,7.177,0,0,1,1.61,2.476,9.487,9.487,0,0,1,.609,3.558,8.6,8.6,0,0,1-.568,3.206,7.092,7.092,0,0,1-1.556,2.408,7,7,0,0,1-2.3,1.528,7.3,7.3,0,0,1-2.8.541,7.161,7.161,0,0,1-1.813-.257,4.235,4.235,0,0,1-1.759-.96V24.7a1.813,1.813,0,0,1-.609,1.461A2.106,2.106,0,0,1,63.8,26.676Zm5.222-17.64a3.064,3.064,0,0,0-1.272.257,3.21,3.21,0,0,0-.987.69A3.071,3.071,0,0,0,66.11,11a3.409,3.409,0,0,0-.23,1.258v2.137a4.3,4.3,0,0,0,.2,1.312,3.782,3.782,0,0,0,.582,1.136,2.9,2.9,0,0,0,.92.8,2.5,2.5,0,0,0,1.217.3,3.637,3.637,0,0,0,1.61-.338,3.3,3.3,0,0,0,1.15-.92,3.811,3.811,0,0,0,.677-1.394,6.854,6.854,0,0,0,.216-1.759,5.421,5.421,0,0,0-.893-3.3A3,3,0,0,0,69.019,9.036ZM35.741,21.383c-.078,0-.151,0-.217-.009a4.556,4.556,0,0,1-2.015-.446,3.658,3.658,0,0,1-1.285-1.1,4.132,4.132,0,0,1-.676-1.542,8.363,8.363,0,0,1-.189-1.786v-7.2H30.6a1.719,1.719,0,0,1-1.244-.446,1.572,1.572,0,0,1-.46-1.177,1.583,1.583,0,0,1,.46-1.163A1.691,1.691,0,0,1,30.6,6.06h.785V4.329a1.921,1.921,0,0,1,.568-1.475,2.035,2.035,0,0,1,1.434-.528,2.074,2.074,0,0,1,1.393.528,1.855,1.855,0,0,1,.609,1.475V6.06H37.2a1.681,1.681,0,0,1,1.258.46,1.608,1.608,0,0,1,.446,1.163A1.6,1.6,0,0,1,38.46,8.86a1.709,1.709,0,0,1-1.258.446H35.389v7.2a3.452,3.452,0,0,0,.162,1.136c.108.305.408.46.893.46h.338a2.562,2.562,0,0,0,.365-.027c.106,0,.252,0,.446-.013l.064,0a1.619,1.619,0,0,1,.531.1,1.293,1.293,0,0,1,.555.393,1.521,1.521,0,0,1,.3.852,1.427,1.427,0,0,1-.135.865,1.615,1.615,0,0,1-.487.528,2.186,2.186,0,0,1-.622.3,3.4,3.4,0,0,1-.568.122c-.324.054-.642.1-.947.135A4.73,4.73,0,0,1,35.741,21.383Zm-13.582-.036A9.02,9.02,0,0,1,19.3,20.9a6.319,6.319,0,0,1-3.95-3.734,8.992,8.992,0,0,1-.581-3.4,10.359,10.359,0,0,1,.473-3.192,7.415,7.415,0,0,1,1.38-2.53,6.467,6.467,0,0,1,2.2-1.677,6.9,6.9,0,0,1,2.949-.609,7.267,7.267,0,0,1,2.813.5,5.792,5.792,0,0,1,2,1.367,6.243,6.243,0,0,1,1.272,2.083,11.031,11.031,0,0,1,.622,2.625,2.608,2.608,0,0,1-.406,2.042,3.059,3.059,0,0,1-2.326.663H18.8a3.225,3.225,0,0,0,1.164,2.381,4.019,4.019,0,0,0,2.408.7,7.666,7.666,0,0,0,3.139-.812c.122-.052.285-.119.5-.2a2.032,2.032,0,0,1,.663-.135h.049a1.382,1.382,0,0,1,.641.163,1.311,1.311,0,0,1,.555.69,1.657,1.657,0,0,1,.135.933,1.486,1.486,0,0,1-.325.677,2.439,2.439,0,0,1-.541.473c-.192.122-.356.222-.487.3a8.922,8.922,0,0,1-2.232.879A10.151,10.151,0,0,1,22.159,21.347ZM21.78,8.982a2.648,2.648,0,0,0-2.11.92,3.053,3.053,0,0,0-.541.893,4.908,4.908,0,0,0-.27.974h5.655a4.976,4.976,0,0,0-.284-.933,3.631,3.631,0,0,0-.528-.907,2.774,2.774,0,0,0-.8-.676A2.233,2.233,0,0,0,21.78,8.982ZM57.223,21.049a2.067,2.067,0,0,1-1.434-.514,1.877,1.877,0,0,1-.568-1.461V8.062a1.921,1.921,0,0,1,.568-1.475,2.035,2.035,0,0,1,1.434-.528,2.076,2.076,0,0,1,1.393.528,1.856,1.856,0,0,1,.609,1.475V19.074a1.815,1.815,0,0,1-.609,1.461A2.108,2.108,0,0,1,57.223,21.049Zm-11.066,0a2.05,2.05,0,0,1-1.447-.541,1.94,1.94,0,0,1-.582-1.488V3.95H40.448A1.868,1.868,0,0,1,39.1,3.476a1.647,1.647,0,0,1-.487-1.231A1.727,1.727,0,0,1,39.1.974,1.836,1.836,0,0,1,40.448.487H52.082a1.836,1.836,0,0,1,1.353.487,1.727,1.727,0,0,1,.487,1.271,1.647,1.647,0,0,1-.487,1.231,1.868,1.868,0,0,1-1.353.473H48.213V19.02a1.876,1.876,0,0,1-.623,1.488A2.129,2.129,0,0,1,46.157,21.049Zm-44.1,0A2.1,2.1,0,0,1,.6,20.508,1.918,1.918,0,0,1,0,19.02V3.49A3.138,3.138,0,0,1,.731,1.258,3.132,3.132,0,0,1,3.085.487H7.062a7.043,7.043,0,0,1,5.153,1.691,6.639,6.639,0,0,1,1.691,4.884,6.684,6.684,0,0,1-1.7,4.856,6.916,6.916,0,0,1-5.14,1.745H4.086V19.02a1.9,1.9,0,0,1-.609,1.488A2.079,2.079,0,0,1,2.057,21.049ZM6.883,6.3c-1.392,0-2.786,1.581-3.1,2.994a1.66,1.66,0,0,0,.175,1.4,3.667,3.667,0,0,0,2.591.893c.4.036.724.053,1.01.053A2.328,2.328,0,0,0,9.3,11.129a1.7,1.7,0,0,0,.393-1.3C9.642,8.3,8.473,6.436,7.042,6.308,6.99,6.3,6.936,6.3,6.883,6.3Zm3.783-.986A1.5,1.5,0,0,0,9.291,7.2a1.151,1.151,0,0,0,.565.7,1.136,1.136,0,0,0,.535.13,1.5,1.5,0,0,0,1.375-1.89,1.136,1.136,0,0,0-1.1-.827Zm-7.648-.67a1.13,1.13,0,0,0-.433.085A1.339,1.339,0,0,0,1.954,6.5a1.4,1.4,0,0,0,1.251.9,1.127,1.127,0,0,0,.433-.086,1.339,1.339,0,0,0,.631-1.77A1.4,1.4,0,0,0,3.018,4.645ZM8.861,2.417A1.569,1.569,0,0,0,7.435,3.724a1.724,1.724,0,0,0,.2,1.3,1.213,1.213,0,0,0,.763.548,1.146,1.146,0,0,0,.241.026,1.571,1.571,0,0,0,1.426-1.307,1.725,1.725,0,0,0-.2-1.3A1.213,1.213,0,0,0,9.1,2.443a1.147,1.147,0,0,0-.241-.026Zm-3.521-.3a1.153,1.153,0,0,0-.173.013A1.553,1.553,0,0,0,4.023,3.923a1.474,1.474,0,0,0,1.35,1.4,1.128,1.128,0,0,0,.173-.013A1.553,1.553,0,0,0,6.69,3.515,1.474,1.474,0,0,0,5.34,2.117Zm51.91,3a2.618,2.618,0,0,1-1-.19,2.474,2.474,0,0,1-.811-.541,2.662,2.662,0,0,1-.555-.812,2.471,2.471,0,0,1-.2-1,2.5,2.5,0,0,1,.2-.987,2.616,2.616,0,0,1,.555-.825A2.657,2.657,0,0,1,56.248.2a2.572,2.572,0,0,1,2,0,2.651,2.651,0,0,1,.812.555,2.442,2.442,0,0,1,.541.825,2.644,2.644,0,0,1,.189.987A2.5,2.5,0,0,1,57.25,5.113Z" transform="translate(5.134 81.564)" fill="#4783f5"/>
  </g>
</svg>
