<svg xmlns="http://www.w3.org/2000/svg" width="220" height="180" viewBox="0 0 220 180">
  <g id="character" transform="translate(-70 -483)">
    <rect id="area" width="220" height="180" transform="translate(70 483)" fill="none"/>
    <g id="시바" transform="translate(74.145 496.547)">
      <path id="패스_20236" data-name="패스 20236" d="M15.734,1.478c11.99,10.261,9.912,48.451,5.8,70.447-2.718,14.539-10.87,13.5-15.055,4.686C3.12,69.537,1.026,59.228.486,48.549a142.961,142.961,0,0,1,.3-26.937C2.6,6.424,9.337-4,15.734,1.478Z" transform="matrix(0.052, -0.999, 0.999, 0.052, 8.639, 156.605)" fill="#3c72db"/>
      <g id="그룹_53664" data-name="그룹 53664" transform="translate(19.803 69.33)">
        <g id="그룹_53663" data-name="그룹 53663" transform="translate(0 0)">
          <g id="그룹_53662" data-name="그룹 53662" transform="translate(0 0)">
            <path id="패스_20185" data-name="패스 20185" d="M1236.076,1082.872c1.019,10.239,3.243,20.107,5.367,30.388a10.823,10.823,0,0,0,1.9,4.917c2.524,3,8.189,2.114,11.607,1.563a6.074,6.074,0,0,0,2.02-.6c3.074-1.718,3.864-6.679,4.8-9.727,1.173-3.8,3.526-5.407,7.587-5.137,4.2.279,5.282,9.958,6.9,12.918a5.762,5.762,0,0,0,1.122,1.593,4.89,4.89,0,0,0,1.925.943,15.987,15.987,0,0,0,7.459.359,7.6,7.6,0,0,0,2.469-.85c4.121-2.443,3.96-8.684,4.638-12.764.912-5.484,2.085-10.921,3.281-16.348a80.781,80.781,0,0,0,.563-31.891c-.657-3.576-1.6-7.21-3.764-10.134-3.384-4.58-7.557-4.223-12.593-4.512-6.287-.361-12.632-.017-18.852-1.193-5.917-1.119-16.022-1.567-20.927,2.469-7.143,5.879-6.039,18.129-6.077,26.459A111.083,111.083,0,0,0,1236.076,1082.872Z" transform="translate(-1235.465 -1041.623)" fill="#f8c176"/>
          </g>
        </g>
      </g>
      <g id="그룹_53665" data-name="그룹 53665" transform="translate(31.458 83.473)">
        <path id="패스_20187" data-name="패스 20187" d="M1344.085,1191.674c1.067,4.377,2.755,10.064,6.526,12.882a14.649,14.649,0,0,0,6.9,2.4c5.528.748,12.173.214,16.222-4.121,2.154-2.306,2.974-5.53,3.555-8.631a91.25,91.25,0,0,0,1.476-20.558,3.931,3.931,0,0,0-.627-2.365,3.843,3.843,0,0,0-2.682-1.062c-7.446-.785-15,.526-22.437-.371-3.986-.482-12.161-3.177-12.656,3.06C1339.9,1178.711,1342.717,1186.061,1344.085,1191.674Z" transform="translate(-1340.31 -1168.859)" fill="#ffebd1"/>
      </g>
      <g id="그룹_53691" data-name="그룹 53691" transform="translate(3.599 0)">
        <g id="그룹_53684" data-name="그룹 53684" transform="translate(0 0)">
          <g id="그룹_53683" data-name="그룹 53683">
            <g id="그룹_53669" data-name="그룹 53669">
              <g id="그룹_53666" data-name="그룹 53666">
                <path id="패스_20188" data-name="패스 20188" d="M1145.257,505.63a85.916,85.916,0,0,1-18.522-2.027c-6.453-1.427-15.857-3.986-22.994-9.7a29.139,29.139,0,0,1-3.809-3.88c-.486-.563-.988-1.145-1.505-1.7-1.215-1.31-2.256-2.535-3.184-3.745-4.088-5.33-5.89-10.314-5.511-15.238a31.893,31.893,0,0,1,3.909-12.237c1.145-2.191,2.44-4.325,3.692-6.389.876-1.443,1.781-2.936,2.62-4.423a2.091,2.091,0,0,0,.255-.563,9.089,9.089,0,0,0-.524-2.858,17.833,17.833,0,0,1-.446-1.812,34.971,34.971,0,0,1-.462-6.465,34.428,34.428,0,0,1,2.462-12.151,7.465,7.465,0,0,1,2.605-3.67,5.27,5.27,0,0,1,2.921-.858c2.154,0,4.566,1.161,7.373,3.55a48.15,48.15,0,0,1,6.6,7.4l.406.524a18.572,18.572,0,0,1,3.788-1.228,48.667,48.667,0,0,1,11.213-1.257,61.562,61.562,0,0,1,7.984.54,62.386,62.386,0,0,1,9.592,1.911,38.773,38.773,0,0,1,4.846,1.772,9.049,9.049,0,0,1,1.128.653,4.714,4.714,0,0,0,1.578.787h.019a3.285,3.285,0,0,0,1.078-.726l.052-.044c2.464-2.107,4.527-3.762,6.494-5.206a21.3,21.3,0,0,1,6.945-3.733,6.58,6.58,0,0,1,7.293,2.978,10.289,10.289,0,0,1,.9,5.135,71.97,71.97,0,0,1-.99,11.213c-.321,1.883-.724,3.74-1.2,5.52-.079.3-.148.618-.221.957a15.548,15.548,0,0,1-.381,1.526,5.141,5.141,0,0,1-.51,1.043,2.727,2.727,0,0,0-.33.672,2.04,2.04,0,0,0,.2.741,138.886,138.886,0,0,1,5.624,17.725,23.305,23.305,0,0,1,.544,5.025c.016.492.033,1,.061,1.516.174,3.249-1.672,6.4-3.415,9.1-.4.616-.818,1.231-1.249,1.829a43.812,43.812,0,0,1-14.28,12.637,42.388,42.388,0,0,1-4.846,2.285c-.491.194-.986.432-1.51.684a15.578,15.578,0,0,1-2.861,1.147c-3.953,1.006-8.184,1.025-12.276,1.044l-.7,0Z" transform="translate(-1089.682 -417.908)" fill="#f8c176"/>
              </g>
            </g>
            <g id="그룹_53670" data-name="그룹 53670" transform="translate(6.042 49.697)">
              <path id="패스_20190" data-name="패스 20190" d="M1230.622,880.951a8.722,8.722,0,0,1-1.011,3.623,42.6,42.6,0,0,1-13.915,12.314,41.1,41.1,0,0,1-4.718,2.225,37.488,37.488,0,0,1-4.236,1.787c-4.048,1.031-8.561.991-12.711,1.013a84.737,84.737,0,0,1-18.74-2c-11.931-2.639-24.6-7.515-30.427-18.976-1.393-2.739-.906-5.676.6-8.294,1.264-2.2,3.79-3.345,6.243-4a26.9,26.9,0,0,1,9.979-.71c2.868.332,6.141,2.055,9.018,1.734a7.117,7.117,0,0,0,2.662-1.14,27.17,27.17,0,0,1,16.66-3.338,28.856,28.856,0,0,1,8.6,2.536c2.481,1.125,4.819,2.919,7.586,3.166a30.99,30.99,0,0,0,6.125-.4,33.216,33.216,0,0,1,13.916,1.11,7.5,7.5,0,0,1,3.533,2.063,6.515,6.515,0,0,1,1.071,5.091C1230.786,879.342,1230.723,880.128,1230.622,880.951Z" transform="translate(-1144.039 -865)" fill="#ffebd1"/>
            </g>
            <g id="그룹_53673" data-name="그룹 53673" transform="translate(35.794 33.17)">
              <g id="그룹_53671" data-name="그룹 53671" transform="translate(22.838 1.565)">
                <path id="패스_20191" data-name="패스 20191" d="M1621.288,731.609a1.554,1.554,0,0,0-1.5-1.176,1.763,1.763,0,0,0-.477-.034,2.669,2.669,0,0,0-1.661.825,1.592,1.592,0,0,0-.489,1.044,1.564,1.564,0,0,0,.134.692,1.527,1.527,0,0,0,.633.978,1.962,1.962,0,0,0,2.3-.309,2.638,2.638,0,0,0,.61-.629A1.6,1.6,0,0,0,1621.288,731.609Z" transform="translate(-1617.161 -730.395)" fill="#ffebd1"/>
              </g>
              <g id="그룹_53672" data-name="그룹 53672">
                <path id="패스_20192" data-name="패스 20192" d="M1413.542,716.325a1.76,1.76,0,0,0-1.116.244,1.287,1.287,0,0,0-.574,1.7,3.946,3.946,0,0,0,1,1.111,2.3,2.3,0,0,0,.866.625,1.572,1.572,0,0,0,.528.106l.024.01a1.28,1.28,0,0,0,1.619-.776,1.418,1.418,0,0,0,.06-.359c.006-.027.011-.054.015-.081A2.336,2.336,0,0,0,1413.542,716.325Z" transform="translate(-1411.701 -716.313)" fill="#ffebd1"/>
              </g>
            </g>
            <g id="그룹_53675" data-name="그룹 53675" transform="translate(72.722 47.702)">
              <g id="그룹_53674" data-name="그룹 53674">
                <path id="패스_20193" data-name="패스 20193" d="M1764.509,853.543q-.089-.318-.2-.628a8.746,8.746,0,0,0-4.473-4.7,12.526,12.526,0,0,0-10.067-.217,9.552,9.552,0,0,0-5.161,4.534c-1.738,3.675,0,8.4,3.253,10.714,4.244,3.01,13.153,3.242,16.034-2.082a9.508,9.508,0,0,0,.98-4.337A11.321,11.321,0,0,0,1764.509,853.543Z" transform="translate(-1743.918 -847.052)" fill="#fc928b"/>
              </g>
            </g>
            <g id="그룹_53677" data-name="그룹 53677" transform="translate(4.155 42.428)">
              <g id="그룹_53676" data-name="그룹 53676">
                <path id="패스_20194" data-name="패스 20194" d="M1147.651,806.094q-.089-.318-.2-.628a8.745,8.745,0,0,0-4.473-4.7,12.527,12.527,0,0,0-10.067-.217,9.553,9.553,0,0,0-5.161,4.534c-1.738,3.675,0,8.4,3.253,10.714,4.244,3.01,13.153,3.242,16.034-2.082a9.507,9.507,0,0,0,.98-4.337A11.328,11.328,0,0,0,1147.651,806.094Z" transform="translate(-1127.06 -799.603)" fill="#fc928b"/>
              </g>
            </g>
            <g id="그룹_53678" data-name="그룹 53678" transform="translate(78.053 11.378)">
              <path id="패스_20195" data-name="패스 20195" d="M1798.587,520.765c.956-.5,2.282-.8,3,.007a2.546,2.546,0,0,1,.492,1.456,25.572,25.572,0,0,1-1.757,11.074,2.42,2.42,0,0,1-1.107,1.551c-.809.347-1.7-.242-2.355-.825-1.493-1.318-5.72-4.691-4.873-6.917C1792.913,524.668,1796.355,521.934,1798.587,520.765Z" transform="translate(-1791.874 -520.272)" fill="#6d2620"/>
            </g>
            <g id="그룹_53679" data-name="그룹 53679" transform="translate(14.633 6.481)">
              <path id="패스_20196" data-name="패스 20196" d="M1222.691,476.909a2.153,2.153,0,0,1,1.578-.7c1.486.014,3.071,1.778,3.888,2.849a24.891,24.891,0,0,1,2.792,4.626,5.251,5.251,0,0,1,.593,3.8,4.876,4.876,0,0,1-1.758,2.153c-1.729,1.343-6.547,4.541-7.751,1.182-1.254-3.5-.556-8.567-.01-12.15a4.016,4.016,0,0,1,.4-1.391A2.02,2.02,0,0,1,1222.691,476.909Z" transform="translate(-1221.328 -476.213)" fill="#6d2620"/>
            </g>
            <g id="그룹_53682" data-name="그룹 53682" transform="translate(34.094 39.828)">
              <g id="그룹_53680" data-name="그룹 53680">
                <path id="패스_20197" data-name="패스 20197" d="M1401.611,777.038a2.958,2.958,0,0,0-2.784-.728,3.18,3.18,0,0,0-2.292,2.169,3.719,3.719,0,0,0,.624,3.232,3.22,3.22,0,0,0,3.259,1.1l-.08.005a2.818,2.818,0,0,0,.873-.228,2.719,2.719,0,0,0,.931-.715,3.428,3.428,0,0,0,.8-1.878A3.323,3.323,0,0,0,1401.611,777.038Z" transform="translate(-1396.407 -776.212)" fill="#2f1711"/>
              </g>
              <g id="그룹_53681" data-name="그룹 53681" transform="translate(24.097 1.67)">
                <path id="패스_20198" data-name="패스 20198" d="M1618.4,792.059a2.959,2.959,0,0,0-2.785-.728,3.181,3.181,0,0,0-2.292,2.169,3.719,3.719,0,0,0,.624,3.232,3.22,3.22,0,0,0,3.259,1.1l-.08.005a2.813,2.813,0,0,0,.873-.228,2.719,2.719,0,0,0,.931-.715,3.428,3.428,0,0,0,.8-1.879A3.323,3.323,0,0,0,1618.4,792.059Z" transform="translate(-1613.192 -791.234)" fill="#2f1711"/>
              </g>
            </g>
          </g>
        </g>
        <g id="그룹_53690" data-name="그룹 53690" transform="translate(39.342 48.045)">
          <g id="그룹_53688" data-name="그룹 53688">
            <g id="그룹_53687" data-name="그룹 53687">
              <g id="그룹_53685" data-name="그룹 53685" transform="translate(4.892 9.036)">
                <path id="패스_20199" data-name="패스 20199" d="M1493.348,932.345c-.511-.23-1.026-.646-1.566-.919a4.658,4.658,0,0,0-.09,1.445.912.912,0,0,1-.859.98,1.012,1.012,0,0,1-.151,0,.939.939,0,0,1-.883-.826,6.314,6.314,0,0,1,.042-1.556,8.027,8.027,0,0,1-1.158.607,5.184,5.184,0,0,1-1.056.236.856.856,0,0,1,.014.153,3.185,3.185,0,0,0,1.646,2.713,3.485,3.485,0,0,0,3.278-.02,3.146,3.146,0,0,0,1.569-2.523A6.278,6.278,0,0,1,1493.348,932.345Z" transform="translate(-1487.627 -931.426)" fill="none"/>
              </g>
              <g id="그룹_53686" data-name="그룹 53686">
                <path id="패스_20200" data-name="패스 20200" d="M1458.936,858.028c-.556,1.22-2.727,1.065-3.762.673-.873-.331-1.579-.917-2.41-1.227q.067-1.284.134-2.567a5.079,5.079,0,0,0,1.419-.721,7.3,7.3,0,0,0,1.843-1.733c.693-.977.289-1.552-.566-1.885a15.173,15.173,0,0,0-5.1-.382,2.2,2.2,0,0,0-1.4.431,1.377,1.377,0,0,0-.314,1.35,3.791,3.791,0,0,0,.708,1.275,4.517,4.517,0,0,0,1.89,1.639q-.063,1.211-.126,2.421c-1.13.179-1.925,1.055-3.1,1.146a3.553,3.553,0,0,1-3.052-1.252c-.68-.843-1.973.236-1.3,1.075a5.017,5.017,0,0,0,2.848,1.691.868.868,0,0,0-.033.231,4.981,4.981,0,0,0,2.609,4.3,5.448,5.448,0,0,0,5.2-.031,4.921,4.921,0,0,0,2.476-3.844,4,4,0,0,0,3.663-2.039C1461.007,857.61,1459.375,857.066,1458.936,858.028Zm-5.491,4.875a3.484,3.484,0,0,1-3.278.02,3.184,3.184,0,0,1-1.646-2.713.855.855,0,0,0-.014-.153,5.182,5.182,0,0,0,1.056-.236,8.053,8.053,0,0,0,1.159-.607,6.3,6.3,0,0,0-.042,1.556.939.939,0,0,0,.883.826,1,1,0,0,0,.151,0,.912.912,0,0,0,.859-.98,4.666,4.666,0,0,1,.09-1.445c.54.273,1.054.689,1.566.919a6.252,6.252,0,0,0,.786.29A3.146,3.146,0,0,1,1453.445,862.9Z" transform="translate(-1443.615 -850.134)" fill="#2f1711"/>
              </g>
            </g>
          </g>
          <g id="그룹_53689" data-name="그룹 53689" transform="translate(4.892 9.037)">
            <path id="패스_20201" data-name="패스 20201" d="M1494.136,932.64a3.144,3.144,0,0,1-1.57,2.523,3.485,3.485,0,0,1-3.278.019,3.187,3.187,0,0,1-1.646-2.713.9.9,0,0,0-.013-.153,5.161,5.161,0,0,0,1.055-.235,8.042,8.042,0,0,0,1.159-.607,6.334,6.334,0,0,0-.043,1.556.962.962,0,0,0,1.034.824.912.912,0,0,0,.86-.98,4.606,4.606,0,0,1,.09-1.443c.54.272,1.054.688,1.566.918A6.352,6.352,0,0,0,1494.136,932.64Z" transform="translate(-1487.629 -931.431)" fill="#fc928b"/>
          </g>
        </g>
      </g>
      <g id="그룹_53697" data-name="그룹 53697" transform="translate(0 66.965)">
        <g id="그룹_53692" data-name="그룹 53692" transform="translate(0 0)">
          <path id="패스_20202" data-name="패스 20202" d="M1080.764,1037.028q-3.926-3.214-7.539-6.787c-3.4-3.359-7.978-8.792-13.232-5.718-6.251,3.657-.034,12.815,2.969,16.933,4.223,5.789,9.322,11.109,15.662,14.448" transform="translate(-1057.307 -1023.25)" fill="#f8c176"/>
        </g>
        <g id="그룹_53693" data-name="그룹 53693" transform="translate(1.444 4.785)">
          <path id="패스_20204" data-name="패스 20204" d="M1071.088,1065.54a.941.941,0,0,0,1.211-.466,1.284,1.284,0,0,0-.235-1.149C1070.987,1062.338,1069.279,1064.771,1071.088,1065.54Z" transform="translate(-1070.296 -1063.399)" fill="#2f1711"/>
        </g>
        <g id="그룹_53694" data-name="그룹 53694" transform="translate(3.112 2.574)">
          <path id="패스_20205" data-name="패스 20205" d="M1086.1,1045.644a.941.941,0,0,0,1.211-.466,1.285,1.285,0,0,0-.235-1.149C1085.995,1042.442,1084.287,1044.876,1086.1,1045.644Z" transform="translate(-1085.304 -1043.503)" fill="#2f1711"/>
        </g>
        <g id="그룹_53695" data-name="그룹 53695" transform="translate(6.262 1.989)">
          <path id="패스_20206" data-name="패스 20206" d="M1114.434,1040.382a.941.941,0,0,0,1.211-.466,1.285,1.285,0,0,0-.235-1.149C1114.333,1037.18,1112.625,1039.613,1114.434,1040.382Z" transform="translate(-1113.641 -1038.241)" fill="#2f1711"/>
        </g>
        <g id="그룹_53696" data-name="그룹 53696" transform="translate(4.52 5.005)">
          <path id="패스_20207" data-name="패스 20207" d="M1098.846,1066.191a2.731,2.731,0,0,0-.7,1.306,5.381,5.381,0,0,0,.343,3.647,4.177,4.177,0,0,0,2.828,2.247,4.408,4.408,0,0,0,4.271-1.767,4.682,4.682,0,0,0,.44-2.231,2.57,2.57,0,0,0-.107-.815,6.1,6.1,0,0,0-3.186-2.895A3.728,3.728,0,0,0,1098.846,1066.191Z" transform="translate(-1097.973 -1065.375)" fill="#2f1711"/>
        </g>
      </g>
      <g id="그룹_53703" data-name="그룹 53703" transform="translate(80.126 70.633)">
        <g id="그룹_53698" data-name="그룹 53698" transform="translate(0 0)">
          <path id="패스_20208" data-name="패스 20208" d="M1778.986,1070.032q3.926-3.214,7.54-6.787c3.4-3.359,7.978-8.792,13.231-5.718,6.251,3.657.034,12.815-2.969,16.933-4.223,5.789-9.322,11.109-15.662,14.448" transform="translate(-1778.893 -1056.255)" fill="#f8c176"/>
          <g id="그룹_53728" data-name="그룹 53728">
            <path id="패스_20202-2" data-name="패스 20202" d="M1057.307,1037.028q3.926-3.214,7.539-6.787c3.4-3.359,7.978-8.792,13.232-5.718,6.251,3.657.034,12.815-2.97,16.933-4.223,5.789-9.322,11.109-15.662,14.448" transform="translate(-1057.307 -1023.25)" fill="#f8c176"/>
          </g>
        </g>
        <g id="그룹_53699" data-name="그룹 53699" transform="translate(20.044 4.786)">
          <path id="패스_20210" data-name="패스 20210" d="M1959.748,1098.544a.941.941,0,0,1-1.211-.466,1.285,1.285,0,0,1,.235-1.149C1959.849,1095.342,1961.557,1097.775,1959.748,1098.544Z" transform="translate(-1958.478 -1096.402)" fill="#2f1711"/>
        </g>
        <g id="그룹_53700" data-name="그룹 53700" transform="translate(18.376 2.574)">
          <path id="패스_20211" data-name="패스 20211" d="M1944.74,1078.649a.941.941,0,0,1-1.211-.466,1.284,1.284,0,0,1,.235-1.149C1944.841,1075.446,1946.549,1077.88,1944.74,1078.649Z" transform="translate(-1943.471 -1076.507)" fill="#2f1711"/>
        </g>
        <g id="그룹_53701" data-name="그룹 53701" transform="translate(15.226 1.989)">
          <path id="패스_20212" data-name="패스 20212" d="M1916.4,1073.386a.941.941,0,0,1-1.211-.466,1.285,1.285,0,0,1,.235-1.149C1916.5,1070.184,1918.212,1072.617,1916.4,1073.386Z" transform="translate(-1915.133 -1071.245)" fill="#2f1711"/>
        </g>
        <g id="그룹_53702" data-name="그룹 53702" transform="translate(10.98 5.005)">
          <path id="패스_20213" data-name="패스 20213" d="M1884.107,1099.2a2.729,2.729,0,0,1,.7,1.305,5.38,5.38,0,0,1-.343,3.647,4.176,4.176,0,0,1-2.828,2.247,4.408,4.408,0,0,1-4.271-1.767,4.684,4.684,0,0,1-.44-2.231,2.588,2.588,0,0,1,.107-.815,6.1,6.1,0,0,1,3.187-2.895A3.728,3.728,0,0,1,1884.107,1099.2Z" transform="translate(-1876.929 -1098.379)" fill="#2f1711"/>
        </g>
      </g>
      <g id="그룹_53722" data-name="그룹 53722" transform="translate(22.135 79.034)">
        <g id="그룹_53720" data-name="그룹 53720" transform="translate(0.757 0.757)">
          <g id="그룹_53704" data-name="그룹 53704">
            <path id="패스_20214" data-name="패스 20214" d="M1308.51,1171.536a63.232,63.232,0,0,0,10.223-7.432q2.394-2.13,4.6-4.514c.888-.958,2.124-3.24,3.243-3.8a41.872,41.872,0,0,1-19.176,3.97,111.582,111.582,0,0,1-19.427-2.406c-5.449-1.023-10.949-2.121-16-4.62a39.39,39.39,0,0,0,7.785,9.739,113.3,113.3,0,0,0,9.635,7.25c3.275,2.286,6.761,4.645,10.625,4.685C1302.993,1174.441,1305.85,1173.084,1308.51,1171.536Z" transform="translate(-1271.007 -1151.767)" fill="#9bc87f"/>
            <path id="패스_20215" data-name="패스 20215" d="M1292.365,1167.624h-.109c-4.274-.044-8.1-2.714-11.17-4.86l-.027-.019a114.285,114.285,0,0,1-9.689-7.294,40.344,40.344,0,0,1-7.974-9.961.97.97,0,0,1,1.255-1.379c4.753,2.352,9.944,3.446,15.748,4.536a110.85,110.85,0,0,0,19.258,2.389,40.876,40.876,0,0,0,18.734-3.869h0a.97.97,0,0,1,.864,1.737h0a8.479,8.479,0,0,0-1.848,2.136,15.3,15.3,0,0,1-1.113,1.451c-1.485,1.6-3.055,3.143-4.669,4.58a64.307,64.307,0,0,1-10.381,7.546C1298.682,1166.107,1295.63,1167.624,1292.365,1167.624Zm-25.6-20.468a32.712,32.712,0,0,0,5.876,6.83,112.849,112.849,0,0,0,9.527,7.168l.027.019c3,2.1,6.405,4.472,10.08,4.51h.088c2.806,0,5.566-1.385,7.9-2.743h0a62.374,62.374,0,0,0,10.066-7.319c1.568-1.4,3.094-2.892,4.536-4.449a7.709,7.709,0,0,0,.5-.62,45.421,45.421,0,0,1-15.728,2.423,112.472,112.472,0,0,1-19.6-2.423A74.43,74.43,0,0,1,1266.766,1147.156Z" transform="translate(-1263.25 -1144.01)" fill="#9bc87f"/>
          </g>
          <g id="그룹_53705" data-name="그룹 53705" transform="translate(29.514 14.28)">
            <path id="패스_20216" data-name="패스 20216" d="M1534.308,1279.1a.334.334,0,0,1-.065-.006.339.339,0,0,1-.269-.4,7.354,7.354,0,0,0,.1-2.529,3.335,3.335,0,0,0-2.726-3.012,1.823,1.823,0,0,0-1.736,1.034,1.694,1.694,0,0,0,.392,2.011,1.387,1.387,0,0,0,.605.2,1.35,1.35,0,0,0,1.168-.358,1.159,1.159,0,0,0,.229-.968.8.8,0,0,0-.4-.6.361.361,0,0,0-.292.006.528.528,0,0,0-.289.314.339.339,0,1,1-.644-.215,1.2,1.2,0,0,1,.667-.723,1.036,1.036,0,0,1,.849,0,1.469,1.469,0,0,1,.777,1.088,1.813,1.813,0,0,1-.4,1.559,2.019,2.019,0,0,1-1.745.569,2.058,2.058,0,0,1-.9-.31,2.351,2.351,0,0,1-.631-2.868,2.512,2.512,0,0,1,2.387-1.421c1.855.1,3.094,1.883,3.359,3.586a8.011,8.011,0,0,1-.105,2.761A.34.34,0,0,1,1534.308,1279.1Z" transform="translate(-1528.769 -1272.476)" fill="#fff"/>
          </g>
          <g id="그룹_53706" data-name="그룹 53706" transform="translate(43.484 7.16)">
            <path id="패스_20217" data-name="패스 20217" d="M1656.445,1214.034a1.734,1.734,0,0,1-.637-.124,2.148,2.148,0,0,1-1.178-1.2,3.13,3.13,0,0,1,.459-2.926,3.565,3.565,0,0,1,4.622-.879,6.372,6.372,0,0,1,1.888,1.759.34.34,0,0,1-.542.408,5.713,5.713,0,0,0-1.682-1.578,2.893,2.893,0,0,0-3.743.7,2.465,2.465,0,0,0-.37,2.267,1.459,1.459,0,0,0,.8.814.949.949,0,0,0,.764-.006,1.638,1.638,0,0,0,.529-.44,1.911,1.911,0,0,0,.5-1.348.976.976,0,0,0-.525-.773.59.59,0,0,0-.594.022.687.687,0,0,0-.172.811.339.339,0,0,1-.6.326,1.348,1.348,0,0,1,.395-1.705,1.255,1.255,0,0,1,1.263-.065,1.655,1.655,0,0,1,.9,1.326,2.591,2.591,0,0,1-.653,1.842,2.3,2.3,0,0,1-.758.616A1.553,1.553,0,0,1,1656.445,1214.034Z" transform="translate(-1654.448 -1208.42)" fill="#fff"/>
          </g>
          <g id="그룹_53707" data-name="그룹 53707" transform="translate(26.844 8.126)">
            <path id="패스_20218" data-name="패스 20218" d="M1510.285,1223.74a.334.334,0,0,1-.065-.006.34.34,0,0,1-.269-.4,7.344,7.344,0,0,0,.1-2.529,3.335,3.335,0,0,0-2.726-3.012,1.823,1.823,0,0,0-1.736,1.034,1.694,1.694,0,0,0,.392,2.011,1.388,1.388,0,0,0,.605.2,1.35,1.35,0,0,0,1.168-.358,1.158,1.158,0,0,0,.229-.968.8.8,0,0,0-.4-.6.362.362,0,0,0-.292.007.528.528,0,0,0-.289.314.339.339,0,0,1-.644-.215,1.2,1.2,0,0,1,.667-.724,1.035,1.035,0,0,1,.848,0,1.469,1.469,0,0,1,.777,1.088,1.812,1.812,0,0,1-.4,1.558,2.018,2.018,0,0,1-1.746.57,2.056,2.056,0,0,1-.9-.311,2.351,2.351,0,0,1-.631-2.868,2.514,2.514,0,0,1,2.387-1.421c1.855.1,3.094,1.883,3.358,3.586a8.005,8.005,0,0,1-.105,2.761A.339.339,0,0,1,1510.285,1223.74Z" transform="translate(-1504.745 -1217.114)" fill="#fff"/>
          </g>
          <g id="그룹_53708" data-name="그룹 53708" transform="translate(20.552 13.453)">
            <path id="패스_20219" data-name="패스 20219" d="M1453.679,1271.661a.325.325,0,0,1-.065-.006.339.339,0,0,1-.269-.4,7.349,7.349,0,0,0,.1-2.529,3.335,3.335,0,0,0-2.726-3.012,1.826,1.826,0,0,0-1.735,1.034,1.694,1.694,0,0,0,.392,2.011,1.382,1.382,0,0,0,.605.2,1.348,1.348,0,0,0,1.168-.358,1.157,1.157,0,0,0,.229-.968.8.8,0,0,0-.4-.6.361.361,0,0,0-.291.007.528.528,0,0,0-.289.314.34.34,0,0,1-.644-.215,1.2,1.2,0,0,1,.667-.723,1.037,1.037,0,0,1,.849,0,1.469,1.469,0,0,1,.777,1.088,1.812,1.812,0,0,1-.4,1.558,2.017,2.017,0,0,1-1.745.57,2.052,2.052,0,0,1-.9-.311,2.35,2.35,0,0,1-.631-2.868,2.513,2.513,0,0,1,2.387-1.421c1.855.1,3.094,1.883,3.359,3.585a8,8,0,0,1-.105,2.762A.339.339,0,0,1,1453.679,1271.661Z" transform="translate(-1448.14 -1265.035)" fill="#fff"/>
          </g>
          <g id="그룹_53709" data-name="그룹 53709" transform="translate(13.403 8.896)">
            <path id="패스_20220" data-name="패스 20220" d="M1385.756,1229.34a1.692,1.692,0,0,1-.942-.3,2.288,2.288,0,0,1-.942-1.462,3.048,3.048,0,0,1,1-2.761,3.51,3.51,0,0,1,4.675.254,6.9,6.9,0,0,1,1.5,2.174.34.34,0,0,1-.615.288,6.239,6.239,0,0,0-1.348-1.965,2.847,2.847,0,0,0-3.769-.238,2.382,2.382,0,0,0-.78,2.125,1.6,1.6,0,0,0,.653,1.022.957.957,0,0,0,.726.168,1.486,1.486,0,0,0,.588-.3,1.791,1.791,0,0,0,.729-1.189,1.064,1.064,0,0,0-.39-.916.582.582,0,0,0-.568-.116.652.652,0,0,0-.3.743.339.339,0,1,1-.648.2,1.309,1.309,0,0,1,.721-1.583,1.255,1.255,0,0,1,1.218.219,1.742,1.742,0,0,1,.648,1.521,2.469,2.469,0,0,1-.99,1.656,2.156,2.156,0,0,1-.864.424A1.492,1.492,0,0,1,1385.756,1229.34Z" transform="translate(-1383.83 -1224.041)" fill="#fff"/>
          </g>
          <g id="그룹_53710" data-name="그룹 53710" transform="translate(6.48 2.888)">
            <path id="패스_20221" data-name="패스 20221" d="M1323.474,1175.295a1.69,1.69,0,0,1-.942-.3,2.286,2.286,0,0,1-.942-1.462,3.048,3.048,0,0,1,1-2.761,3.51,3.51,0,0,1,4.675.254,6.892,6.892,0,0,1,1.5,2.174.339.339,0,1,1-.615.288,6.24,6.24,0,0,0-1.348-1.965,2.847,2.847,0,0,0-3.769-.238,2.382,2.382,0,0,0-.78,2.125,1.6,1.6,0,0,0,.653,1.022.958.958,0,0,0,.726.169,1.485,1.485,0,0,0,.588-.3,1.79,1.79,0,0,0,.729-1.189,1.062,1.062,0,0,0-.39-.915.582.582,0,0,0-.567-.116.653.653,0,0,0-.3.744.34.34,0,1,1-.648.2,1.309,1.309,0,0,1,.721-1.583,1.254,1.254,0,0,1,1.218.219,1.742,1.742,0,0,1,.648,1.521,2.469,2.469,0,0,1-.99,1.656,2.151,2.151,0,0,1-.864.424A1.481,1.481,0,0,1,1323.474,1175.295Z" transform="translate(-1321.547 -1169.995)" fill="#fff"/>
          </g>
          <g id="그룹_53711" data-name="그룹 53711" transform="translate(25.397 16.753)">
            <path id="패스_20222" data-name="패스 20222" d="M1492.065,1300.059h0a.34.34,0,0,1-.337-.342,4.922,4.922,0,0,1,1.631-3.873,5.083,5.083,0,0,1,2.824-1.117.339.339,0,0,1,.069.675,4.419,4.419,0,0,0-2.455.961,4.212,4.212,0,0,0-1.39,3.359A.339.339,0,0,1,1492.065,1300.059Z" transform="translate(-1491.726 -1294.724)" fill="#fff"/>
          </g>
          <g id="그룹_53712" data-name="그룹 53712" transform="translate(38.909 8.22)">
            <path id="패스_20223" data-name="패스 20223" d="M1614.319,1220.218a4.206,4.206,0,0,1-.748-.067.34.34,0,1,1,.121-.668,3.988,3.988,0,0,0,3.685-1.4.34.34,0,0,1,.515.443A4.762,4.762,0,0,1,1614.319,1220.218Z" transform="translate(-1613.292 -1217.961)" fill="#fff"/>
          </g>
          <g id="그룹_53713" data-name="그룹 53713" transform="translate(39.807 11.99)">
            <path id="패스_20224" data-name="패스 20224" d="M1624.409,1255.654a.34.34,0,0,1-.325-.241,4.523,4.523,0,0,0-2.507-2.882.34.34,0,0,1,.253-.63,5.145,5.145,0,0,1,2.9,3.315.34.34,0,0,1-.325.438Z" transform="translate(-1621.364 -1251.877)" fill="#fff"/>
          </g>
          <g id="그룹_53714" data-name="그룹 53714" transform="translate(23.13 9.025)">
            <path id="패스_20225" data-name="패스 20225" d="M1474.12,1227.865a3.15,3.15,0,0,1-2.035-.75,1.856,1.856,0,0,1-.736-1.624.339.339,0,1,1,.672.094,1.261,1.261,0,0,0,.5,1.011,2.441,2.441,0,0,0,2.682.331.339.339,0,1,1,.307.606A3.078,3.078,0,0,1,1474.12,1227.865Z" transform="translate(-1471.336 -1225.198)" fill="#fff"/>
          </g>
          <g id="그룹_53715" data-name="그룹 53715" transform="translate(19.274 6.092)">
            <path id="패스_20226" data-name="패스 20226" d="M1439.333,1206.989a.338.338,0,0,1-.2-.066,6.534,6.534,0,0,1-1.785-1.884,4.748,4.748,0,0,1,.152-5.2,2.4,2.4,0,0,1,2.585-.926,2.215,2.215,0,0,1,1.356,2.542,2.65,2.65,0,0,1-.428.913,2.134,2.134,0,0,1-1.578,1,1.431,1.431,0,0,1-1.188-.624,1.662,1.662,0,0,1-.244-1.546,1.193,1.193,0,0,1,.683-.7,1.037,1.037,0,0,1,.85.029.34.34,0,1,1-.309.6.36.36,0,0,0-.292,0,.52.52,0,0,0-.293.3.984.984,0,0,0,.153.913.754.754,0,0,0,.612.347,1.479,1.479,0,0,0,1.051-.717,1.98,1.98,0,0,0,.322-.677,1.555,1.555,0,0,0-.912-1.743,1.723,1.723,0,0,0-1.834.7,4.087,4.087,0,0,0-.1,4.428,5.865,5.865,0,0,0,1.6,1.688.34.34,0,0,1-.2.613Z" transform="translate(-1436.647 -1198.814)" fill="#fff"/>
          </g>
          <g id="그룹_53716" data-name="그룹 53716" transform="translate(33.735 9.325)">
            <path id="패스_20227" data-name="패스 20227" d="M1567.1,1234.282a.34.34,0,0,1-.339-.32,8.306,8.306,0,0,1,.268-2.854c.5-1.711,2.018-3.359,3.936-3.2a2.619,2.619,0,0,1,2.25,1.8,2.416,2.416,0,0,1-1.036,2.847,2.28,2.28,0,0,1-2.67-.644,1.877,1.877,0,0,1-.193-1.658,1.5,1.5,0,0,1,.94-.993,1.064,1.064,0,0,1,.86.115,1.243,1.243,0,0,1,.583.832.34.34,0,0,1-.667.129.571.571,0,0,0-.264-.377.39.39,0,0,0-.309-.05.835.835,0,0,0-.5.562,1.222,1.222,0,0,0,.1,1.049,1.428,1.428,0,0,0,1.167.545,1.451,1.451,0,0,0,.656-.122,1.762,1.762,0,0,0,.683-2.027,1.933,1.933,0,0,0-1.66-1.327,3.441,3.441,0,0,0-3.228,2.712,7.641,7.641,0,0,0-.241,2.622.34.34,0,0,1-.319.359Z" transform="translate(-1566.741 -1227.901)" fill="#fff"/>
          </g>
          <g id="그룹_53717" data-name="그룹 53717" transform="translate(17.114 14.774)">
            <path id="패스_20228" data-name="패스 20228" d="M1417.553,1279.621a.34.34,0,0,1-.263-.554,5.887,5.887,0,0,1,3.7-2.144.34.34,0,0,1,.091.673,5.2,5.2,0,0,0-3.265,1.9A.34.34,0,0,1,1417.553,1279.621Z" transform="translate(-1417.214 -1276.919)" fill="#fff"/>
          </g>
          <g id="그룹_53718" data-name="그룹 53718" transform="translate(13.075 3.884)">
            <path id="패스_20229" data-name="패스 20229" d="M1382.861,1184.918a.34.34,0,0,1-.214-.076,4.657,4.657,0,0,1-1.183-1.68,6.647,6.647,0,0,1-.5-3.916.34.34,0,0,1,.673.089,6.016,6.016,0,0,0,.443,3.541,4.042,4.042,0,0,0,1,1.439.34.34,0,0,1-.215.6Z" transform="translate(-1380.876 -1178.951)" fill="#fff"/>
          </g>
          <g id="그룹_53719" data-name="그룹 53719" transform="translate(8.305 9.091)">
            <path id="패스_20230" data-name="패스 20230" d="M1343.7,1227.436a.337.337,0,0,1-.173-.047,6.5,6.5,0,0,0-5.127-.659.34.34,0,1,1-.191-.652,7.181,7.181,0,0,1,5.664.726.339.339,0,0,1-.173.631Z" transform="translate(-1337.964 -1225.795)" fill="#fff"/>
          </g>
        </g>
      </g>
    </g>
    <g id="화이트테리어" transform="translate(179.596 496.547)">
      <path id="패스_20237" data-name="패스 20237" d="M15.734,1.478c11.99,10.261,9.912,48.451,5.8,70.447-2.718,14.539-10.87,13.5-15.055,4.686C3.12,69.537,1.026,59.228.486,48.549a142.961,142.961,0,0,1,.3-26.937C2.6,6.424,9.337-4,15.734,1.478Z" transform="matrix(0.052, -0.999, 0.999, 0.052, 13.404, 156.605)" fill="#3c72db"/>
      <g id="몸통" transform="translate(17.553 77.364)">
        <g id="그룹_53657" data-name="그룹 53657" transform="translate(0 0)">
          <path id="패스_20181" data-name="패스 20181" d="M3079.1,1313.405a5.614,5.614,0,0,0-.265,6.552,1.1,1.1,0,0,1,.222.466c.035.309-.205.572-.409.807-1.226,1.411-1.3,2.9-1.2,4.637.021.345.513,3.395.515,3.393a8.313,8.313,0,0,0,.025,11.814c-2.791,2.2-2,6.754.094,9.623a5,5,0,0,1,.988,1.737,7.137,7.137,0,0,1-.464,2.97,5.653,5.653,0,0,0,3.7,6.32,4.166,4.166,0,0,0,.162,5.5,14.833,14.833,0,0,1,1.565,1.449,7.612,7.612,0,0,1,.911,3.084,8.7,8.7,0,0,0,9.262,6.589c3.507-.442,8.136-4.2,7.569-8.068a151.413,151.413,0,0,0,21.777.524c.731,5.045,6.549,8.519,11.469,7.183s8.162-6.8,7.437-11.85c4.994-.151,6.542-4.923,4.887-9.093a5.808,5.808,0,0,1-.5-1.55,4.448,4.448,0,0,1,.446-2.006c.976-2.487,1.822-5.594.052-7.595a1.452,1.452,0,0,1-.465-.745,1.3,1.3,0,0,1,.449-.9c2.576-2.974,2.305-6.555-.07-9.478a5.424,5.424,0,0,0,2.173-5.176,8.284,8.284,0,0,0-4.028-5.134,4.36,4.36,0,0,0,1.385-5.854l-.087-8.69-66.866-3.374Z" transform="translate(-3075.517 -1306.533)" fill="#fff"/>
        </g>
        <g id="그룹_53658" data-name="그룹 53658" transform="translate(3.831 16.199)">
          <path id="패스_20182" data-name="패스 20182" d="M3116.817,1417.461a4.793,4.793,0,0,1,.465,6.828,11.427,11.427,0,0,1,2.708,2.91,3.876,3.876,0,0,1,.184,3.809,10.116,10.116,0,0,1,2.938,5.667,6.708,6.708,0,0,1-2.069,5.883,5.054,5.054,0,0,1-6.013.467c-.572-.4-1.041-.939-1.617-1.336a18.809,18.809,0,0,0-3.541-1.417,7.6,7.6,0,0,1-4.419-5.376,6.4,6.4,0,0,0-.59-2.13,6.875,6.875,0,0,0-1.17-1.223,6.465,6.465,0,0,1-1.936-4.876" transform="translate(-3101.75 -1416.461)" fill="#fff" stroke="#222" stroke-linecap="round" stroke-linejoin="round" stroke-width="2"/>
        </g>
      </g>
      <g id="왼쪽귀" transform="translate(0 4.09) rotate(-8)">
        <path id="패스_19550" data-name="패스 19550" d="M2.391,1.855C5.967-.065,10.249-.046,14.321.021c11.1.182,5.722,17.855-.906,20.34C6.534,22.941-5.018,5.832,2.391,1.855Z" transform="matrix(0.799, 0.602, -0.602, 0.799, 12.412, 0)" fill="#fff"/>
        <path id="패스_19552" data-name="패스 19552" d="M1.681.932C4.2-.033,7.207-.023,10.071.01c7.8.092,4.024,8.967-.637,10.215C4.6,11.521-3.529,2.929,1.681.932Z" transform="matrix(0.799, 0.602, -0.602, 0.799, 12.508, 6.367)" fill="#ffb1b1"/>
      </g>
      <g id="오른쪽귀" transform="translate(78.6 0)">
        <path id="패스_19551" data-name="패스 19551" d="M2.154,16.409c3.223,1.679,7.08,1.662,10.75,1.6,10-.159,5.157-15.609-.816-17.782C5.888-2.025-4.521,12.932,2.154,16.409Z" transform="matrix(-0.799, 0.602, -0.602, -0.799, 25.757, 14.4)" fill="#fff"/>
        <path id="패스_19553" data-name="패스 19553" d="M1.323,7.948a17.143,17.143,0,0,0,6.6.777c6.142-.077,3.168-7.561-.5-8.613C3.617-.981-2.778,6.264,1.323,7.948Z" transform="matrix(-0.799, 0.602, -0.602, -0.799, 18.126, 12.891)" fill="#ffb1b1"/>
      </g>
      <g id="얼굴" transform="translate(5.133 2.334)">
        <path id="패스_19532" data-name="패스 19532" d="M365.271,379.615a7.791,7.791,0,0,0,10.818,3.537,8.386,8.386,0,0,1,1.421-1.487c.16-.172.324-.34.5-.5a1.9,1.9,0,0,1,1.086-.521,8.174,8.174,0,0,1,11.164,3.865,3.6,3.6,0,0,0,4.611-2.811,1.666,1.666,0,0,1,2.433-.99,6.28,6.28,0,0,0,10.013-3.385,1.68,1.68,0,0,1,2.434-.99,4.69,4.69,0,0,0,6.723-5.131,1.74,1.74,0,0,1,1.7-2.071,1.659,1.659,0,0,1,1.343.064c1.354.643,2.926-.417,3.585-1.583.923-1.633-.043-3.692.926-1.956,4.221-.9,4.109-6.38,4.221-6.618.48-1.023,2.335-.584,4.487-2.931,2.99-2.906,2.484-5.109,2.614-5.852a8.549,8.549,0,0,0-1.834-6.914,4.7,4.7,0,0,1-.781-1.942c-.231-.829.519-2.012.761-2.8a11.819,11.819,0,0,0,.432-2.207,12.892,12.892,0,0,0-4.747-11.365A11.905,11.905,0,0,0,416.637,309.6c-.64-5.753-6.908-9.152-12.388-6.763a8.752,8.752,0,0,0-9.839-4.264,9.172,9.172,0,0,0-2.078.8c-.431.224-1.474,1.2-1.888,1.128-.451-.078-1.153-1.12-1.5-1.4a8.927,8.927,0,0,0-2.053-1.272,8.972,8.972,0,0,0-10.356,2.068,10.031,10.031,0,0,0-2.152-1.653,9.434,9.434,0,0,0-7.073-.589,13.277,13.277,0,0,0-5.428,3.423,17.662,17.662,0,0,0-1.858,2.426c-.22.335-.455.67-.656,1.017a1.091,1.091,0,0,1-.247.285,11.923,11.923,0,0,1-2.319-.074,9.687,9.687,0,0,0-2.916.531,7.938,7.938,0,0,0-4.173,3.4,10.5,10.5,0,0,0-1.205,5.552c.005.742.123,1.236-.5,1.723-.842.663-2.166.775-3.135,1.2-4.862,2.12-4.047,7.017-2.672,11.117a8.453,8.453,0,0,0-3.672,12.264,7.786,7.786,0,0,0,.942,11.748,8.27,8.27,0,0,0,3.051,11.76,6.6,6.6,0,0,0,6.292,10.2,6.174,6.174,0,0,0,2.16,4.913,5.7,5.7,0,0,0,1.44.864,6.209,6.209,0,0,0,3.372.378,6.626,6.626,0,0,0,1.948-.629,8.458,8.458,0,0,0,.838.977,8.146,8.146,0,0,0,4.43-1.7A1.66,1.66,0,0,1,365.271,379.615Zm26.523-31.468a3.189,3.189,0,0,1,1.036-2.007,1.675,1.675,0,0,1,2.6.335c.711,1.573,1.07,4.3-1,5.039a2.052,2.052,0,0,1-2.582-1.44A4.28,4.28,0,0,1,391.794,348.147Zm-15.829,9.513,3.438-1.941c.281-.158.569-.342.867-.509l.2-2.821c-.021-.036-.04-.068-.048-.085-.043-.046-.11-.12-.12-.132a5,5,0,0,1-.608-.79,2.679,2.679,0,0,1-.288-2.045,2.49,2.49,0,0,1,1.432-1.556,3.924,3.924,0,0,1,1-.254h0a2.744,2.744,0,0,1,.747-.086h0l.126-.014a1.214,1.214,0,0,1,.726.141h0q.134.038.266.086a2.732,2.732,0,0,1,1.952,3.258,3.332,3.332,0,0,1-1.917,2.11l-.19,2.667.2.2c.9.916,1.744,1.889,2.614,2.832,1.445,1.565-.893,3.913-2.343,2.343l-1.743-1.888-.736-.8c-1.195.822-2.659,1.44-3.9,2.142C375.777,361.571,374.109,358.708,375.965,357.66Zm-5.708-12.176a1.832,1.832,0,0,1,3.016,0,4.737,4.737,0,0,1,.6,2.679c-.114,1.206-.763,2.463-2.146,2.463s-1.988-1.3-2.07-2.477A5.156,5.156,0,0,1,370.257,345.484Z" transform="translate(-336.286 -297)" fill="#fff"/>
        <path id="패스_20184" data-name="패스 20184" d="M16.414,86.418s3.455,6.377,11.536.418h0s4.967,10.495,16.5,3.685c0,0,10.575,8.652,16.263-1.442,0,0,9.613,4.326,12.417-4.086,0,0,9.566,5.5,9.887-5.311" transform="translate(-1.711 -5.582)" fill="none" stroke="#222" stroke-linecap="round" stroke-width="2"/>
        <path id="패스_19536" data-name="패스 19536" d="M433.313,438.684c1.383,0,2.032-1.257,2.146-2.463a4.737,4.737,0,0,0-.6-2.679,1.832,1.832,0,0,0-3.016,0,5.155,5.155,0,0,0-.6,2.668C431.325,437.389,431.936,438.684,433.313,438.684Z" transform="translate(-397.877 -385.056)" fill="#050505"/>
        <path id="패스_19537" data-name="패스 19537" d="M496.767,441.392c2.072-.734,1.713-3.465,1-5.039a1.675,1.675,0,0,0-2.6-.335,3.189,3.189,0,0,0-1.036,2.007,4.28,4.28,0,0,0,.053,1.927A2.052,2.052,0,0,0,496.767,441.392Z" transform="translate(-438.624 -386.879)" fill="#050505"/>
        <path id="패스_19544" data-name="패스 19544" d="M2.719,8.666c2.072-1.09,1.713-5.145,1-7.481a1.406,1.406,0,0,0-2.6-.5A5.763,5.763,0,0,0,.084,3.667,9.365,9.365,0,0,0,.137,6.528C.449,8.141,1.614,9.248,2.719,8.666Z" transform="matrix(-0.174, -0.985, 0.985, -0.174, 67.229, 59.46)" fill="#ffb1b1"/>
        <path id="패스_19545" data-name="패스 19545" d="M2.719.157c2.072,1.09,1.713,5.145,1,7.481a1.406,1.406,0,0,1-2.6.5A5.763,5.763,0,0,1,.084,5.156,9.367,9.367,0,0,1,.137,2.3C.449.682,1.614-.425,2.719.157Z" transform="matrix(0.174, -0.985, 0.985, 0.174, 17.572, 57.842)" fill="#ffb1b1"/>
        <g id="목걸이" transform="translate(38.21 80.79)">
          <path id="패스_19541" data-name="패스 19541" d="M460.81,537.29a8.174,8.174,0,0,0-11.164-3.865,1.9,1.9,0,0,0-1.086.521c-.173.16-.337.328-.5.5a8.381,8.381,0,0,0-1.421,1.487,8.052,8.052,0,0,0-1.316,2.664,7.648,7.648,0,0,0-.247,1.381,6.862,6.862,0,0,0,2.36,5.951q.23.189.469.354l.011.011c3.744,3.421,9.652,2.019,12.325-2.01a7.173,7.173,0,0,0,1.209-3.554A7.3,7.3,0,0,0,460.81,537.29Zm-5.354,4.929a11.018,11.018,0,0,1-6.779.011c-2.026-.649-1.154-3.847.881-3.195a7.894,7.894,0,0,0,5.018-.011C456.611,538.365,457.476,541.565,455.456,542.22Z" transform="translate(-445.05 -532.526)" fill="#ffc53a"/>
          <path id="패스_19542" data-name="패스 19542" d="M459.146,550.86a7.894,7.894,0,0,1-5.018.011c-2.035-.652-2.907,2.546-.881,3.195a11.019,11.019,0,0,0,6.779-.011C462.046,553.4,461.182,550.2,459.146,550.86Z" transform="translate(-449.62 -544.361)" fill="#050505"/>
        </g>
        <g id="그룹_53605" data-name="그룹 53605" transform="matrix(0.951, 0.309, -0.309, 0.951, 41.78, 48.809)">
          <rect id="사각형_29519" data-name="사각형 29519" width="13.829" height="16.486" fill="#fff"/>
          <g id="그룹_53606" data-name="그룹 53606" transform="translate(0.154 3.275)">
            <g id="그룹_53476" data-name="그룹 53476" transform="translate(4.995 0)">
              <path id="패스_20074" data-name="패스 20074" d="M2.5,7.9a1.032,1.032,0,0,1-1-.78L.031,1.284a1.032,1.032,0,0,1,2-.5L3.507,6.617A1.032,1.032,0,0,1,2.759,7.87,1.051,1.051,0,0,1,2.5,7.9Z" fill="#050505" stroke="#050505" stroke-width="0.2"/>
            </g>
            <g id="그룹_53478" data-name="그룹 53478" transform="translate(0 4.428)">
              <g id="그룹_53477" data-name="그룹 53477">
                <path id="패스_20075" data-name="패스 20075" d="M3.546,6.172A5.357,5.357,0,0,1,.433,5.165a1.032,1.032,0,1,1,1.2-1.68,3.243,3.243,0,0,0,2.689.525,3.2,3.2,0,0,0,2.1-1.735c.031-.063.068-.128.106-.192a1.062,1.062,0,0,1,.715-.631,1.042,1.042,0,0,1,.924.2,2.2,2.2,0,0,1,.216.135,3.205,3.205,0,0,0,2.667.531A3.257,3.257,0,0,0,13.161.576a1.032,1.032,0,0,1,1.853.911,5.321,5.321,0,0,1-3.465,2.83,5.255,5.255,0,0,1-3.688-.438A5.258,5.258,0,0,1,4.826,6.013,5.216,5.216,0,0,1,3.546,6.172Z" fill="#050505" stroke="#050505" stroke-width="0.2"/>
              </g>
            </g>
          </g>
          <g id="그룹_53607" data-name="그룹 53607" transform="translate(2.985 1.743)">
            <path id="패스_20076" data-name="패스 20076" d="M5.375,3.858l-.94.641a2.11,2.11,0,0,1-1.41.356L1.893,4.737A2.111,2.111,0,0,1,.065,3.152h0A2.112,2.112,0,0,1,1.6.588L3.668.065A2.112,2.112,0,0,1,6.233,1.6h0A2.111,2.111,0,0,1,5.375,3.858Z" fill="#050505"/>
          </g>
        </g>
      </g>
      <g id="오른손" transform="translate(75.614 70.587)">
        <path id="패스_20183" data-name="패스 20183" d="M3473.107,1312.378a4.794,4.794,0,0,1,6.29-2.7,11.423,11.423,0,0,1,1.852-3.517,3.876,3.876,0,0,1,3.534-1.432,10.12,10.12,0,0,1,4.377-4.646,6.71,6.71,0,0,1,6.236.009,5.053,5.053,0,0,1,2.428,5.521c-.191.673-.543,1.292-.726,1.968a18.766,18.766,0,0,0-.167,3.81,7.6,7.6,0,0,1-3.614,5.948,6.384,6.384,0,0,0-1.815,1.26,6.853,6.853,0,0,0-.767,1.509,6.467,6.467,0,0,1-3.963,3.439" transform="translate(-3473.107 -1299.323)" fill="#fff" stroke="#222" stroke-linecap="round" stroke-linejoin="round" stroke-width="2"/>
        <g id="그룹_53724" data-name="그룹 53724" transform="translate(20.14 7.885)">
          <path id="패스_20210-2" data-name="패스 20210" d="M1959.795,1098.623a.976.976,0,0,1-1.256-.483,1.333,1.333,0,0,1,.244-1.191C1959.9,1095.3,1961.67,1097.826,1959.795,1098.623Z" transform="translate(-1958.479 -1096.403)" fill="#ffb1b1"/>
        </g>
        <g id="그룹_53725" data-name="그룹 53725" transform="translate(18.411 5.592)">
          <path id="패스_20211-2" data-name="패스 20211" d="M1944.787,1078.727a.975.975,0,0,1-1.256-.483,1.332,1.332,0,0,1,.244-1.191C1944.891,1075.407,1946.662,1077.93,1944.787,1078.727Z" transform="translate(-1943.471 -1076.507)" fill="#ffb1b1"/>
        </g>
        <g id="그룹_53726" data-name="그룹 53726" transform="translate(15.145 4.986)">
          <path id="패스_20212-2" data-name="패스 20212" d="M1916.449,1073.465a.976.976,0,0,1-1.256-.483,1.333,1.333,0,0,1,.244-1.191C1916.554,1070.145,1918.325,1072.668,1916.449,1073.465Z" transform="translate(-1915.133 -1071.245)" fill="#ffb1b1"/>
        </g>
        <g id="그룹_53727" data-name="그룹 53727" transform="translate(10.742 8.113)">
          <path id="패스_20213-2" data-name="패스 20213" d="M1884.37,1099.226a2.829,2.829,0,0,1,.731,1.353,5.578,5.578,0,0,1-.356,3.781,4.33,4.33,0,0,1-2.931,2.329c-1.449.292-3.712-.47-4.428-1.832a4.855,4.855,0,0,1-.456-2.313,2.676,2.676,0,0,1,.111-.845,6.323,6.323,0,0,1,3.3-3A3.865,3.865,0,0,1,1884.37,1099.226Z" transform="translate(-1876.93 -1098.379)" fill="#ffb1b1"/>
        </g>
      </g>
    </g>
  </g>
</svg>
