<svg width="44" height="44" viewBox="0 0 44 44" fill="none" xmlns="http://www.w3.org/2000/svg">
<rect width="44" height="44" fill="white"/>
<path d="M22.3699 30.4346C26.8242 30.4346 30.4351 26.8237 30.4351 22.3694C30.4351 17.9151 26.8242 14.3042 22.3699 14.3042C17.9156 14.3042 14.3047 17.9151 14.3047 22.3694C14.3047 26.8237 17.9156 30.4346 22.3699 30.4346Z" stroke="#5E6D7B" stroke-width="2"/>
<path d="M22.3698 24.6736C23.6424 24.6736 24.6741 23.6419 24.6741 22.3693C24.6741 21.0966 23.6424 20.0649 22.3698 20.0649C21.0971 20.0649 20.0654 21.0966 20.0654 22.3693C20.0654 23.6419 21.0971 24.6736 22.3698 24.6736Z" fill="#5E6D7B"/>
<path d="M22.3696 16.0326V12M28.7065 22.3696H32.7391M22.3696 32.7391V28.7065M12 22.3696H16.0326" stroke="#5E6D7B" stroke-linecap="round"/>
</svg>
