<svg xmlns="http://www.w3.org/2000/svg" width="154" height="215" viewBox="0 0 154 215">
  <g id="img_blank" transform="translate(-20 -434)">
    <rect id="사각형_29620" data-name="사각형 29620" width="154" height="215" rx="20" transform="translate(20 434)" fill="#b4bbc2"/>
    <path id="패스_20466" data-name="패스 20466" d="M-15-12.727h-1.9V-3.41h-.123l-6.451-9.316h-1.793V0h1.934V-9.3h.105L-16.778,0H-15ZM-9.417.193c2.689,0,4.447-1.969,4.447-4.922,0-2.971-1.758-4.939-4.447-4.939-2.707,0-4.474,1.969-4.465,4.939C-13.89-1.775-12.124.193-9.417.193ZM-12-4.729c0-1.828.835-3.384,2.584-3.393,1.723.009,2.549,1.564,2.549,3.393s-.826,3.357-2.549,3.357C-11.166-1.371-12-2.909-12-4.729ZM-.529,0H1.352V-9.545H-.529ZM-.775-12.129a1.157,1.157,0,0,0,1.2,1.107A1.142,1.142,0,0,0,1.6-12.129,1.147,1.147,0,0,0,.42-13.236,1.163,1.163,0,0,0-.775-12.129ZM2.737,0H4.618V-5.889A2.024,2.024,0,0,1,6.569-8.051a1.638,1.638,0,0,1,1.74,1.723V0h1.863V-6.082a1.813,1.813,0,0,1,1.9-1.969,1.657,1.657,0,0,1,1.793,1.828V0h1.881V-6.4c-.009-2.188-1.23-3.27-2.953-3.27A2.958,2.958,0,0,0,9.926-7.98H9.821A2.555,2.555,0,0,0,7.254-9.668a2.616,2.616,0,0,0-2.6,1.688H4.547V-9.545H2.737ZM21.12,3.779c2.461,0,4.315-1.116,4.307-3.568V-9.545H23.6V-8h-.123A2.938,2.938,0,0,0,20.7-9.668c-2.294,0-4.008,1.749-4.008,4.8s1.74,4.729,3.99,4.729a2.878,2.878,0,0,0,2.777-1.6h.123V.141c-.009,1.485-.949,2.136-2.443,2.127C19.9,2.276,19.055,1.837,18.87.932H16.954C17.121,2.716,18.712,3.779,21.12,3.779ZM18.606-4.834c-.009-1.828.835-3.243,2.5-3.234,1.617-.009,2.5,1.3,2.5,3.234,0,1.969-.9,3.138-2.5,3.146C19.459-1.7,18.6-2.962,18.606-4.834Z" transform="translate(97 559)" fill="#91979e"/>
    <g id="icon_sole" transform="translate(-81 -229)">
      <rect id="area" width="34" height="34" transform="translate(161 733)" fill="none"/>
      <g id="그룹_180" data-name="그룹 180" transform="translate(162.414 735.72)">
        <path id="패스_19849" data-name="패스 19849" d="M2118.812,1176.532c5.612.495,9.958.157,9.768-5.372-.166-4.787-3.876-10.348-8.232-10.732s-9.057,4.436-10.124,9.114C2108.99,1174.946,2113.2,1176.037,2118.812,1176.532Z" transform="translate(-2104.196 -1147.641)" fill="#91979e"/>
        <path id="패스_19850" data-name="패스 19850" d="M2122.812,1043.52c2.286-.344,3.877-2.794,3.552-5.471s-2.443-4.568-4.729-4.224-3.877,2.794-3.552,5.471S2120.525,1043.865,2122.812,1043.52Z" transform="translate(-2111.305 -1033.785)" fill="#91979e"/>
        <path id="패스_19851" data-name="패스 19851" d="M2048.554,1119.553a4.052,4.052,0,0,0-1.961,5.4,4.127,4.127,0,0,0,5.227,2.494,4.052,4.052,0,0,0,1.96-5.4A4.127,4.127,0,0,0,2048.554,1119.553Z" transform="translate(-2046.239 -1111.581)" fill="#91979e"/>
        <path id="패스_19938" data-name="패스 19938" d="M4.864,0c2.7.023,4.912,1.91,4.931,4.215S7.636,8.37,4.931,8.347.019,6.438,0,4.133,2.159-.022,4.864,0Z" transform="matrix(0.215, -0.977, 0.977, 0.215, 16.326, 9.653)" fill="#91979e"/>
        <path id="패스_19939" data-name="패스 19939" d="M4.228,0A4.258,4.258,0,0,1,8.581,3.934,3.936,3.936,0,0,1,4.353,7.725,4.258,4.258,0,0,1,0,3.792,3.936,3.936,0,0,1,4.228,0Z" transform="translate(21.545 15.859) rotate(-61.813)" fill="#91979e"/>
      </g>
    </g>
  </g>
</svg>
