<svg xmlns="http://www.w3.org/2000/svg" width="12" height="12" viewBox="0 0 12 12">
  <g id="marker_pee" transform="translate(-312 -620)">
    <rect id="area" width="12" height="12" transform="translate(312 620)" fill="none"/>
    <path id="빼기_2" data-name="빼기 2" d="M4.5,12A4.6,4.6,0,0,1,.734,10.131a4.107,4.107,0,0,1-.427-.759A3.85,3.85,0,0,1,0,7.87c0-.017,0-.035,0-.053s0-.036,0-.054a8.832,8.832,0,0,1,1.806-4.93A12.409,12.409,0,0,1,4.354.049.238.238,0,0,1,4.5,0a.235.235,0,0,1,.148.052A12.923,12.923,0,0,1,7.2,2.839,8.809,8.809,0,0,1,9,7.87,4.334,4.334,0,0,1,4.5,12ZM2.6,8.1a.175.175,0,0,0-.149.084.2.2,0,0,0-.02.174A2.432,2.432,0,0,0,4.5,9.6,2.432,2.432,0,0,0,6.567,8.354a.2.2,0,0,0-.02-.174A.175.175,0,0,0,6.4,8.1Zm3.282-3a.752.752,0,0,0,0,1.5.752.752,0,0,0,0-1.5Zm-2.769,0a.752.752,0,0,0,0,1.5.752.752,0,0,0,0-1.5Z" transform="translate(313.5 620)" fill="#fff"/>
  </g>
</svg>
