<svg xmlns="http://www.w3.org/2000/svg" width="28" height="28" viewBox="0 0 28 28">
  <g id="icon_daily" transform="translate(-161 -733)">
    <rect id="area" width="28" height="28" transform="translate(161 733)" fill="none"/>
    <g id="그룹_53796" data-name="그룹 53796" transform="translate(-2874.939 -1870.765)">
      <g id="그룹_53795" data-name="그룹 53795" transform="translate(3044.452 2605.765)">
        <rect id="사각형_29614" data-name="사각형 29614" width="5.999" height="12.819" transform="translate(11.14 3.105) rotate(45)" fill="#fff"/>
        <path id="패스_20317" data-name="패스 20317" d="M3159.89,2959.686l1.312-5.375,4.062,4.062Z" transform="translate(-3159.89 -2941.199)" fill="#fff"/>
        <path id="사각형_29615" data-name="사각형 29615" d="M3,0H3A3,3,0,0,1,6,3v.195a0,0,0,0,1,0,0H0a0,0,0,0,1,0,0V3A3,3,0,0,1,3,0Z" transform="translate(14.245 0) rotate(45)" fill="#fff"/>
      </g>
      <path id="패스_20318" data-name="패스 20318" d="M3050.072,2710.844h-7.632a2.5,2.5,0,0,0-2.5,2.5v13.032a2.5,2.5,0,0,0,2.5,2.5h13.032a2.5,2.5,0,0,0,2.5-2.5v-6.3" transform="translate(0 -101.125)" fill="none" stroke="#fff" stroke-linecap="round" stroke-linejoin="round" stroke-width="2"/>
    </g>
  </g>
</svg>
