<svg xmlns="http://www.w3.org/2000/svg" width="70" height="70" viewBox="0 0 70 70">
  <g id="snowy_ver2" transform="translate(-190 -230)">
    <rect id="area" width="70" height="70" transform="translate(190 230)" fill="none"/>
    <g id="그룹_53881" data-name="그룹 53881" transform="translate(-241.372 -130.616)">
      <g id="그룹_53868" data-name="그룹 53868" transform="translate(448.411 391.121)">
        <circle id="타원_1093" data-name="타원 1093" cx="18.459" cy="18.459" r="18.459" transform="translate(0 0)" fill="#fff"/>
      </g>
      <g id="그룹_53869" data-name="그룹 53869" transform="translate(456 374.097)">
        <circle id="타원_1094" data-name="타원 1094" cx="10.87" cy="10.87" r="10.87" transform="translate(0 0)" fill="#fff"/>
      </g>
      <g id="그룹_53870" data-name="그룹 53870" transform="translate(461.398 363.193)">
        <path id="패스_20438" data-name="패스 20438" d="M905.336,378.12l-12.782-1.163.5-11.588a1.981,1.981,0,0,1,1.708-1.877l.886-.123a18.6,18.6,0,0,1,10.443,1.58h0a1.981,1.981,0,0,1,1.113,2.125Z" transform="translate(-892.554 -363.193)"/>
      </g>
      <g id="그룹_53871" data-name="그룹 53871" transform="translate(456.093 373.777)">
        <ellipse id="타원_1095" data-name="타원 1095" cx="2.295" cy="11.512" rx="2.295" ry="11.512" transform="translate(0 4.572) rotate(-84.877)"/>
      </g>
      <g id="그룹_53872" data-name="그룹 53872" transform="translate(468.52 381.176)">
        <circle id="타원_1096" data-name="타원 1096" cx="1.092" cy="1.092" r="1.092" transform="translate(0 0)" fill="#4d4d4d"/>
      </g>
      <g id="그룹_53873" data-name="그룹 53873" transform="translate(461.27 380.426)">
        <circle id="타원_1097" data-name="타원 1097" cx="1.092" cy="1.092" r="1.092" transform="translate(0)" fill="#4d4d4d"/>
      </g>
      <g id="그룹_53875" data-name="그룹 53875" transform="translate(461.541 388.966)">
        <g id="그룹_53874" data-name="그룹 53874" transform="translate(0 0)">
          <path id="패스_20439" data-name="패스 20439" d="M900.109,871.586a8.619,8.619,0,0,1-4.5-1.263.51.51,0,0,1-.153-.729h0a.51.51,0,0,1,.685-.139,7.624,7.624,0,0,0,7.935,0,.51.51,0,0,1,.685.139h0a.51.51,0,0,1-.153.729A8.618,8.618,0,0,1,900.109,871.586Z" transform="translate(-895.363 -869.378)" fill="#c1272d"/>
        </g>
      </g>
      <g id="그룹_53882" data-name="그룹 53882" transform="translate(465.394 399.293)">
        <g id="그룹_53876" data-name="그룹 53876" transform="translate(0 0)">
          <circle id="타원_1098" data-name="타원 1098" cx="1.477" cy="1.477" r="1.477" fill="#c1272d"/>
        </g>
        <g id="그룹_53877" data-name="그룹 53877" transform="translate(0 7.251)">
          <circle id="타원_1099" data-name="타원 1099" cx="1.477" cy="1.477" r="1.477" fill="#c1272d"/>
        </g>
        <g id="그룹_53878" data-name="그룹 53878" transform="translate(0 14.503)">
          <circle id="타원_1100" data-name="타원 1100" cx="1.477" cy="1.477" r="1.477" fill="#c1272d"/>
        </g>
      </g>
      <g id="그룹_53879" data-name="그룹 53879" transform="translate(456.847 383.474)">
        <path id="패스_20440" data-name="패스 20440" d="M811.853,761.547l-8.5,1.485a.231.231,0,0,0,0,.455l8.5,1.485a1.81,1.81,0,0,0,1.981-1.049,1.661,1.661,0,0,0,0-1.328A1.809,1.809,0,0,0,811.853,761.547Z" transform="translate(-803.164 -761.52)" fill="#f15a24"/>
      </g>
      <g id="그룹_53880" data-name="그룹 53880" transform="translate(447.414 393.184)">
        <path id="패스_20441" data-name="패스 20441" d="M806.668,1063.961l0,0-.006,0-.008.009Z" transform="translate(-796.916 -1056.422)" fill="none"/>
        <path id="패스_20442" data-name="패스 20442" d="M828.942,974.047l0-.014v-.008l-.008-.038C828.936,974.007,828.939,974.027,828.942,974.047Z" transform="translate(-818.057 -971.031)" fill="none"/>
        <path id="패스_20443" data-name="패스 20443" d="M829.145,975.2c0-.014,0-.028-.007-.042C829.14,975.172,829.142,975.187,829.145,975.2Z" transform="translate(-818.253 -972.144)" fill="none"/>
        <path id="패스_20444" data-name="패스 20444" d="M806.94,1063.5l.007-.006.007-.006,0-.011-.014.012-.007.012Z" transform="translate(-797.182 -1055.968)" fill="none"/>
        <path id="패스_20445" data-name="패스 20445" d="M731.294,1110.557l-.006,0-.01.041C731.285,1110.586,731.29,1110.571,731.294,1110.557Z" transform="translate(-725.375 -1100.648)" fill="none"/>
        <path id="패스_20446" data-name="패스 20446" d="M807.191,1063.637l.005,0a.09.09,0,0,1,0-.009l0,0Z" transform="translate(-797.423 -1056.106)" fill="none"/>
        <path id="패스_20447" data-name="패스 20447" d="M807.348,1063.28l0,.01,0,0Z" transform="translate(-797.569 -1055.778)" fill="none"/>
        <path id="패스_20448" data-name="패스 20448" d="M807.341,1063.036l0,.009C807.388,1063,807.37,1063.011,807.341,1063.036Z" transform="translate(-797.564 -1055.526)" fill="none"/>
        <path id="패스_20449" data-name="패스 20449" d="M737.486,987.828s-.013.039-.024.067A.157.157,0,0,0,737.486,987.828Z" transform="translate(-731.244 -984.168)" fill="none"/>
        <path id="패스_20450" data-name="패스 20450" d="M806.331,1064.753s0,0,0,0l0-.006Z" transform="translate(-796.607 -1057.173)" fill="none"/>
        <path id="패스_20451" data-name="패스 20451" d="M786.594,967.962a.338.338,0,0,1,.012-.036c0-.007,0-.014,0-.021A.126.126,0,0,0,786.594,967.962Z" transform="translate(-777.875 -965.26)" fill="none"/>
        <path id="패스_20452" data-name="패스 20452" d="M806.751,1064.59l-.007.016s.01-.008.015-.019Z" transform="translate(-796.999 -1057.019)" fill="none"/>
        <path id="패스_20453" data-name="패스 20453" d="M733.038,995.309a.284.284,0,0,0,.029-.041C733.05,995.289,733.035,995.307,733.038,995.309Z" transform="translate(-727.046 -991.229)" fill="none"/>
        <path id="패스_20454" data-name="패스 20454" d="M730.972,1112.581l0,.007,0-.008Z" transform="translate(-725.083 -1102.569)" fill="none"/>
        <path id="패스_20455" data-name="패스 20455" d="M733.832,994.18c.07-.077.035-.041,0,0Z" transform="translate(-727.799 -990.154)" fill="none"/>
        <path id="패스_20456" data-name="패스 20456" d="M818.207,919.906l-.011,0,.006,0Z" transform="translate(-807.867 -919.703)" fill="none"/>
        <path id="패스_20457" data-name="패스 20457" d="M644.963,916.865l0-.008a1.09,1.09,0,0,0-1.343-.7,30.664,30.664,0,0,1-16.86.144,4.838,4.838,0,0,0-.5-.143c-.187-.055-1.374-.2-1.66-.214a2.19,2.19,0,0,0-1.392.422,3.979,3.979,0,0,0-1.385,2.405c-.049.2-.1.4-.155.6-.03.1-.066.193-.1.289l-.008.026c-.024.042-.054.086-.068.11,0,0-.075.12-.118.186l-.01.01-.078.087q-.093.1-.195.192c-.039.035-.079.069-.118.1-.083.072-.04.044.007,0a4.889,4.889,0,0,1-.958.593c-.383.213-.767.424-1.153.631-.215.115-.432.228-.653.333-.1.046-.193.09-.291.133.112-.051-.155.061-.208.08a5.459,5.459,0,0,1-.734.214l-.132.026-.03.007c-.134.008-.266.02-.4.021a1.069,1.069,0,0,0,0,2.138,6.832,6.832,0,0,0,2.874-.773c.768-.367,1.529-.784,2.257-1.225a4.7,4.7,0,0,0,1.887-1.87,6.964,6.964,0,0,0,.457-1.384c.055-.223.11-.447.186-.664h0a7.475,7.475,0,0,0,.466,2.339c.122.389.237.78.358,1.17a7.6,7.6,0,0,1,.256.927c-.018-.08,0,.178,0,.246l0,.008c-.005.015-.013.059-.023.1l-.022.04.014-.012,0-.01,0,.008c.028-.025.047-.036,0,.009l0,.009-.005,0,0-.008-.007.006-.007.006h0l0,0-.012.007.008-.009-.069.02c-.122,0-.242.006-.364,0a5.359,5.359,0,0,0-1.647.026,2.225,2.225,0,0,0-1.528,1.565c-.077.232-.122.473-.2.706-.005.016-.011.033-.018.05h0l-.007,0c0,.014-.01.029-.016.044l.01-.041a1.077,1.077,0,0,0-.37,1.456,1.1,1.1,0,0,0,1.463.384,2.213,2.213,0,0,0,1.051-1.5c.052-.191.1-.381.16-.57l.018-.031.034-.009c.048,0,.1,0,.145,0,.245,0,.489.03.733.049a2.814,2.814,0,0,0,1.753-.341,2.44,2.44,0,0,0,1.049-1.964,6.181,6.181,0,0,0-.423-2.06,22.173,22.173,0,0,1-.628-2.229c0-.011,0-.022-.005-.033s-.005-.029-.007-.042-.006-.04-.01-.06l.008.038c-.009-.1-.014-.2-.014-.3,0-.018,0-.058.005-.1h0a.108.108,0,0,1,.132-.075,32.849,32.849,0,0,0,17.882-.2A1.09,1.09,0,0,0,644.963,916.865Zm-23.622,3.156s.012-.021.029-.041A.275.275,0,0,1,621.341,920.021Zm.04-.054c.035-.041.07-.077,0,0Zm.185-.3c.011-.028.024-.065.024-.067A.16.16,0,0,1,621.566,919.668Zm-.329,6.285h0l0,.008Zm2.831-7.31a.125.125,0,0,1,.012-.056c0,.007,0,.014,0,.02A.329.329,0,0,0,624.068,918.643Zm1,4.878.006,0,0,.006Zm.021.008.007-.017.008,0C625.1,923.52,625.1,923.527,625.094,923.528Z" transform="translate(-615.349 -915.941)" fill="#c1272d"/>
        <path id="패스_20458" data-name="패스 20458" d="M806.829,1063.725l-.013.013h.006Z" transform="translate(-797.067 -1056.2)" fill="#c1272d"/>
        <path id="패스_20459" data-name="패스 20459" d="M829.1,974.758c0,.014,0,.028.007.042.016.087.042.169-.009-.064,0,0,0,.005,0,.008S829.1,974.753,829.1,974.758Z" transform="translate(-818.214 -971.742)" fill="#c1272d"/>
        <path id="패스_20460" data-name="패스 20460" d="M731.48,1109.575l.006,0C731.5,1109.517,731.5,1109.485,731.48,1109.575Z" transform="translate(-725.567 -1099.663)" fill="#c1272d"/>
        <path id="패스_20461" data-name="패스 20461" d="M807.257,1063.452l0-.009,0,0,0,.011Z" transform="translate(-797.482 -1055.933)" fill="#c1272d"/>
      </g>
    </g>
    <path id="Icon_metro-snowflake" data-name="Icon metro-snowflake" d="M21.271,16.358l-1.437-.83a4.23,4.23,0,0,0,.077-.767,4.083,4.083,0,0,0-.079-.769l1.437-.831a1.41,1.41,0,0,0-1.408-2.442l-1.451.838a4.2,4.2,0,0,0-1.319-.765V9.122a1.41,1.41,0,1,0-2.82,0v1.67a4.2,4.2,0,0,0-1.319.765L11.5,10.72a1.409,1.409,0,1,0-1.41,2.441l1.435.829a3.882,3.882,0,0,0,0,1.54l-1.436.829A1.41,1.41,0,1,0,11.5,18.8l1.447-.836a4.219,4.219,0,0,0,1.322.767V20.4a1.41,1.41,0,1,0,2.82,0V18.73a4.169,4.169,0,0,0,1.32-.766l1.45.837a1.41,1.41,0,0,0,1.41-2.442Z" transform="translate(233.619 244.613)" fill="#dfeaee"/>
    <path id="Icon_metro-snowflake-2" data-name="Icon metro-snowflake" d="M21.271,16.358l-1.437-.83a4.23,4.23,0,0,0,.077-.767,4.083,4.083,0,0,0-.079-.769l1.437-.831a1.41,1.41,0,0,0-1.408-2.442l-1.451.838a4.2,4.2,0,0,0-1.319-.765V9.122a1.41,1.41,0,1,0-2.82,0v1.67a4.2,4.2,0,0,0-1.319.765L11.5,10.72a1.409,1.409,0,1,0-1.41,2.441l1.435.829a3.882,3.882,0,0,0,0,1.54l-1.436.829A1.41,1.41,0,1,0,11.5,18.8l1.447-.836a4.219,4.219,0,0,0,1.322.767V20.4a1.41,1.41,0,1,0,2.82,0V18.73a4.169,4.169,0,0,0,1.32-.766l1.45.837a1.41,1.41,0,0,0,1.41-2.442Z" transform="translate(187.912 230.515)" fill="#dfeaee"/>
    <path id="Icon_metro-snowflake-3" data-name="Icon metro-snowflake" d="M16.743,13.064l-.89-.514a2.618,2.618,0,0,0,.048-.475,2.527,2.527,0,0,0-.049-.476l.89-.514a.873.873,0,0,0-.872-1.512l-.9.519a2.6,2.6,0,0,0-.816-.473V8.585a.873.873,0,1,0-1.745,0V9.618a2.6,2.6,0,0,0-.816.473l-.9-.518a.872.872,0,1,0-.873,1.511l.888.513a2.4,2.4,0,0,0,0,.953l-.889.513a.873.873,0,1,0,.873,1.512l.9-.518a2.612,2.612,0,0,0,.818.475v1.033a.873.873,0,1,0,1.745,0V14.533a2.581,2.581,0,0,0,.817-.474l.9.518a.873.873,0,0,0,.873-1.512Z" transform="translate(186.413 276.505)" fill="#dfeaee"/>
  </g>
</svg>
