<svg xmlns="http://www.w3.org/2000/svg" width="20" height="20" viewBox="0 0 20 20">
  <g id="icon_copy" transform="translate(-299 -195)">
    <rect id="area" width="20" height="20" transform="translate(299 195)" fill="none"/>
    <g id="Icon_feather-copy" data-name="Icon feather-copy" transform="translate(298 194)">
      <path id="패스_20294" data-name="패스 20294" d="M15.1,13.5h7.2a1.6,1.6,0,0,1,1.6,1.6v7.2a1.6,1.6,0,0,1-1.6,1.6H15.1a1.6,1.6,0,0,1-1.6-1.6V15.1A1.6,1.6,0,0,1,15.1,13.5Z" transform="translate(-4.9 -4.9)" fill="none" stroke="#333" stroke-linecap="round" stroke-linejoin="round" stroke-width="2"/>
      <path id="패스_20295" data-name="패스 20295" d="M5.4,13.4H4.6A1.6,1.6,0,0,1,3,11.8V4.6A1.6,1.6,0,0,1,4.6,3h7.2a1.6,1.6,0,0,1,1.6,1.6v.8" transform="translate(0 0)" fill="none" stroke="#333" stroke-linecap="round" stroke-linejoin="round" stroke-width="2"/>
    </g>
  </g>
</svg>
