<svg xmlns="http://www.w3.org/2000/svg" width="14" height="14" viewBox="0 0 14 14">
  <g id="icon_dislike_default" transform="translate(-305 -151)">
    <rect id="사각형_29616" data-name="사각형 29616" width="14" height="14" transform="translate(305 151)" fill="none"/>
    <g id="그룹_53798" data-name="그룹 53798" transform="translate(-727.647 -237.823)">
      <path id="패스_20321" data-name="패스 20321" d="M1045.072,389.572h-1.86a1.128,1.128,0,0,0-1.126,1.126v5.5c0,.086-.061.442-.846,1.395-.445.54-.9,1-.9,1a.306.306,0,0,0-.089.2c-.093,1.455-.144,2.273-.152,2.434a.369.369,0,0,1-.109.225.285.285,0,0,1-.207-.012,1.968,1.968,0,0,1-1.07-1.206,4.049,4.049,0,0,1,.06-2.757.306.306,0,0,0-.109-.343.313.313,0,0,0-.188-.059h-4.189a.644.644,0,0,1-.646-.642.632.632,0,0,1,.631-.621h.416a.313.313,0,0,0,.316-.3.306.306,0,0,0-.306-.312.632.632,0,0,1-.631-.621.643.643,0,0,1,.646-.642h.284a.313.313,0,0,0,.316-.3.306.306,0,0,0-.306-.312.632.632,0,0,1-.631-.621.643.643,0,0,1,.646-.642h.343a.313.313,0,0,0,.315-.287.306.306,0,0,0-.283-.324.633.633,0,0,1-.578-.716.641.641,0,0,1,.64-.545h8.1a.306.306,0,0,0,0-.612h-8.089a1.257,1.257,0,0,0-1.264,1.226,1.261,1.261,0,0,1-.438,1.889,1.242,1.242,0,0,1-.309,1.875,1.256,1.256,0,0,1-.426,1.888,1.258,1.258,0,0,0,1.266,1.23h3.778a4.479,4.479,0,0,0,.068,2.765,2.573,2.573,0,0,0,1.442,1.566.817.817,0,0,0,.738-.052.968.968,0,0,0,.388-.681c0-.008,0-.015,0-.023,0-.087.086-1.39.145-2.318.154-.159.5-.528.857-.957a8.216,8.216,0,0,0,.656-.9l.042-.071a1.123,1.123,0,0,0,.8.339h1.86a1.127,1.127,0,0,0,1.126-1.126V390.7A1.127,1.127,0,0,0,1045.072,389.572Zm.514,6.656a.515.515,0,0,1-.514.514h-1.86a.515.515,0,0,1-.514-.514v-.033h0v-4.767h0V390.7a.515.515,0,0,1,.514-.514h1.86a.515.515,0,0,1,.514.514Z" transform="translate(0 0)" fill="#737980" stroke="#737980" stroke-width="0.4"/>
    </g>
  </g>
</svg>
