<svg xmlns="http://www.w3.org/2000/svg" width="70" height="70" viewBox="0 0 70 70">
  <g id="cloudy_night_ver2" transform="translate(-129 -254)">
    <rect id="area" width="70" height="70" transform="translate(129 254)" fill="none"/>
    <g id="그룹_53806" data-name="그룹 53806" transform="translate(-49.137 83.616)">
      <path id="패스_20408" data-name="패스 20408" d="M90.736,439.154c-5.27-8.4-3.6-19.366,3.341-27.189a27.951,27.951,0,0,0-7.25,3.228c-11.762,7.383-15.969,21.852-9.4,32.315s21.429,12.96,33.188,5.579a27.949,27.949,0,0,0,6.059-5.126C106.613,450.811,96.006,447.548,90.736,439.154Z" transform="translate(131.222 -238.581)" fill="#ffe256"/>
      <g id="그룹_53805" data-name="그룹 53805" transform="translate(-8.117 4)">
        <path id="합치기_7" data-name="합치기 7" d="M27.847,33.39H11.785a11.782,11.782,0,1,1,3.04-23.154A15.073,15.073,0,0,1,27.847.059V.011c.1,0,.2-.012.3-.012.208,0,.414,0,.62.013H28.8v0A15.074,15.074,0,0,1,43.1,13.229,10.156,10.156,0,1,1,44.841,33.39Z" transform="translate(186.846 200.054)" fill="#314c7e"/>
      </g>
      <path id="패스_20409" data-name="패스 20409" d="M237.89,417.286,242,415.123l-.787,4.583,3.33,3.244-4.6.668-2.056,4.171-2.06-4.171-4.6-.668,3.332-3.244-.786-4.583Z" transform="translate(-43.998 -229.682)" fill="#ffe256"/>
    </g>
  </g>
</svg>
