<svg xmlns="http://www.w3.org/2000/svg" width="14" height="14" viewBox="0 0 14 14">
  <g id="icon_comment_line" transform="translate(-292 -1081)">
    <rect id="area" width="14" height="14" transform="translate(292 1081)" fill="none"/>
    <g id="그룹_151" data-name="그룹 151" transform="translate(292 1081.875)">
      <g id="합치기_1" data-name="합치기 1" transform="translate(0 0)" fill="none">
        <path d="M0,7.875V1.75A1.811,1.811,0,0,1,1.867,0H12.134A1.811,1.811,0,0,1,14,1.75V7.875a1.811,1.811,0,0,1-1.867,1.75H3.025L0,12.649Z" stroke="none"/>
        <path d="M 1.000000238418579 10.23528003692627 L 2.610690355300903 8.624600410461426 L 12.1338005065918 8.624600410461426 C 12.61163997650146 8.624600410461426 13.00040054321289 8.288330078125 13.00040054321289 7.875 L 13.00040054321289 1.749599933624268 C 13.00040054321289 1.336269974708557 12.61163997650146 0.9999999403953552 12.1338005065918 0.9999999403953552 L 1.866600275039673 0.9999999403953552 C 1.388760328292847 0.9999999403953552 1.000000238418579 1.336269974708557 1.000000238418579 1.749599933624268 L 1.000000238418579 10.23528003692627 M 2.716064386731887e-07 12.64949989318848 L 2.716064386731887e-07 1.749599933624268 C 2.716064386731887e-07 0.7829999327659607 0.8361002802848816 -5.340576336720915e-08 1.866600275039673 -5.340576336720915e-08 L 12.1338005065918 -5.340576336720915e-08 C 13.16429996490479 -5.340576336720915e-08 14.00040054321289 0.7829999327659607 14.00040054321289 1.749599933624268 L 14.00040054321289 7.875 C 14.00040054321289 8.84160041809082 13.16429996490479 9.624600410461426 12.1338005065918 9.624600410461426 L 3.024900197982788 9.624600410461426 L 2.716064386731887e-07 12.64949989318848 Z" stroke="none" fill="#737980"/>
      </g>
      <circle id="타원_838" data-name="타원 838" cx="0.875" cy="0.875" r="0.875" transform="translate(2.625 4.075)" fill="#737980"/>
      <circle id="타원_839" data-name="타원 839" cx="0.875" cy="0.875" r="0.875" transform="translate(6.125 4.075)" fill="#737980"/>
      <circle id="타원_840" data-name="타원 840" cx="0.875" cy="0.875" r="0.875" transform="translate(9.625 4.075)" fill="#737980"/>
    </g>
  </g>
</svg>
