<svg xmlns="http://www.w3.org/2000/svg" width="70" height="72.264" viewBox="0 0 70 72.264">
  <g id="sunny_ver2" transform="translate(-129 -252.798)">
    <rect id="area" width="70" height="70" transform="translate(129 254)" fill="none"/>
    <g id="그룹_53801" data-name="그룹 53801" transform="translate(64.832 76.149)">
      <path id="패스_20329" data-name="패스 20329" d="M79.24,229.455l-4.156,4.156a2.268,2.268,0,0,0,3.208,3.208l4.157-4.156a2.269,2.269,0,0,0-3.209-3.208Z" fill="#ffe256" stroke="#ffe256" stroke-width="2"/>
      <path id="패스_20345" data-name="패스 20345" d="M79.24,229.455l-4.156,4.156a2.268,2.268,0,0,0,3.208,3.208l4.157-4.156a2.269,2.269,0,0,0-3.209-3.208Z" transform="translate(-121.522 132.195) rotate(-45)" fill="#ffe256" stroke="#ffe256" stroke-width="2"/>
      <path id="패스_20346" data-name="패스 20346" d="M79.24,229.455l-4.156,4.156a2.268,2.268,0,0,0,3.208,3.208l4.157-4.156a2.269,2.269,0,0,0-3.209-3.208Z" transform="translate(-121.522 75.195) rotate(-45)" fill="#ffe256" stroke="#ffe256" stroke-width="2"/>
      <path id="패스_20330" data-name="패스 20330" d="M75.584,212.879a2.27,2.27,0,0,0-2.269-2.269h-5.88a2.269,2.269,0,0,0,0,4.537h5.88A2.27,2.27,0,0,0,75.584,212.879Z" fill="#ffe256" stroke="#ffe256" stroke-width="2"/>
      <path id="패스_20331" data-name="패스 20331" d="M79.24,196.3a2.269,2.269,0,0,0,3.209-3.209l-4.157-4.157a2.268,2.268,0,0,0-3.208,3.208Z" fill="#ffe256" stroke="#ffe256" stroke-width="2"/>
      <path id="패스_20339" data-name="패스 20339" d="M122.967,188.937a2.262,2.262,0,0,0-3.2,0l-4.157,4.157a2.261,2.261,0,0,0,3.2,3.2l4.157-4.158A2.26,2.26,0,0,0,122.967,188.937Z" fill="#ffe256" stroke="#ffe256" stroke-width="2"/>
      <path id="패스_20340" data-name="패스 20340" d="M130.623,210.618h-5.879a2.261,2.261,0,1,0,0,4.521h5.879a2.261,2.261,0,1,0,0-4.521Z" fill="#ffe256" stroke="#ffe256" stroke-width="2"/>
      <path id="패스_20341" data-name="패스 20341" d="M118.81,229.466a2.261,2.261,0,1,0-3.2,3.2l4.157,4.157a2.261,2.261,0,1,0,3.2-3.2Z" fill="#ffe256" stroke="#ffe256" stroke-width="2"/>
      <circle id="타원_1091" data-name="타원 1091" cx="20" cy="20" r="20" transform="translate(79.027 193.02)" fill="#ffe256"/>
    </g>
  </g>
</svg>
