<svg xmlns="http://www.w3.org/2000/svg" width="360" height="320" viewBox="0 0 360 320">
  <g id="main_pattern" transform="translate(21.947 12.885)">
    <rect id="area" width="360" height="320" transform="translate(-21.947 -12.885)" fill="none"/>
    <g id="그룹_185" data-name="그룹 185" transform="matrix(0.966, 0.259, -0.259, 0.966, 43.957, 52.231)">
      <path id="패스_19886" data-name="패스 19886" d="M.5,4.516C-1.251,8.378,1.847,14.277,5.964,16.8c4.756,2.915,7.133-.58,9.388-5.557S18.665,2.175,13.338.523C8.726-.908,2.249.654.5,4.516Z" transform="translate(14.494 12.152)" fill="#f3f3f3"/>
      <ellipse id="타원_1041" data-name="타원 1041" cx="4.486" cy="5.454" rx="4.486" ry="5.454" transform="translate(0 21.412) rotate(-72.806)" fill="#f3f3f3"/>
      <path id="패스_19887" data-name="패스 19887" d="M4.475.005A4.382,4.382,0,0,0,.008,4.392,4.6,4.6,0,0,0,5.014,8.355,4.382,4.382,0,0,0,9.481,3.969,4.6,4.6,0,0,0,4.475.005Z" transform="translate(6.756 24.195)" fill="#f3f3f3"/>
      <path id="패스_19888" data-name="패스 19888" d="M8.007,1.252C5.583-.527,2.364-.394.818,1.549S-.017,6.51,2.408,8.289s5.643,1.646,7.19-.3S10.432,3.032,8.007,1.252Z" transform="translate(5.766 4.174)" fill="#f3f3f3"/>
      <ellipse id="타원_1042" data-name="타원 1042" cx="4.18" cy="4.745" rx="4.18" ry="4.745" transform="matrix(0.735, -0.678, 0.678, 0.735, 15.201, 5.667)" fill="#f3f3f3"/>
    </g>
    <g id="그룹_184" data-name="그룹 184" transform="translate(279.085 269.289)">
      <path id="패스_19889" data-name="패스 19889" d="M5158.111,2240.591c-4.066-3-11.708-.85-15.669,3.32-4.577,4.818-1.094,8.455,4.146,12.317s9.745,6.111,12.992.314C5162.39,2251.523,5162.177,2243.588,5158.111,2240.591Z" transform="translate(-5139.18 -2223.98)" fill="#f3f3f3"/>
      <path id="패스_19890" data-name="패스 19890" d="M5247.386,2112.649c-2.739-1.12-6.163.615-7.647,3.876s-.47,6.812,2.268,7.932,6.162-.615,7.648-3.875S5250.124,2113.77,5247.386,2112.649Z" transform="translate(-5226.08 -2112.309)" fill="#f3f3f3"/>
      <ellipse id="타원_1043" data-name="타원 1043" cx="5.653" cy="4.979" rx="5.653" ry="4.979" transform="matrix(0.232, -0.973, 0.973, 0.232, 0, 13.977)" fill="#f3f3f3"/>
      <path id="패스_19891" data-name="패스 19891" d="M5325.249,2179.76c-2.674,2.384-3.318,6.168-1.438,8.452s5.573,2.2,8.248-.181,3.318-6.168,1.438-8.452S5327.923,2177.377,5325.249,2179.76Z" transform="translate(-5299.726 -2170.052)" fill="#f3f3f3"/>
      <ellipse id="타원_1044" data-name="타원 1044" cx="5.653" cy="4.979" rx="5.653" ry="4.979" transform="translate(21.974 25.348) rotate(-30.661)" fill="#f3f3f3"/>
    </g>
    <path id="패스_19905" data-name="패스 19905" d="M4100.692,2405.482a10.214,10.214,0,0,0-1.1-1.3,10.888,10.888,0,0,0-8.9-3.094,10.685,10.685,0,0,0-7.448,4.218,10.183,10.183,0,0,0-.891,1.435,9.7,9.7,0,0,0-1,5.582,9.854,9.854,0,0,0,2.295,5.221,10.431,10.431,0,0,0,1.206,1.2,10.914,10.914,0,0,0,8.254,2.5,10.641,10.641,0,0,0,7.937-4.939,9.888,9.888,0,0,0,.761-1.5,9.669,9.669,0,0,0,.638-4.793A9.8,9.8,0,0,0,4100.692,2405.482Zm-9.714-2.037a8.358,8.358,0,0,1,6.387,1.968,18.62,18.62,0,0,1-5.207,1.306,17.675,17.675,0,0,1-6.586-.424A8.211,8.211,0,0,1,4090.978,2403.446Zm1.853,15.446a8.374,8.374,0,0,1-5.939-1.606,17.508,17.508,0,0,1,6.313-1.838,18.8,18.8,0,0,1,5.382.146A8.181,8.181,0,0,1,4092.831,2418.891Zm6.622-4.831a20.189,20.189,0,0,0-6.446-.271,18.776,18.776,0,0,0-7.408,2.287,7.551,7.551,0,0,1-1.775-4.021,7.431,7.431,0,0,1,.776-4.3,18.99,18.99,0,0,0,7.756.625,19.974,19.974,0,0,0,6.215-1.66,7.521,7.521,0,0,1,1.413,3.564A7.421,7.421,0,0,1,4099.454,2414.06Z" transform="translate(-3830.629 -2221.198)" fill="#f3f3f3"/>
    <path id="패스_19935" data-name="패스 19935" d="M21.364,14.486a1.32,1.32,0,0,0-.411-.362,27.639,27.639,0,0,0-5.589-1.918c-.472-.146-.934-.316-1.392-.5l-.154-.063-.335-.138q-.456-.188-.912-.371a12.82,12.82,0,0,0-2.849-.864,7.829,7.829,0,0,0-2.134-.077,7.778,7.778,0,0,0-2.2.588A7.63,7.63,0,0,0,2.54,12.976a11.519,11.519,0,0,0-1.949,3.47,8.416,8.416,0,0,0-.418,4.689,9.691,9.691,0,0,0,.9,2.091c.3.6.6,1.194.938,1.774a12.587,12.587,0,0,0,1.277,1.836c.374.442.8.844,1.2,1.266a8.315,8.315,0,0,0,2.981,2.3,1.544,1.544,0,0,0,.618.515,2.71,2.71,0,0,0,1.835.13,4.881,4.881,0,0,0,.819-.289,4,4,0,0,0,1.283,1.314,5.5,5.5,0,0,0,4.389.281,24.489,24.489,0,0,0,3.931-1.831,10.444,10.444,0,0,0,3.1-2.1,4.059,4.059,0,0,0,1.007-1.772,4.319,4.319,0,0,0,.09-.652l.026-.021.025-.017a3.843,3.843,0,0,1,.358-.2c.037-.017.119-.051.181-.076a13.609,13.609,0,0,1,1.445-.406c.508-.12,1.006-.258,1.5-.411,1.44-.444,2.87-.921,4.3-1.4q2.928-.982,5.843-2c1.181-.413,2.363-.823,3.532-1.265a1.359,1.359,0,0,0,.7.067,21,21,0,0,0,4.977.877A6.764,6.764,0,0,0,51.5,19.994a10.453,10.453,0,0,0,4.417-.581,3.446,3.446,0,0,0,1.081-.7,7.535,7.535,0,0,0,.759-.972,9.144,9.144,0,0,0,.955-2.071,18.3,18.3,0,0,0,.5-1.951q-.154.3-.069.132l.05-.108c.063-.141.127-.281.187-.423.05-.121.1-.242.14-.366a6.361,6.361,0,0,0,.223-.822,6.166,6.166,0,0,0,.069-2.318A3.872,3.872,0,0,0,58.78,7.891a6.614,6.614,0,0,0-2.689-1.515,3.52,3.52,0,0,0-.63-1.816,11.463,11.463,0,0,0-2.423-2.3A17.616,17.616,0,0,0,50.211.434a3.715,3.715,0,0,0-2.02-.417,7.872,7.872,0,0,0-2.347.65c-.877.381-1.669.9-2.5,1.357a24.2,24.2,0,0,0-4.968,3.208A5.517,5.517,0,0,0,36.7,7.716a3.579,3.579,0,0,0,.023,1.93l-.053.022-.131.053c-.208.083-.417.165-.626.245-2.445.938-4.94,1.755-7.428,2.586-1.383.462-2.774.9-4.19,1.268C23.327,14.071,22.347,14.286,21.364,14.486Zm-2.774,1.4ZM7.827,12.766Zm-2.6,12.258c-.059-.074-.144-.186,0,0Zm5.354-1.155c-.482.513-.971,1.021-1.429,1.554a12.061,12.061,0,0,0-1.376,1.846c-.042.074-.084.149-.125.225q-.314-.27-.606-.563c-.4-.4-.773-.815-1.165-1.218-.211-.218-.432-.426-.627-.657a.077.077,0,0,1-.011-.013c-.037-.048-.074-.1-.11-.144-.094-.127-.185-.255-.271-.386A18.805,18.805,0,0,1,3.848,22.76c-.275-.529-.563-1.057-.818-1.6-.018-.046-.077-.182-.092-.226-.027-.081-.056-.163-.078-.245a4.572,4.572,0,0,1-.113-.489v0c-.009-.085-.017-.17-.021-.255-.009-.171-.013-.342-.006-.513.007-.2.02-.394.045-.59a.018.018,0,0,0,0-.007c.015-.085.029-.171.047-.255a9.791,9.791,0,0,1,.255-1c.095-.3.2-.6.319-.9.02-.048.04-.1.06-.143.058-.124.117-.249.18-.371a9.238,9.238,0,0,1,.92-1.455l0,0c.045-.052.088-.1.133-.154.091-.1.182-.2.278-.3a7.229,7.229,0,0,1,.6-.541c.031-.025.093-.071.135-.1L5.71,13.6c.11-.074.222-.147.337-.215a6.14,6.14,0,0,1,.665-.341l.036-.012c.063-.022.127-.045.192-.065.131-.041.262-.079.394-.11s.27-.061.406-.083l.021,0,.107-.011a6.2,6.2,0,0,1,.954,0l.185.017c.176.029.351.06.525.1a14.451,14.451,0,0,1,2.146.7l.033.013.063.025.251.1.5.207c.416.169.831.341,1.253.5.671.248,1.358.441,2.049.629s1.4.379,2.086.607c.191.063.382.128.57.2l.142.054c-.049.064-.1.129-.144.194-.134.183-.264.368-.4.547l-.026.034-.028.033c-.056.064-.112.128-.172.189a2.11,2.11,0,0,1-.223.2l-.11.08c-.164.118-.329.235-.492.355a9.88,9.88,0,0,0-1.2.973c-.317.319-.592.673-.9,1s-.64.647-.971.959c-.659.619-1.337,1.219-1.967,1.865C11.5,22.829,11.058,23.362,10.582,23.87Zm2.593,5.746c-.061-.069-.162-.213,0,0Zm.324.3c.03.021.021.016,0,0Zm8.336-4a1.665,1.665,0,0,1-.037.167c-.015.048-.051.135-.072.187a2.663,2.663,0,0,1-.175.281c-.039.046-.09.1-.117.134-.075.077-.151.152-.23.223s-.165.145-.251.214l-.079.061c-.182.128-.369.25-.561.365-.532.32-1.088.6-1.637.891-.638.34-1.269.693-1.925,1-.161.075-.324.148-.488.217l-.081.031c-.083.03-.165.061-.248.089a6.822,6.822,0,0,1-1.006.265l-.1.016c-.072.007-.146.013-.22.016a4.469,4.469,0,0,1-.513,0c-.032,0-.084-.009-.126-.015l-.091-.018c-.069-.016-.139-.034-.207-.054s-.185-.083-.236-.115l-.037-.025a2.657,2.657,0,0,1-.209-.2l-.035-.048a4.208,4.208,0,0,1-.3-.515c-.025-.059-.054-.129-.069-.165q-.052-.137-.1-.275a1.376,1.376,0,0,0-.152-.456,17.653,17.653,0,0,0-.633-1.823l.319-.34c.469-.5.914-1.017,1.382-1.516.513-.547,1.062-1.061,1.614-1.572s1.116-1.027,1.635-1.576c.429-.452.814-.922,1.279-1.333.18.182.358.367.531.555.2.216.4.435.587.659.082.1.163.192.243.29l.094.119a17.587,17.587,0,0,1,1.762,2.759q.117.226.228.455l.077.163a3.642,3.642,0,0,1,.169.546c.006.063.016.158.016.2S21.837,25.861,21.834,25.912Zm26.533-7.4c.172-.023.086-.01,0,0ZM49.2,18.3c-.086.038-.279.1.01,0Zm5.452-1.174c.16-.068.081-.032,0,0Zm.451-.265c.116-.089.063-.047,0,0Zm.17-5.5c.217-.76.42-1.522.577-2.293l.007,0c.065.03.13.06.195.092a4.726,4.726,0,0,1,.433.242l.087.059.032.027a2.975,2.975,0,0,1,.273.264c.039.056.077.113.113.172s.072.124.106.187a2.354,2.354,0,0,1,.081.3c0,.052.009.1.011.157,0,.142,0,.284,0,.426-.006.087-.013.174-.022.261-.024.135-.05.269-.082.4a6.28,6.28,0,0,1-.245.8c-.01.029-.032.077-.05.117l-.01.022a2.519,2.519,0,0,0-.228.67c-.07.314-.141.628-.224.939-.09.34-.189.679-.31,1.01-.053.147-.108.293-.169.437l0,0c-.035.073-.069.146-.107.218a6.07,6.07,0,0,1-.555.893l0,0a1.4,1.4,0,0,1-.125.131l-.022.015c-.067.042-.133.084-.2.121s-.149.078-.227.113l-.017.006a4.629,4.629,0,0,1-.45.128c-.1.023-.21.044-.317.062-.086.009-.278.031-.339.035h0A38.307,38.307,0,0,0,55.272,11.357Zm-1.9-4.928c-.031-.212-.01-.092,0,0Zm-.121-.388c-.04-.09-.023-.055,0,0Zm-.136-.175c.059.069.166.212,0,0ZM48.527,2.589c-.091-.011-.058-.009,0,0ZM39.694,7.7c-.068.084-.041.049,0,0Zm-.4.792c.011-.1.035-.215,0,0Zm0,.043a2.389,2.389,0,0,1,.083-.294c.006-.013.011-.026.016-.039a3.677,3.677,0,0,1,.313-.509c.017-.023.035-.046.052-.069.063-.072.127-.144.194-.214a9.031,9.031,0,0,1,1.082-.952l0,0,.1-.07c.1-.068.193-.135.291-.2q.3-.2.6-.388c.413-.257.833-.5,1.259-.741.712-.4,1.443-.771,2.145-1.187.45-.267.9-.537,1.37-.764.149-.071.3-.14.449-.2l.006,0c.072-.027.144-.054.217-.078a5.326,5.326,0,0,1,.814-.212l.047,0c.069,0,.136-.006.205,0l.082,0,.012,0c.043.01.084.021.126.034s.111.052.166.079a13.472,13.472,0,0,1,1.239.722q.368.238.726.489l.244.176c.068.05.171.127.208.157A14.9,14.9,0,0,1,52.6,5.335c.172.165.34.335.5.515,0,.007.01.014.016.022a2.409,2.409,0,0,1,.143.215c.01.016.018.032.027.048a2.538,2.538,0,0,1,.08.286c0,.023.008.045.012.068.01.109.017.219.018.328a6.788,6.788,0,0,1-.041.828c-.005.052-.011.1-.018.155-.02.126-.041.251-.064.376-.108.567-.245,1.128-.4,1.685-.3,1.1-.59,2.2-.869,3.311-.184.725-.377,1.449-.627,2.156-.069.2-.14.394-.218.589-.035.083-.068.166-.1.249,0,.012-.009.02-.012.028a8.456,8.456,0,0,1-.467.9c-.08.128-.162.253-.254.373-.035.04-.069.08-.106.118-.087.091-.178.181-.274.264-.039.034-.079.067-.119.1a4,4,0,0,1-.6.336l-.09.032c-.114.038-.23.073-.346.1-.138.034-.276.065-.417.088l-.078.012c-.247.023-.493.036-.741.034-.28,0-.559-.014-.837-.04-.095-.009-.189-.019-.285-.03l-.2-.028c-.876-.138-1.735-.346-2.592-.567,0-.175-.01-.35-.017-.526s-.01-.335,0-.5c.014-.071.045-.246.054-.3.024-.122.047-.245.068-.368.116-.674.212-1.353.266-2.035a7.994,7.994,0,0,0,.023-1.711,4.623,4.623,0,0,0-.679-1.924,4.318,4.318,0,0,0-1.468-1.5A4.069,4.069,0,0,0,39.8,8.495a4.837,4.837,0,0,0-.5.052Zm-6.678,5.382c1.256-.43,2.509-.866,3.749-1.337a30.706,30.706,0,0,0,3.1-1.308,1.2,1.2,0,0,0,.248-.17l.007,0a2.636,2.636,0,0,1,.314,0c.046.009.093.019.138.031.061.017.245.093.242.087.052.026.1.055.154.085l.089.09c.051.054.239.288.2.232.034.047.068.094.1.143.059.091.117.183.169.278.024.045.079.172.1.211a2.292,2.292,0,0,1,.07.222c.013.052.033.185.042.227.009.171.006.342,0,.513-.015.534-.053,1.068-.117,1.6-.009.079-.019.158-.03.237-.018.118-.036.236-.056.354-.042.245-.091.489-.139.733a7.681,7.681,0,0,0-.077,1.609c-2.842,1.085-5.747,2.037-8.631,3.009-1.616.544-3.233,1.089-4.864,1.592A32.35,32.35,0,0,0,23.876,23.4a16.818,16.818,0,0,0-1.658-2.7,24.167,24.167,0,0,0-2.052-2.4c.248-.31.482-.629.717-.948l.1-.135c1.247-.24,2.491-.494,3.722-.8C27.392,15.733,30.005,14.808,32.616,13.915Z" transform="matrix(0.966, -0.259, 0.259, 0.966, 245.458, 6.59)" fill="#f3f3f3"/>
    <path id="패스_19937" data-name="패스 19937" d="M1330.971,173c-.008.039-.013.855-.017.9l0,.041a13.412,13.412,0,0,0-.062,2.3,17.572,17.572,0,0,0,1.2,5.383,3.471,3.471,0,0,0,.184,3.427,3.6,3.6,0,0,0,1.9,1.6,4.777,4.777,0,0,0,1.831,2.244,3.365,3.365,0,0,0,3.084.4,15,15,0,0,0,9.75,1.386l.044-.01.748-.177a5.959,5.959,0,0,0,1.319.294,7.627,7.627,0,0,0,3.592-.225,3.723,3.723,0,0,0,2.486-2.744,6.043,6.043,0,0,1,.2-.9c.025-.074.051-.148.079-.221.012-.031.049-.119.06-.148.047-.105.1-.211.147-.314a9.957,9.957,0,0,1,.482-.881c.01-.015.024-.034.039-.052s.044-.044.067-.065l.018-.012c.057-.035.115-.07.174-.1a6.65,6.65,0,0,0,1.6-1.009,6.259,6.259,0,0,0,1.017-1.281,4.526,4.526,0,0,0,.651-1.869,2.49,2.49,0,0,0-.517-1.764,1.026,1.026,0,0,0-.123-.154l-.025-.03a.949.949,0,0,0-.261-.208,15.052,15.052,0,0,0,.264-2.8,14.9,14.9,0,0,0-.708-4.56,3.108,3.108,0,0,0,1-.99,3.492,3.492,0,0,0,.491-2.437,4.87,4.87,0,0,0-2.168-3.006,7.122,7.122,0,0,0-1.339-.518c-.2-.059-.406-.117-.6-.188-.047-.017-.171-.071-.218-.091s-.107-.055-.158-.085c-.079-.047-.156-.1-.23-.149-.055-.043-.132-.1-.182-.137l-.115-.081c-.449-.318-.9-.635-1.344-.957-.219-.158-.439-.317-.655-.48a5.551,5.551,0,0,0-3.86-3.253,3.76,3.76,0,0,0-3.329.666,2.381,2.381,0,0,0-.866,1.329,14.721,14.721,0,0,0-5.676.843l-.161.06a3.277,3.277,0,0,0-1.748-.6,7.175,7.175,0,0,0-3.991,1.142,13.974,13.974,0,0,0-1.115.886,11.576,11.576,0,0,0-3.455,4.722,8.255,8.255,0,0,0-.391,2.084,7.686,7.686,0,0,0,.076,2.125C1330.273,172.878,1330.542,172.634,1330.971,173Zm7,14.22c-.041.018-.061.024,0,0Zm.007-.021c-.064.007-.1,0,0-.009Zm.006-.021c-.085-.009-.191-.037,0,0Zm.005.012h0Zm0-.011h0Zm0,0h0l.009-.054C1338,187.142,1338,187.161,1338,187.179Zm.322-4.344c-.1.215-.2.436-.315.642-.02.035-.041.069-.063.1l-.065.153-.031.069c-.055.118-.116.235-.168.354a2.268,2.268,0,0,0-.214,1.4,2.877,2.877,0,0,0,.408.917q.03.052.058.1a2.067,2.067,0,0,1,.065.226c0,.017.007.034.01.051a2.035,2.035,0,0,1,0,.247c0,.017-.006.034-.011.051s0,.016-.007.024l-.064-.016c-.128-.037-.26-.066-.387-.108-.04-.013-.127-.05-.169-.067l-.031-.016a2.986,2.986,0,0,1-.286-.176c-.044-.039-.089-.078-.13-.119q-.112-.111-.214-.231c-.019-.025-.037-.05-.048-.065-.036-.054-.072-.107-.105-.163-.068-.113-.134-.228-.192-.346-.03-.061-.06-.121-.088-.183h0q-.072-.184-.135-.37a1.192,1.192,0,0,0-1.124-.855l-.052,0c-.055-.017-.141-.051-.179-.065s-.077-.044-.114-.068l-.023-.015a2.416,2.416,0,0,1-.209-.206l-.036-.04a3.079,3.079,0,0,1-.211-.351c-.018-.05-.067-.179-.08-.227s-.031-.119-.044-.179c.033-.013.066-.026.1-.043a1.16,1.16,0,0,0,.52-.53,1.572,1.572,0,0,0,.23-.067,2.026,2.026,0,0,0,.809-.471,4.332,4.332,0,0,0,.428-.56,8.018,8.018,0,0,0,1.008-2.254,1.189,1.189,0,0,0,.024-.475,1.034,1.034,0,0,0-.56-.84l-.021-.01a1.081,1.081,0,0,0-.1-.049c-.024-.013-.048-.026-.071-.041s-.047-.046-.07-.07l-.02-.031c-.018-.03-.035-.061-.052-.092s-.021-.056-.026-.076c-.019-.066-.036-.132-.049-.2h0a2.956,2.956,0,0,1,0-.392c.006-.038.012-.077.017-.1.019-.085.039-.17.065-.254q.027-.089.059-.176c.018-.042.039-.09.051-.113a3.78,3.78,0,0,1,.242-.407c.034-.044.085-.109.107-.133.048-.052.095-.1.147-.152l.035-.03c.023-.016.047-.031.071-.046.067-.04.267-.129.3-.147.078-.026.156-.05.237-.069q.076-.018.153-.032h.02a2.866,2.866,0,0,1,.408,0c.073.015.146.031.217.053l.118.038.026.013a2.3,2.3,0,0,1,.2.117l.02.014a2.152,2.152,0,0,1,.206.2l.02.024c.025.037.051.074.075.112-.056-.088.172.244.216.3l.021.04c.011.031.022.061.033.092q.037.113.073.226a2.434,2.434,0,0,0,.264.628,1.815,1.815,0,0,0,1.128.8c.181.035.364.055.546.076-.167-.018.182.033.272.069-.368-.145.107.029.3.1.052.027.1.055.154.087.025.016.065.047.1.072.016.014.032.027.047.042.057.055.112.113.165.173.037.053.13.182.157.229q.075.129.139.263c.015.037.03.075.037.1.02.061.04.122.057.183s.038.152.053.229.02.213.019.267-.025.249-.027.286a2.161,2.161,0,0,1-.072.253l-.01.027c-.021.044-.043.087-.067.13-.034.06-.069.121-.108.178-.011.016-.029.039-.046.061-.042.048-.086.094-.133.137-.031.022-.073.051-.1.069-.137.04-.274.084-.414.11l-.012,0c-.065,0-.13.009-.195.011l-.239,0-.045,0a2.236,2.236,0,0,0-1.916.084A3.68,3.68,0,0,0,1338.321,182.835Zm-.318,3.976c-.032-.217-.007-.084,0,0Zm-1.019-11.1c.049-.038.083-.06,0,0Zm1.773.01c.043.034.071.058,0,0Zm.21.23c.036.048.06.083,0,0Zm2.375-.1.007,0C1341.264,175.843,1341.084,175.8,1341.342,175.849Zm-.064-.034Zm1.4,4.749c-.033.078-.086.182,0,0Zm-1.379.69c-.074-.007-.115-.021,0,0Zm-.9,2.169c-.009,0-.011,0-.008,0Zm14.243,4.231c-.023.052-.04.086,0,0Zm3.411-2.4c-.1.083-.055.042,0,0Zm-.015.023.027-.031,0,0Zm.035-.039-.006.005C1358.092,185.218,1358.1,185.207,1358.075,185.24Zm1.162-4.407c-.006.031-.013.062-.021.093-.02.076-.042.152-.068.227-.01.027-.02.053-.03.08-.032.067-.064.134-.1.2a5.081,5.081,0,0,1-.29.471c-.024.034-.084.113-.119.158l-.053.065a4.452,4.452,0,0,1-.313.33c-.025.024-.053.047-.079.07-.049.036-.116.087-.147.105-.365.223-.785.361-1.135.608a3.7,3.7,0,0,0-1.126,1.315,7.647,7.647,0,0,0-1.008,2.769c-.021.084-.043.168-.072.249l-.01.027a2.1,2.1,0,0,1-.133.237c-.007.012-.018.025-.028.039s-.021.026-.033.039c-.045.047-.091.093-.139.137s-.183.131-.235.16-.109.059-.165.086-.185.069-.234.084c-.111.033-.223.064-.337.087-.074.016-.324.05-.334.054-.058.005-.116.009-.174.012-.267.014-.534.009-.8,0-.2-.008-.409-.017-.613-.033-.084-.007-.168-.013-.252-.022l-.14-.018a3.976,3.976,0,0,1-.688-.166c.006-.019.012-.038.019-.056s.025-.052.038-.078c.005-.01.012-.021.019-.031.026-.028.054-.054.082-.08.05-.029.2-.134.257-.161.024-.012.063-.029.094-.043l.059-.019c.044-.013.089-.025.134-.036h.046l.073.011a2.572,2.572,0,0,0,1.058,0,1.912,1.912,0,0,0,1.253-1.419l.054-.164,0-.009c.058-.113.116-.226.173-.34a10.671,10.671,0,0,0,.435-.978,2.905,2.905,0,0,0,.05-2.024c-.1-.29-.225-.572-.317-.866a3.456,3.456,0,0,1-.106-.411c0-.007,0-.013,0-.023s0-.037,0-.049c.016-.062.032-.124.053-.185.007-.02.018-.049.029-.075a2.3,2.3,0,0,1,.118-.217q.04-.062.082-.123a2.7,2.7,0,0,1,.251-.255l.025-.022c.045-.031.09-.062.137-.09.067-.04.136-.078.206-.113.059-.02.214-.078.268-.092.071-.018.3-.052.306-.058a2.74,2.74,0,0,1,.3,0c.057,0,.115.006.172.011h0a.662.662,0,0,1,.117.038c.029.019.057.038.085.058.135.1.264.2.4.295a2.026,2.026,0,0,0,1.3.33,7.276,7.276,0,0,0,.962-.238,1.812,1.812,0,0,0,.222-.091,1.137,1.137,0,0,0,.412.08C1359.24,180.791,1359.238,180.812,1359.237,180.832Zm-8.015,5-.008.021,0,.008C1351.157,185.952,1351.1,185.97,1351.222,185.836Zm.836-2s0-.007,0-.01v0C1352.083,183.939,1352.068,184.057,1352.058,183.837Zm1.489,2.386c-.069.2-.038.08,0,0Zm4-7.53c.125-.02.075,0,.006,0Zm1.057-11.511c.064.05.138.117,0,0Zm-4.077-4.974h0C1354.5,162.187,1354.49,162.181,1354.524,162.207Zm-2,.978Zm-3.608-1.921c0-.037,0-.048,0,0Zm-1.854,2.411h0C1347.037,163.737,1347.042,163.716,1347.057,163.675Zm-.038.21c.009-.048.021-.114.03-.146l.017-.065a2.793,2.793,0,0,0,1.566-.359,1.179,1.179,0,0,0,.535-1.316c-.034-.1-.073-.2-.115-.3.018.043-.031-.077-.075-.188.03-.026.075-.06.1-.077l0,0c.062-.037.283-.125.252-.119.05-.015.1-.029.152-.04.028-.006.075-.012.112-.017l.022,0a2.921,2.921,0,0,1,.321.006c.038.005.077.011.1.015.088.018.176.038.263.061a4.893,4.893,0,0,1,.509.167l.079.037c.073.036.145.072.216.111.126.07.251.143.37.225l.127.089a4.142,4.142,0,0,1,.537.534l.023.032c.038.055.076.111.111.168a3.767,3.767,0,0,1,.2.36c.009.019.021.049.033.077s.025.069.037.1a1.364,1.364,0,0,0,.342.6,16.089,16.089,0,0,0,1.8,1.34l.8.566c.09.063.315.247-.034-.034a3.963,3.963,0,0,0,.876.566c.563.248,1.143.394,1.72.6l.138.05.051.024a2.848,2.848,0,0,1,.338.195l.028.02c.039.034.077.068.113.1.053.053.106.106.154.164l.025.029c.025.035.052.068.081.1s.059.084.093.124l.014.017c.027.038.053.077.079.117a3.1,3.1,0,0,1,.167.3l.006.017c.015.045.03.091.043.137s.023.089.034.134.015.2.012.257c0,.025-.006.063-.01.095,0,.007,0,.013,0,.02-.018.071-.119.32-.082.255-.028.055-.058.109-.091.161-.018.028-.073.1-.092.127s-.024.025-.037.037l-.015.014,0,0c-.09-.046-.177-.095-.265-.146-.178-.105-.356-.212-.541-.308a1.187,1.187,0,0,0-1.412.182,1.158,1.158,0,0,0-.3,1.134,2.529,2.529,0,0,1,.089.322c0,.037,0,.073.005.11,0,.062-.019.223-.02.254-.011.048-.023.1-.039.142-.007.021-.018.05-.029.076-.028.052-.058.1-.089.152s-.108.125-.141.155l-.024.021-.039.026c-.05.03-.175.081-.214.1-.065.019-.13.037-.2.05l-.031.005-.073,0c-.063,0-.126,0-.189,0s-.145-.027-.184-.039-.129-.049-.179-.071c-.07-.038-.139-.078-.205-.122-.041-.034-.1-.082-.126-.107-.065-.062-.129-.125-.189-.193-.026-.03-.074-.091-.106-.131-.018-.025-.035-.05-.052-.076a3.5,3.5,0,0,1-.211-.373,1.318,1.318,0,0,1-.046-.151h0c-.007-.089-.012-.179-.013-.268,0-.2,0-.4,0-.6a7.076,7.076,0,0,0-.024-1.07,2.185,2.185,0,0,0-.3-.994,4.685,4.685,0,0,0-1.088-.945c-.279-.212-.559-.422-.836-.635l-.109-.085-.2-.158c-.113-.092-.218-.194-.321-.3a5.566,5.566,0,0,0-.675-.6,1.881,1.881,0,0,0-.941-.308,2.885,2.885,0,0,0-.99.121c-.127.033-.247.087-.374.121-.07.018-.293.049-.306.055a2.462,2.462,0,0,1-.307,0l-.062-.007c-.032-.006-.064-.013-.095-.022-.058-.015-.115-.031-.171-.051s-.1-.053-.144-.083c-.062-.058-.127-.114-.185-.175a.69.69,0,0,1-.05-.06c-.011-.019-.022-.038-.032-.057-.014-.047-.027-.095-.038-.143C1347.015,164.047,1347.015,163.966,1347.019,163.886Zm9.269,7.6c-.059.045-.118.083,0,0Zm-.48.166c-.086.011-.189.016,0,0Zm-3.89-3.073v0C1351.886,168.367,1351.91,168.5,1351.918,168.582Zm-.041-.1Zm-2.376-1.757h0l0,0h0Zm-.024,0c-.022,0-.019,0,0,0Zm-1.781-2.012Zm-.8-1.029h0C1346.718,163.711,1346.811,163.691,1346.892,163.683Zm-5.265.451.093-.035a10.856,10.856,0,0,1,3.016-.652,3.03,3.03,0,0,0,1.512,3.186,3.526,3.526,0,0,0,2.02.409,3.909,3.909,0,0,0,1-.2,1.541,1.541,0,0,1,.255-.073c.139.137.275.278.419.41.555.508,1.195.933,1.792,1.391l.116.091.079.063c0,.067.006.133.007.2,0,.493-.041.99,0,1.482a3.556,3.556,0,0,0,.477,1.53,4.219,4.219,0,0,0,.975,1.175,3.825,3.825,0,0,0,1.98.859,3.136,3.136,0,0,0,2.806-1.095,12.693,12.693,0,0,1,.163,5.512,1.911,1.911,0,0,0-.193.065c-.088.033-.174.071-.26.11-.122.036-.241.079-.362.118a3.088,3.088,0,0,0-.958-.582,4.747,4.747,0,0,0-1.076-.143,4.332,4.332,0,0,0-1.913.44,3.978,3.978,0,0,0-1.467,1.269,3.149,3.149,0,0,0-.658,1.826,6.774,6.774,0,0,0,.488,1.935,3.754,3.754,0,0,1,.111.37c-.014.072-.033.178-.048.224q-.041.13-.091.258c-.018.042-.038.087-.048.109-.03.063-.06.126-.09.189q-.088.178-.179.355a5.609,5.609,0,0,0-.247.564,2.578,2.578,0,0,0-.854.038,3.415,3.415,0,0,0-.955.377,2.982,2.982,0,0,0-1.425,1.765,2.663,2.663,0,0,0-.107.78,12.763,12.763,0,0,1-2.065.168,12.625,12.625,0,0,1-5.625-1.32,3.3,3.3,0,0,0-.367-1.881c-.043-.082-.1-.156-.142-.236l-.026-.045c.048-.1.095-.2.139-.3q.207-.5.053-.11l.021-.035q.022-.038.043-.076c.2-.373.354-.771.56-1.14l.12.031a3.907,3.907,0,0,0,2.213-.157,3.257,3.257,0,0,0,1.726-1.549,4.132,4.132,0,0,0-.129-3.972,3.877,3.877,0,0,0-1.387-1.438,3.646,3.646,0,0,0-.6-.268c-.056-.019-.112-.039-.169-.052q.369.17-.125-.045l-.067-.027a2.182,2.182,0,0,0-.4-.088l-.245-.033a3.566,3.566,0,0,0-.583-1.13c-.017-.024-.033-.049-.05-.073-.086-.115-.171-.23-.262-.34a2.423,2.423,0,0,0-.26-.275,3.409,3.409,0,0,0-.773-.545,4.011,4.011,0,0,0-3.6.071,4.219,4.219,0,0,0-2.066,3.053,3.866,3.866,0,0,0,.264,2.164,2.572,2.572,0,0,0,.446.683c-.028.063-.056.126-.085.188-.095.2-.194.393-.305.582-.042.071-.085.142-.131.211h0a15.592,15.592,0,0,1-.924-4.409,11.32,11.32,0,0,1,.059-1.893l0-.042c0-.023,0-.046,0-.069a4.2,4.2,0,0,0,1.7-1.369,4.441,4.441,0,0,0,.771-1.755,5.292,5.292,0,0,0,.119-1.1c0-.058-.006-.117-.008-.176l.006-.026c.034-.067.083-.167.11-.21q.087-.136.182-.266c.035-.044.07-.087.107-.13q.124-.147.252-.291a15.937,15.937,0,0,0,1.1-1.292c.032-.044.061-.09.089-.136l.007-.007.02-.013c.034-.02.069-.039.1-.058.052-.021.11-.044.145-.055.085-.028.171-.055.257-.079.18-.051.361-.1.542-.143a7.878,7.878,0,0,0,1.337-.454A2.561,2.561,0,0,0,1341.626,164.135Zm-5.973,2.06c.1-.134.048-.061,0,0Zm1.989,1.178c-.025.033-.02.025,0,0Zm1.664-3.1h0C1339.419,164.188,1339.364,164.236,1339.306,164.277Zm0-.51c.052.062.075.123-.016-.008Zm-.26-.069c.087.011.237.038,0,0Zm-2.131.415Zm-4.477,5.74.015-.1c.013-.074.026-.147.041-.221.031-.147.064-.293.105-.438s.086-.293.139-.437c.02-.055.041-.109.063-.163.012-.029.025-.058.032-.073a7.357,7.357,0,0,1,.5-.9c.075-.115.153-.23.233-.341.042-.058.084-.117.128-.174l0-.005a15.26,15.26,0,0,1,1.306-1.441c.238-.231.481-.457.735-.671.1-.088.209-.175.316-.26.052-.039.1-.078.159-.116a4.711,4.711,0,0,1,.78-.439l.032-.013c.07-.027.14-.053.211-.077.141-.048.282-.093.426-.132.163-.044.327-.084.493-.115l.182-.032a4.094,4.094,0,0,1,.688-.017c.033.006.066.011.1.018s.093.022.138.034c0,.016.009.032.013.048.006.072.019.21.02.264s0,.105,0,.158c0,.019-.008.039-.013.059l0,0-.021.022-.014.013a2.1,2.1,0,0,1-.19.109l-.045.021q-.218.08-.441.143a5.781,5.781,0,0,0-2.466,1.014,3.189,3.189,0,0,0-.453.585l-.037.052q-.1.122-.205.24c-.4.452-.8.895-1.173,1.374a3.092,3.092,0,0,0-.7,1.656c-.015.216,0,.431-.009.647-.013.071-.038.231-.052.284a3.869,3.869,0,0,1-.115.39l-.02.057c-.026.055-.052.11-.081.163a3.375,3.375,0,0,1-.212.348l0,0c-.037.043-.074.087-.114.128-.054.056-.284.243-.228.21a2.37,2.37,0,0,1-.256.152l0-.008c-.018-.069-.05-.289-.055-.293A9,9,0,0,1,1332.441,169.854Zm-.112,2.078h0C1332.29,171.918,1332.277,171.909,1332.33,171.932Zm-.083.015h.007C1332.182,171.96,1332.12,171.959,1332.247,171.947Z" transform="translate(-1330.194 48.689)" fill="#f3f3f3"/>
  </g>
</svg>
