<svg xmlns="http://www.w3.org/2000/svg" width="20" height="19.995" viewBox="0 0 20 19.995">
  <g id="icon_distance" transform="translate(-2 -2.002)">
    <path id="패스_19960" data-name="패스 19960" d="M231.089,365.332l2.509-3.069,9.971,11.643,6.367.911v3.125l-10.23-.736Z" transform="translate(-228 -357.998)" fill="#34589c"/>
    <path id="패스_19958" data-name="패스 19958" d="M10.021,2.512a.929.929,0,0,1,.355.605A2.723,2.723,0,0,0,11.3,4.5c1.084.863,3.195.646,3.918.49a1,1,0,0,1,1.187.756l.208.92-1.977.226A1,1,0,0,0,13.76,8a1.032,1.032,0,0,0,1.105.88l2.2-.25.255,1.124-1.933.221A1,1,0,0,0,14.5,11.08a.987.987,0,0,0,1.105.88l2.15-.246L18.05,13l1.613.653c2.6,1.325,2.324,3.284,2.324,3.284V17.3H16.126a2.568,2.568,0,0,1-1.978-.753L4.793,5.133l2.2-2.505A2.318,2.318,0,0,1,10.021,2.512Z" fill="#4783f5"/>
    <path id="패스_19959" data-name="패스 19959" d="M16.108,22H21a1,1,0,0,0,1-1L21.994,19.3H16.125a4.454,4.454,0,0,1-3.545-1.51L3.453,6.655l-1.2,1.37a1,1,0,0,0-.018,1.3l8.8,10.558A7.946,7.946,0,0,0,16.108,22Z" fill="#fff"/>
  </g>
</svg>
