<svg id="profile_default" xmlns="http://www.w3.org/2000/svg" xmlns:xlink="http://www.w3.org/1999/xlink" width="162" height="162" viewBox="0 0 162 162">
  <defs>
    <filter id="타원_14" x="-12" y="-12" width="192" height="192" filterUnits="userSpaceOnUse">
      <feOffset dx="3" dy="3" input="SourceAlpha"/>
      <feGaussianBlur stdDeviation="5" result="blur"/>
      <feFlood flood-color="#a7b8db" flood-opacity="0.2"/>
      <feComposite operator="in" in2="blur"/>
      <feComposite in="SourceGraphic"/>
    </filter>
    <clipPath id="clip-path">
      <g transform="matrix(1, 0, 0, 1, 0, 0)" filter="url(#타원_14)">
        <circle id="타원_14-2" data-name="타원 14" cx="81" cy="81" r="81" fill="#005f36"/>
      </g>
    </clipPath>
  </defs>
  <g id="마스크_그룹_1" data-name="마스크 그룹 1">
    <circle id="타원_1057" data-name="타원 1057" cx="81" cy="81" r="81" fill="#4783f5"/>
    <g id="왼쪽귀" transform="translate(21.263 35.99) rotate(-8)">
      <path id="패스_19550" data-name="패스 19550" d="M2.506,1.945C6.256-.068,10.744-.048,15.014.022c11.633.191,6,18.718-.95,21.323C6.85,24.05-5.261,6.114,2.506,1.945Z" transform="matrix(0.799, 0.602, -0.602, 0.799, 13.012, 0)" fill="#fff"/>
      <path id="패스_19552" data-name="패스 19552" d="M1.762.977c2.637-1.011,5.793-1,8.8-.966,8.18.1,4.219,9.4-.668,10.709C4.818,12.078-3.7,3.07,1.762.977Z" transform="matrix(0.799, 0.602, -0.602, 0.799, 13.112, 6.675)" fill="#ffb1b1"/>
    </g>
    <g id="오른쪽귀" transform="translate(103.663 31.702)">
      <path id="패스_19551" data-name="패스 19551" d="M2.258,17.2c3.378,1.76,7.422,1.742,11.269,1.681C24.01,18.716,18.934,2.519,12.672.242,6.172-2.123-4.74,13.557,2.258,17.2Z" transform="matrix(-0.799, 0.602, -0.602, -0.799, 27.002, 15.096)" fill="#fff"/>
      <path id="패스_19553" data-name="패스 19553" d="M1.387,8.333a17.971,17.971,0,0,0,6.923.814c6.439-.081,3.321-7.926-.525-9.03C3.792-1.028-2.912,6.567,1.387,8.333Z" transform="matrix(-0.799, 0.602, -0.602, -0.799, 19.003, 13.514)" fill="#ffb1b1"/>
    </g>
    <g id="얼굴" transform="translate(26.644 34.149)">
      <path id="패스_19543" data-name="패스 19543" d="M366.672,383.609a8.168,8.168,0,0,0,11.341,3.708,8.791,8.791,0,0,1,1.489-1.559c.168-.18.34-.356.521-.524a1.987,1.987,0,0,1,1.139-.546,8.569,8.569,0,0,1,11.7,4.052,3.778,3.778,0,0,0,4.834-2.947,1.747,1.747,0,0,1,2.551-1.038,6.583,6.583,0,0,0,10.5-3.548,1.761,1.761,0,0,1,2.551-1.038,4.917,4.917,0,0,0,7.048-5.379,1.824,1.824,0,0,1,1.785-2.171,1.739,1.739,0,0,1,1.408.067c1.419.674,3.068-.438,3.758-1.66.967-1.712.758-3.911.437-5.767s2.158-3.157,3.174-1.338c.449.8,1.668-1.635,1.785-1.884a14.646,14.646,0,0,1,1.77-2.993,12.311,12.311,0,0,1,5.876-4c.027-.009.053-.014.08-.022a8.16,8.16,0,0,0,.719-2.2,8.962,8.962,0,0,0-1.922-7.248c-.5-.608-1.6-1.262-1.818-2.036-.242-.869.544-2.109.8-2.933a12.388,12.388,0,0,0,.453-2.314,13.515,13.515,0,0,0-4.977-11.915,12.481,12.481,0,0,0-13.151-16.167c-.671-6.031-7.241-9.595-12.987-7.09a9.175,9.175,0,0,0-10.315-4.47,9.616,9.616,0,0,0-2.179.836c-.452.235-1.545,1.258-1.98,1.183-.472-.082-1.208-1.174-1.57-1.472a9.359,9.359,0,0,0-2.152-1.334,9.406,9.406,0,0,0-10.857,2.168,10.517,10.517,0,0,0-2.256-1.733,9.89,9.89,0,0,0-7.415-.617,13.919,13.919,0,0,0-5.69,3.588,18.515,18.515,0,0,0-1.948,2.543c-.231.351-.477.7-.688,1.066a1.143,1.143,0,0,1-.259.3,12.5,12.5,0,0,1-2.431-.078,10.155,10.155,0,0,0-3.057.557,8.322,8.322,0,0,0-4.375,3.561,11,11,0,0,0-1.263,5.82c.006.778.129,1.3-.522,1.807-.883.695-2.271.813-3.287,1.256-5.1,2.223-4.243,7.356-2.8,11.654a8.862,8.862,0,0,0-3.85,12.857,8.162,8.162,0,0,0,.987,12.316,8.67,8.67,0,0,0,3.2,12.328,6.92,6.92,0,0,0,6.6,10.691,6.473,6.473,0,0,0,2.264,5.151,5.979,5.979,0,0,0,1.51.906,6.509,6.509,0,0,0,3.535.4,6.947,6.947,0,0,0,2.042-.659,8.867,8.867,0,0,0,.878,1.024,8.54,8.54,0,0,0,4.645-1.782A1.74,1.74,0,0,1,366.672,383.609Z" transform="translate(-321.08 -231.041)" fill="#fff"/>
      <path id="패스_19532" data-name="패스 19532" d="M366.672,383.609a8.168,8.168,0,0,0,11.341,3.708,8.791,8.791,0,0,1,1.489-1.559c.168-.18.34-.356.521-.524a1.987,1.987,0,0,1,1.139-.546,8.569,8.569,0,0,1,11.7,4.052,3.778,3.778,0,0,0,4.834-2.947,1.747,1.747,0,0,1,2.551-1.038,6.583,6.583,0,0,0,10.5-3.548,1.761,1.761,0,0,1,2.551-1.038,4.917,4.917,0,0,0,7.048-5.379,1.824,1.824,0,0,1,1.785-2.171,1.739,1.739,0,0,1,1.408.067c1.419.674,3.068-.438,3.758-1.66.967-1.712.758-3.911.437-5.767s2.158-3.157,3.174-1.338c.449.8,1.668-1.635,1.785-1.884.5-1.072,2.448.388,4.7-2.073,3.134-3.047.625-4.147,2.942-4.915.027-.009.053-.014.08-.022a8.16,8.16,0,0,0,.719-2.2,8.962,8.962,0,0,0-1.922-7.248c-.5-.608-1.6-1.262-1.818-2.036-.242-.869.544-2.109.8-2.933a12.388,12.388,0,0,0,.453-2.314,13.515,13.515,0,0,0-4.977-11.915,12.481,12.481,0,0,0-13.151-16.167c-.671-6.031-7.241-9.595-12.987-7.09a9.175,9.175,0,0,0-10.315-4.47,9.616,9.616,0,0,0-2.179.836c-.452.235-1.545,1.258-1.98,1.183-.472-.082-1.208-1.174-1.57-1.472a9.359,9.359,0,0,0-2.152-1.334,9.406,9.406,0,0,0-10.857,2.168,10.517,10.517,0,0,0-2.256-1.733,9.89,9.89,0,0,0-7.415-.617,13.919,13.919,0,0,0-5.69,3.588,18.515,18.515,0,0,0-1.948,2.543c-.231.351-.477.7-.688,1.066a1.143,1.143,0,0,1-.259.3,12.5,12.5,0,0,1-2.431-.078,10.155,10.155,0,0,0-3.057.557,8.322,8.322,0,0,0-4.375,3.561,11,11,0,0,0-1.263,5.82c.006.778.129,1.3-.522,1.807-.883.695-2.271.813-3.287,1.256-5.1,2.223-4.243,7.356-2.8,11.654a8.862,8.862,0,0,0-3.85,12.857,8.162,8.162,0,0,0,.987,12.316,8.67,8.67,0,0,0,3.2,12.328,6.92,6.92,0,0,0,6.6,10.691,6.473,6.473,0,0,0,2.264,5.151,5.979,5.979,0,0,0,1.51.906,6.509,6.509,0,0,0,3.535.4,6.947,6.947,0,0,0,2.042-.659,8.867,8.867,0,0,0,.878,1.024,8.54,8.54,0,0,0,4.645-1.782A1.74,1.74,0,0,1,366.672,383.609Zm27.805-32.99a3.344,3.344,0,0,1,1.086-2.1,1.756,1.756,0,0,1,2.728.351c.745,1.649,1.122,4.513-1.051,5.282a2.151,2.151,0,0,1-2.707-1.51A4.487,4.487,0,0,1,394.478,350.619Zm-16.594,9.973,3.6-2.035c.295-.166.6-.359.909-.534l.211-2.957c-.022-.038-.042-.072-.05-.089-.045-.048-.115-.126-.126-.138a5.24,5.24,0,0,1-.638-.829,2.808,2.808,0,0,1-.3-2.144,2.61,2.61,0,0,1,1.5-1.631,4.116,4.116,0,0,1,1.049-.267h0a2.876,2.876,0,0,1,.783-.091h0l.132-.015a1.273,1.273,0,0,1,.761.148h0q.141.04.278.09a2.864,2.864,0,0,1,2.046,3.416,3.493,3.493,0,0,1-2.01,2.212l-.2,2.8.207.211c.942.96,1.829,1.981,2.741,2.969,1.515,1.641-.937,4.1-2.456,2.456l-1.827-1.98-.772-.836c-1.253.861-2.787,1.51-4.09,2.245C377.686,364.693,375.937,361.692,377.884,360.592ZM371.9,347.828a1.92,1.92,0,0,1,3.162,0,4.966,4.966,0,0,1,.624,2.809c-.119,1.264-.8,2.582-2.25,2.582s-2.085-1.358-2.17-2.6A5.4,5.4,0,0,1,371.9,347.828Z" transform="translate(-336.286 -297)" fill="#fff"/>
      <path id="패스_19536" data-name="패스 19536" d="M433.414,438.971c1.45,0,2.131-1.317,2.25-2.582a4.966,4.966,0,0,0-.624-2.809,1.92,1.92,0,0,0-3.162,0,5.4,5.4,0,0,0-.634,2.8C431.329,437.613,431.97,438.971,433.414,438.971Z" transform="translate(-396.265 -382.75)" fill="#050505"/>
      <path id="패스_19537" data-name="패스 19537" d="M496.9,441.675c2.172-.769,1.8-3.633,1.051-5.282a1.756,1.756,0,0,0-2.728-.351,3.343,3.343,0,0,0-1.086,2.1,4.488,4.488,0,0,0,.055,2.02A2.151,2.151,0,0,0,496.9,441.675Z" transform="translate(-435.945 -384.526)" fill="#050505"/>
      <path id="패스_19544" data-name="패스 19544" d="M2.851,9.085C5.023,7.943,4.646,3.691,3.9,1.242A1.474,1.474,0,0,0,1.174.72,6.041,6.041,0,0,0,.088,3.844a9.818,9.818,0,0,0,.055,3C.471,8.534,1.692,9.695,2.851,9.085Z" transform="matrix(-0.174, -0.985, 0.985, -0.174, 70.479, 62.335)" fill="#ffb1b1"/>
      <path id="패스_19545" data-name="패스 19545" d="M2.851.165C5.023,1.307,4.646,5.559,3.9,8.008a1.474,1.474,0,0,1-2.728.522A6.041,6.041,0,0,1,.088,5.405a9.82,9.82,0,0,1,.055-3C.471.715,1.692-.445,2.851.165Z" transform="matrix(0.174, -0.985, 0.985, 0.174, 18.421, 60.638)" fill="#ffb1b1"/>
      <path id="패스_19539" data-name="패스 19539" d="M416.45,538.608a8.027,8.027,0,0,1,.259-1.448,8.442,8.442,0,0,1,1.38-2.793,8.168,8.168,0,0,1-11.341-3.708,1.741,1.741,0,0,0-2.376-.623,8.539,8.539,0,0,1-4.645,1.782c.069.07.134.146.206.214q-.1,1.633-.2,3.266a11.258,11.258,0,0,0,4.947-1.33A11.667,11.667,0,0,0,416.45,538.608Z" transform="translate(-376.362 -444.051)" fill="#050505"/>
      <path id="패스_19540" data-name="패스 19540" d="M527.954,463.813c-1.016-1.819-3.494-.509-3.174,1.338s.53,4.055-.437,5.767c-.691,1.222-2.339,2.334-3.758,1.66a1.739,1.739,0,0,0-1.408-.067,1.824,1.824,0,0,0-1.785,2.171,4.917,4.917,0,0,1-7.048,5.379,1.761,1.761,0,0,0-2.551,1.038,6.583,6.583,0,0,1-10.5,3.548,1.747,1.747,0,0,0-2.551,1.038,3.778,3.778,0,0,1-4.834,2.947,7.654,7.654,0,0,1,.674,3.606,7.453,7.453,0,0,0,6.678-3.576,10.074,10.074,0,0,0,13.24-4.894,8.386,8.386,0,0,0,10.406-7.608,6.6,6.6,0,0,0,5.649-2.381,9.172,9.172,0,0,0,1.91-6.463A12.4,12.4,0,0,0,527.954,463.813Z" transform="translate(-433.331 -396.894)" fill="#050505"/>
      <path id="패스_19541" data-name="패스 19541" d="M461.572,537.521a8.569,8.569,0,0,0-11.7-4.052,1.987,1.987,0,0,0-1.139.546c-.181.168-.353.344-.521.525a8.786,8.786,0,0,0-1.489,1.559,8.441,8.441,0,0,0-1.38,2.793,8.018,8.018,0,0,0-.259,1.448,7.194,7.194,0,0,0,2.475,6.239q.241.2.492.371l.011.011c3.925,3.586,10.119,2.117,12.921-2.107a7.519,7.519,0,0,0,1.267-3.725A7.657,7.657,0,0,0,461.572,537.521Zm-5.613,5.168a11.551,11.551,0,0,1-7.107.012c-2.124-.68-1.21-4.033.923-3.349a8.275,8.275,0,0,0,5.26-.012C457.17,538.647,458.076,542,455.959,542.689Z" transform="translate(-404.992 -445.782)" fill="#ffc53a"/>
      <path id="패스_19542" data-name="패스 19542" d="M459.486,550.865a8.275,8.275,0,0,1-5.26.012c-2.134-.683-3.047,2.669-.923,3.349a11.551,11.551,0,0,0,7.107-.012C462.527,553.528,461.621,550.173,459.486,550.865Z" transform="translate(-409.443 -457.308)" fill="#050505"/>
      <g id="그룹_53605" data-name="그룹 53605" transform="matrix(0.951, 0.309, -0.309, 0.951, 92.692, 86.451)">
        <rect id="사각형_29519" data-name="사각형 29519" width="14.497" height="17.283" transform="translate(-57.402 -18.447)" fill="#fff"/>
        <g id="그룹_53606" data-name="그룹 53606" transform="translate(-57.241 -15.013)">
          <g id="그룹_53476" data-name="그룹 53476" transform="translate(5.236)">
            <path id="패스_20074" data-name="패스 20074" d="M2321.7,962.125a1.082,1.082,0,0,1-1.048-.818l-1.545-6.12a1.082,1.082,0,0,1,2.1-.528l1.544,6.12a1.082,1.082,0,0,1-.784,1.313A1.1,1.1,0,0,1,2321.7,962.125Z" transform="translate(-2319.078 -953.841)" fill="#050505" stroke="#050505" stroke-width="0.2"/>
          </g>
          <g id="그룹_53478" data-name="그룹 53478" transform="translate(0 4.642)">
            <g id="그룹_53477" data-name="그룹 53477">
              <path id="패스_20075" data-name="패스 20075" d="M2304.174,976.821a5.615,5.615,0,0,1-3.263-1.056,1.082,1.082,0,1,1,1.257-1.761,3.4,3.4,0,0,0,2.819.551,3.353,3.353,0,0,0,2.2-1.819c.032-.066.071-.134.111-.2a1.114,1.114,0,0,1,.75-.661,1.092,1.092,0,0,1,.968.205,2.319,2.319,0,0,1,.226.141,3.36,3.36,0,0,0,2.8.557,3.414,3.414,0,0,0,2.219-1.823,1.082,1.082,0,0,1,1.943.955,5.578,5.578,0,0,1-3.633,2.967,5.443,5.443,0,0,0-7.048,1.778A5.467,5.467,0,0,1,2304.174,976.821Z" transform="translate(-2300.457 -970.351)" fill="#050505" stroke="#050505" stroke-width="0.2"/>
            </g>
          </g>
        </g>
        <g id="그룹_53607" data-name="그룹 53607" transform="translate(-54.273 -16.619)">
          <path id="패스_20076" data-name="패스 20076" d="M2316.644,952.172l-.986.672a2.212,2.212,0,0,1-1.478.373l-1.187-.124a2.213,2.213,0,0,1-1.916-1.661h0a2.214,2.214,0,0,1,1.6-2.689l2.172-.548a2.214,2.214,0,0,1,2.689,1.606h0A2.213,2.213,0,0,1,2316.644,952.172Z" transform="translate(-2311.009 -948.128)" fill="#050505"/>
        </g>
      </g>
    </g>
  </g>
</svg>
