<svg
    xmlns="http://www.w3.org/2000/svg"
    viewBox="0 0 70 72"
    id="vector">
    <path
        id="path"
        d="M 15.072 52.806 L 10.916 56.962 C 10.493 57.388 10.256 57.964 10.257 58.565 C 10.258 59.165 10.497 59.741 10.921 60.165 C 11.345 60.589 11.921 60.828 12.521 60.829 C 13.122 60.83 13.698 60.593 14.124 60.17 L 18.281 56.014 C 18.696 55.586 18.926 55.012 18.922 54.417 C 18.917 53.821 18.678 53.25 18.257 52.829 C 17.836 52.408 17.265 52.169 16.669 52.165 C 16.073 52.16 15.499 52.391 15.072 52.806 Z"
        fill="#ffd81c"
        stroke="#f8c000"
        stroke-width="2"/>
    <path
        id="path_1"
        d="M 32.59 61.764 L 32.59 67.641 C 32.592 68.241 32.832 68.817 33.257 69.24 C 33.682 69.664 34.258 69.902 34.858 69.902 C 35.459 69.902 36.035 69.664 36.46 69.24 C 36.885 68.817 37.125 68.241 37.127 67.641 L 37.128 61.763 C 37.126 61.163 36.886 60.587 36.461 60.163 C 36.035 59.74 35.459 59.502 34.859 59.502 C 34.258 59.502 33.682 59.74 33.257 60.164 C 32.832 60.588 32.592 61.164 32.59 61.764 Z"
        fill="#ffd81c"
        stroke="#f8c000"
        stroke-width="2"/>
    <path
        id="path_2"
        d="M 32.59 4.764 L 32.59 10.641 C 32.592 11.241 32.832 11.817 33.257 12.24 C 33.682 12.664 34.258 12.902 34.858 12.902 C 35.459 12.902 36.035 12.664 36.46 12.24 C 36.885 11.817 37.125 11.241 37.127 10.641 L 37.128 4.763 C 37.126 4.163 36.886 3.587 36.461 3.163 C 36.035 2.74 35.459 2.502 34.859 2.502 C 34.258 2.502 33.682 2.74 33.257 3.164 C 32.832 3.588 32.592 4.164 32.59 4.764 Z"
        fill="#ffd81c"
        stroke="#f8c000"
        stroke-width="2"/>
    <path
        id="path_3"
        d="M 11.416 36.23 C 11.416 35.629 11.176 35.051 10.751 34.626 C 10.326 34.201 9.748 33.961 9.147 33.961 L 3.267 33.961 C 2.674 33.973 2.109 34.218 1.693 34.642 C 1.278 35.066 1.046 35.636 1.046 36.23 C 1.046 36.823 1.278 37.393 1.693 37.817 C 2.109 38.241 2.674 38.486 3.267 38.498 L 9.147 38.498 C 9.748 38.498 10.326 38.259 10.751 37.833 C 11.176 37.408 11.415 36.831 11.416 36.23 Z"
        fill="#ffd81c"
        stroke="#f8c000"
        stroke-width="2"/>
    <path
        id="path_4"
        d="M 15.072 19.651 C 15.498 20.074 16.075 20.311 16.675 20.311 C 17.275 20.31 17.851 20.07 18.276 19.646 C 18.7 19.221 18.94 18.645 18.941 18.045 C 18.941 17.445 18.704 16.868 18.281 16.442 L 14.124 12.285 C 13.698 11.862 13.122 11.625 12.521 11.626 C 11.921 11.627 11.345 11.866 10.921 12.29 C 10.497 12.714 10.258 13.29 10.257 13.89 C 10.256 14.491 10.493 15.067 10.916 15.493 Z"
        fill="#ffd81c"
        stroke="#f8c000"
        stroke-width="2"/>
    <path
        id="path_5"
        d="M 58.799 12.288 C 58.518 12.007 58.168 11.805 57.785 11.702 C 57.401 11.599 56.997 11.599 56.613 11.702 C 56.23 11.805 55.88 12.007 55.599 12.288 L 51.442 16.445 C 51.02 16.87 50.783 17.445 50.784 18.044 C 50.785 18.642 51.024 19.217 51.447 19.64 C 51.87 20.063 52.445 20.302 53.043 20.303 C 53.642 20.304 54.217 20.067 54.642 19.645 L 58.799 15.487 C 59.08 15.206 59.282 14.857 59.385 14.473 C 59.488 14.09 59.488 13.685 59.385 13.302 C 59.282 12.918 59.08 12.569 58.799 12.288 Z"
        fill="#ffd81c"
        stroke="#f8c000"
        stroke-width="2"/>
    <path
        id="path_6"
        d="M 66.455 33.969 L 60.576 33.969 C 60.092 33.959 59.618 34.104 59.223 34.384 C 58.828 34.663 58.533 35.062 58.381 35.522 C 58.23 35.981 58.23 36.478 58.381 36.937 C 58.533 37.397 58.828 37.796 59.223 38.075 C 59.618 38.355 60.092 38.5 60.576 38.49 L 66.455 38.49 C 66.939 38.5 67.413 38.355 67.808 38.075 C 68.203 37.796 68.498 37.397 68.65 36.937 C 68.801 36.478 68.801 35.981 68.65 35.522 C 68.498 35.062 68.203 34.663 67.808 34.384 C 67.413 34.104 66.939 33.959 66.455 33.969 Z"
        fill="#ffd81c"
        stroke="#f8c000"
        stroke-width="2"/>
    <path
        id="path_7"
        d="M 54.642 52.817 C 54.305 52.477 53.868 52.254 53.395 52.178 C 52.922 52.102 52.438 52.178 52.011 52.395 C 51.584 52.612 51.237 52.959 51.02 53.386 C 50.803 53.813 50.727 54.297 50.803 54.77 C 50.879 55.243 51.102 55.68 51.442 56.017 L 55.599 60.174 C 55.936 60.514 56.373 60.737 56.846 60.813 C 57.319 60.889 57.803 60.813 58.23 60.596 C 58.657 60.379 59.004 60.032 59.221 59.605 C 59.438 59.178 59.514 58.694 59.438 58.221 C 59.362 57.748 59.139 57.311 58.799 56.974 Z"
        fill="#ffd81c"
        stroke="#f8c000"
        stroke-width="2"/>
    <path
        id="path_8"
        d="M 34.859 36.371 M 14.859 36.371 C 14.859 31.069 16.968 25.978 20.717 22.229 C 24.466 18.48 29.557 16.371 34.859 16.371 C 40.161 16.371 45.252 18.48 49.001 22.229 C 52.75 25.978 54.859 31.069 54.859 36.371 C 54.859 41.673 52.75 46.764 49.001 50.513 C 45.252 54.262 40.161 56.371 34.859 56.371 C 29.557 56.371 24.466 54.262 20.717 50.513 C 16.968 46.764 14.859 41.673 14.859 36.371"
        fill="#ffd81c"
        stroke="#00000000"
        stroke-width="2"/>
    <path
        id="path_9"
        d="M 34.859 36.371 M 15.859 36.371 C 15.859 32.359 17.13 28.449 19.488 25.203 C 21.846 21.957 25.172 19.541 28.988 18.301 C 32.803 17.061 36.915 17.061 40.73 18.301 C 44.546 19.541 47.872 21.957 50.23 25.203 C 52.588 28.449 53.859 32.359 53.859 36.371 C 53.859 40.383 52.588 44.293 50.23 47.539 C 47.872 50.785 44.546 53.201 40.73 54.441 C 36.915 55.681 32.803 55.681 28.988 54.441 C 25.172 53.201 21.846 50.785 19.488 47.539 C 17.13 44.293 15.859 40.383 15.859 36.371"
        fill="#00000000"
        stroke="#f8c000"
        stroke-width="2"/>
</svg>
