<svg xmlns="http://www.w3.org/2000/svg" width="24" height="32" viewBox="0 0 24 32">
  <g id="marker_start" fill="#4783f5">
    <path d="M 12 31.50001525878906 C 11.66678047180176 31.50001525878906 11.36711978912354 31.34320640563965 11.17786026000977 31.06979560852051 C 9.557539939880371 28.72080612182617 8.193719863891602 26.77790641784668 6.990439891815186 25.06371688842773 C 4.279439926147461 21.20162582397461 2.643100023269653 18.87048530578613 1.69379997253418 17.02923583984375 C 0.8123999834060669 15.31965637207031 0.5 14.00358581542969 0.5 11.99999618530273 C 0.5 8.928225517272949 1.696210026741028 6.040326118469238 3.868259906768799 3.868265867233276 C 6.040319919586182 1.696205973625183 8.928230285644531 0.4999959468841553 12 0.4999959468841553 C 15.07176971435547 0.4999959468841553 17.95968055725098 1.696205973625183 20.13174057006836 3.868265867233276 C 22.30378913879395 6.040326118469238 23.5 8.928225517272949 23.5 11.99999618530273 C 23.5 14.00359630584717 23.18759918212891 15.31966590881348 22.30619049072266 17.02924537658691 C 21.35688972473145 18.87050628662109 19.72053909301758 21.2016658782959 17.00951957702637 25.06377601623535 C 15.80624961853027 26.77794647216797 14.44244003295898 28.7208251953125 12.82166957855225 31.07046508789062 C 12.63286972045898 31.34320640563965 12.33320999145508 31.50001525878906 12 31.50001525878906 Z" stroke="none"/>
    <path d="M 12 31.00001525878906 C 12.0979700088501 31.00001525878906 12.28164958953857 30.97210502624512 12.41009044647217 30.78656578063965 C 14.03203010559082 28.43523597717285 15.39645957946777 26.4914665222168 16.60028076171875 24.77651596069336 C 22.02289962768555 17.05143547058105 23 15.65946578979492 23 11.99999618530273 C 23 9.061785697937012 21.85580062866211 6.299436092376709 19.77817916870117 4.221816062927246 C 17.70055961608887 2.144196033477783 14.93822002410889 0.9999959468841553 12 0.9999959468841553 C 9.061779975891113 0.9999959468841553 6.299439907073975 2.144196033477783 4.221819877624512 4.221816062927246 C 2.144200086593628 6.299436092376709 1 9.061785697937012 1 11.99999618530273 C 1 15.65945625305176 1.977090001106262 17.05142593383789 7.399680137634277 24.77644538879395 C 8.603509902954102 26.49142646789551 9.967949867248535 28.43520545959473 11.58897018432617 30.78520584106445 C 11.71835041046143 30.97210502624512 11.9020299911499 31.00001525878906 12 31.00001525878906 M 12.00000190734863 32.00001525878906 C 11.53229713439941 32.00001525878906 11.06472682952881 31.78483772277832 10.76675033569336 31.3543758392334 C 1.685629963874817 18.1894359588623 -1.77635683940025e-15 16.83831596374512 -1.77635683940025e-15 11.99999618530273 C -1.77635683940025e-15 5.372565746307373 5.372560024261475 -4.038696260977304e-06 12 -4.038696260977304e-06 C 18.62743949890137 -4.038696260977304e-06 24 5.372565746307373 24 11.99999618530273 C 24 16.83831596374512 22.31438064575195 18.1894359588623 13.23324966430664 31.3543758392334 C 12.93531608581543 31.78476333618164 12.46759223937988 32.00001525878906 12.00000190734863 32.00001525878906 Z" stroke="none" fill="#2057bf"/>
  </g>
</svg>
