<svg xmlns="http://www.w3.org/2000/svg" width="12" height="12" viewBox="0 0 12 12">
  <g id="marker_poop" transform="translate(-160 -509)">
    <rect id="area" width="12" height="12" transform="translate(160 509)" fill="none"/>
    <path id="Icon_awesome-poo" data-name="Icon awesome-poo" d="M10.58,8.651A1.682,1.682,0,0,0,9.563,5.625h-.33A1.494,1.494,0,0,0,8.25,3H8.112a2.217,2.217,0,0,0,.138-.75A2.251,2.251,0,0,0,6,0a2.182,2.182,0,0,0-.354.035A1.87,1.87,0,0,1,4.125,3H3.75a1.494,1.494,0,0,0-.982,2.625h-.33A1.682,1.682,0,0,0,1.42,8.651,1.685,1.685,0,0,0,1.688,12h8.625a1.685,1.685,0,0,0,.267-3.349ZM4.5,6a.75.75,0,1,1-.75.75A.749.749,0,0,1,4.5,6ZM8.238,9.258a2.638,2.638,0,0,1-4.477,0A.192.192,0,0,1,3.945,9H8.055A.192.192,0,0,1,8.238,9.258ZM7.5,7.5a.75.75,0,1,1,.75-.75A.749.749,0,0,1,7.5,7.5Z" transform="translate(160 509)" fill="#fff"/>
  </g>
</svg>
