<svg xmlns="http://www.w3.org/2000/svg" width="16" height="16" viewBox="0 0 16 16">
  <g id="icon_poop" transform="translate(-160 -509)">
    <rect id="area" width="16" height="16" transform="translate(160 509)" fill="none"/>
    <path id="Icon_awesome-poo" data-name="Icon awesome-poo" d="M14.106,11.534A2.243,2.243,0,0,0,12.75,7.5h-.441A1.992,1.992,0,0,0,11,4h-.184A2.957,2.957,0,0,0,11,3,3,3,0,0,0,8,0a2.909,2.909,0,0,0-.472.047A2.493,2.493,0,0,1,5.5,4H5A1.992,1.992,0,0,0,3.691,7.5H3.25a2.243,2.243,0,0,0-1.356,4.034A2.247,2.247,0,0,0,2.25,16h11.5a2.247,2.247,0,0,0,.356-4.466ZM6,8A1,1,0,1,1,5,9,1,1,0,0,1,6,8Zm4.984,4.344a3.517,3.517,0,0,1-5.969,0A.256.256,0,0,1,5.259,12h5.481a.256.256,0,0,1,.244.344ZM10,10a1,1,0,1,1,1-1A1,1,0,0,1,10,10Z" transform="translate(160 509)" fill="#956a5c"/>
  </g>
</svg>
