<svg width="44" height="44" viewBox="0 0 44 44" fill="none" xmlns="http://www.w3.org/2000/svg">
<path d="M22.3699 30.4346C26.8242 30.4346 30.4351 26.8237 30.4351 22.3694C30.4351 17.9151 26.8242 14.3042 22.3699 14.3042C17.9156 14.3042 14.3047 17.9151 14.3047 22.3694C14.3047 26.8237 17.9156 30.4346 22.3699 30.4346Z" stroke="#5E6D7B" stroke-width="2"/>
<path d="M22.3698 24.6736C23.6424 24.6736 24.6741 23.6419 24.6741 22.3693C24.6741 21.0966 23.6424 20.0649 22.3698 20.0649C21.0971 20.0649 20.0654 21.0966 20.0654 22.3693C20.0654 23.6419 21.0971 24.6736 22.3698 24.6736Z" fill="#5E6D7B"/>
<path d="M28.7065 22.3696H32.7391M22.3696 32.7392V28.7066M12 22.3696H16.0326" stroke="#5E6D7B" stroke-linecap="round"/>
<path d="M23.3248 17.797C22.9275 18.3764 22.0725 18.3764 21.6752 17.797L15.346 8.56547C14.8911 7.90186 15.3662 7 16.1708 7L28.8292 7C29.6338 7 30.1089 7.90186 29.654 8.56547L23.3248 17.797Z" fill="url(#paint0_linear_1728_7018)"/>
<defs>
<linearGradient id="paint0_linear_1728_7018" x1="22.5" y1="8.71429" x2="22.5" y2="13.8571" gradientUnits="userSpaceOnUse">
<stop stop-color="white" stop-opacity="0"/>
<stop offset="1" stop-color="#5E6D7B"/>
</linearGradient>
</defs>
</svg>
