<svg xmlns="http://www.w3.org/2000/svg" width="16" height="16" viewBox="0 0 16 16">
  <g id="input_calendar" transform="translate(-12 -16)">
    <rect id="area" width="16" height="16" transform="translate(12 16)" fill="none"/>
    <path id="Icon_awesome-calendar-alt" data-name="Icon awesome-calendar-alt" d="M0,12.889a1.334,1.334,0,0,0,1.333,1.333h9.778a1.334,1.334,0,0,0,1.333-1.333V5.333H0ZM8.889,7.444a.334.334,0,0,1,.333-.333h1.111a.334.334,0,0,1,.333.333V8.556a.334.334,0,0,1-.333.333H9.222a.334.334,0,0,1-.333-.333Zm0,3.556a.334.334,0,0,1,.333-.333h1.111a.334.334,0,0,1,.333.333v1.111a.334.334,0,0,1-.333.333H9.222a.334.334,0,0,1-.333-.333ZM5.333,7.444a.334.334,0,0,1,.333-.333H6.778a.334.334,0,0,1,.333.333V8.556a.334.334,0,0,1-.333.333H5.667a.334.334,0,0,1-.333-.333Zm0,3.556a.334.334,0,0,1,.333-.333H6.778A.334.334,0,0,1,7.111,11v1.111a.334.334,0,0,1-.333.333H5.667a.334.334,0,0,1-.333-.333ZM1.778,7.444a.334.334,0,0,1,.333-.333H3.222a.334.334,0,0,1,.333.333V8.556a.334.334,0,0,1-.333.333H2.111a.334.334,0,0,1-.333-.333Zm0,3.556a.334.334,0,0,1,.333-.333H3.222A.334.334,0,0,1,3.556,11v1.111a.334.334,0,0,1-.333.333H2.111a.334.334,0,0,1-.333-.333Zm9.333-9.222H9.778V.444A.446.446,0,0,0,9.333,0H8.444A.446.446,0,0,0,8,.444V1.778H4.444V.444A.446.446,0,0,0,4,0H3.111a.446.446,0,0,0-.444.444V1.778H1.333A1.334,1.334,0,0,0,0,3.111V4.444H12.444V3.111A1.334,1.334,0,0,0,11.111,1.778Z" transform="translate(13.911 16.889)" fill="#737980"/>
  </g>
</svg>
