<svg width="162" height="162" viewBox="0 0 162 162" fill="none" xmlns="http://www.w3.org/2000/svg">
<mask id="mask0_1741_7134" style="mask-type:luminance" maskUnits="userSpaceOnUse" x="0" y="0" width="162" height="162">
<path d="M81 162C125.735 162 162 125.735 162 81C162 36.2649 125.735 0 81 0C36.2649 0 0 36.2649 0 81C0 125.735 36.2649 162 81 162Z" fill="white"/>
</mask>
<g mask="url(#mask0_1741_7134)">
<path d="M81 162C125.735 162 162 125.735 162 81C162 36.2649 125.735 0 81 0C36.2649 0 0 36.2649 0 81C0 125.735 36.2649 162 81 162Z" fill="#4783F5"/>
<path d="M131.1 225.676L123.51 231.856C123.51 231.856 97.3297 243.066 51.9397 231.806L46.3097 223.816C46.3097 223.816 40.1597 177.396 42.5897 155.876C45.0197 134.356 50.0597 121.586 50.0597 121.586L51.3997 118.186L107.47 117.076C107.47 117.076 111.53 128.736 112.86 131.746C115.92 138.636 121.36 152.226 124.05 166.396C128.59 190.306 125.13 197.156 126.88 205.516C129.36 217.356 131.09 225.686 131.09 225.686L131.1 225.676Z" fill="white"/>
<path d="M113.56 133.356C97.7802 133.956 89.8302 151.456 104.58 161.426C108.95 164.386 119.13 165.366 124.58 163.596C121.68 150.156 116.95 139.966 113.55 133.356H113.56Z" fill="#F7B177"/>
<path d="M49.6109 121.036C49.6109 121.036 68.5009 122.186 107.081 121.176C109.351 121.116 111.381 122.566 112.061 124.736L112.361 125.716C112.801 127.116 113.311 130.496 111.911 130.926C103.451 133.556 75.2409 142.256 50.2809 129.466C48.9509 128.786 47.6309 128.486 47.6309 125.876C47.6309 123.266 49.6109 121.046 49.6109 121.046V121.036Z" fill="#FF7878"/>
<path d="M108.47 124.706C94.8999 130.286 68.2799 129.516 57.7799 125.576C47.4199 121.816 22.5599 108.266 31.6499 66.3756C32.8499 60.8256 34.6499 54.7956 37.1599 48.2056C37.1599 48.2056 41.4199 32.9856 47.8099 29.4756C53.0099 26.6156 58.0199 37.2356 59.1399 45.7656C59.3999 47.7056 59.5199 48.9156 59.5199 48.9156C59.5199 48.9156 69.6799 47.9456 91.4699 48.4356C95.8799 48.5156 100.79 48.6756 106.17 48.9156C106.17 48.9156 117.42 32.9756 122.54 34.3856C127.65 35.7856 129.18 58.0456 129.18 58.0456C129.18 58.0456 132.14 66.4856 133.68 77.4656C136.39 96.9856 124.71 118.046 108.49 124.716L108.47 124.706Z" fill="white"/>
<path d="M129.171 58.0357C129.171 58.0357 127.641 35.7857 122.531 34.3757C117.421 32.9757 106.161 48.9057 106.161 48.9057C100.781 48.6657 95.8709 48.5157 91.4609 48.4257C86.6409 61.2457 84.2609 78.3457 99.7809 86.6357C113.701 94.0657 126.341 87.4557 133.661 77.4457C132.131 66.4657 129.161 58.0257 129.161 58.0257L129.171 58.0357Z" fill="#F7B177"/>
<path d="M64.1009 75.3257C65.559 75.3257 66.7409 73.9243 66.7409 72.1957C66.7409 70.467 65.559 69.0657 64.1009 69.0657C62.6429 69.0657 61.4609 70.467 61.4609 72.1957C61.4609 73.9243 62.6429 75.3257 64.1009 75.3257Z" fill="#211F20"/>
<path d="M98.8002 76.1855C100.258 76.1855 101.44 74.7842 101.44 73.0555C101.44 71.3269 100.258 69.9255 98.8002 69.9255C97.3421 69.9255 96.1602 71.3269 96.1602 73.0555C96.1602 74.7842 97.3421 76.1855 98.8002 76.1855Z" fill="#211F20"/>
<path d="M88.9809 90.0057C88.0909 94.8757 82.9909 92.2457 82.0009 89.0157C81.6909 87.9957 81.6009 86.9657 81.6309 85.9257C81.7009 85.3657 81.7509 84.7957 81.7809 84.2357C82.0409 82.5357 82.5609 80.8557 83.0409 79.2657C83.4009 78.0857 81.9509 77.4957 81.3209 78.2857C80.7209 77.8957 79.7709 78.1757 79.8009 79.1657C79.8609 80.8357 79.9209 82.5557 79.8309 84.2657C79.7609 84.7757 79.7209 85.2757 79.6909 85.7857C79.4809 87.4257 79.0809 89.0157 78.2909 90.4657C77.3809 92.1457 75.9509 93.5257 74.1809 93.9357C71.9109 94.4557 69.3709 92.8557 69.1509 90.1657C69.0409 88.7657 67.0409 88.7557 67.1509 90.1657C67.5409 95.0157 72.3709 97.5757 76.2709 95.4857C78.2809 94.4057 79.5909 92.7157 80.4309 90.7257C80.8809 91.7957 81.5509 92.7757 82.5209 93.6057C85.4209 96.0757 90.1409 94.7757 90.9009 90.5957C91.1509 89.2157 89.2209 88.6257 88.9709 90.0157L88.9809 90.0057Z" fill="#211F20"/>
<path d="M86.3591 78.1456C86.3591 79.8856 84.1591 82.5356 81.4491 82.5356C78.7391 82.5356 76.5391 79.8856 76.5391 78.1456C76.5391 76.4056 78.7391 74.9856 81.4491 74.9856C84.1591 74.9856 86.3591 76.3956 86.3591 78.1456Z" fill="#FF9292"/>
<path d="M47.8006 29.4855C41.4106 32.9955 37.1506 48.2155 37.1506 48.2155C34.6506 54.8055 32.8406 60.8355 31.6406 66.3855C42.3906 65.0255 52.2806 58.6255 57.9806 48.0855C58.3806 47.3555 58.7606 46.5855 59.1306 45.7655C58.0106 37.2455 53.0006 26.6155 47.8006 29.4755V29.4855Z" fill="#BCB5B5"/>
<path d="M118 90.1556C118 90.1556 132.36 84.5056 147.37 87.5356" stroke="#211F20" stroke-width="2.2" stroke-miterlimit="10" stroke-linecap="round"/>
<path d="M121.67 98.8257C121.67 98.8257 132.99 99.1257 139.81 106.816" stroke="#211F20" stroke-width="2.2" stroke-miterlimit="10" stroke-linecap="round"/>
<path d="M44.37 83.1256C44.37 83.1256 30.01 77.4756 15 80.5056" stroke="#211F20" stroke-width="2.2" stroke-miterlimit="10" stroke-linecap="round"/>
<path d="M40.7005 91.7957C40.7005 91.7957 29.3805 92.0957 22.5605 99.7857" stroke="#211F20" stroke-width="2.2" stroke-miterlimit="10" stroke-linecap="round"/>
<path d="M111.87 49.6956C111.87 49.6956 116.34 40.6256 119.57 41.5656C122.8 42.5056 124.31 50.3056 122.7 55.1956C121.87 57.7256 116.7 54.8656 113.83 53.5656C110.96 52.2656 111.22 51.1156 111.87 49.7056V49.6956Z" fill="#FFCACA"/>
<path d="M54.6507 46.9856C54.6507 46.9856 53.4807 37.6756 50.1207 37.4856C46.7607 37.2856 42.8607 44.0056 42.7407 49.1556C42.6807 51.8156 48.4607 50.6756 51.5107 49.9756C54.5607 49.2756 54.7907 48.5456 54.6507 46.9856Z" fill="#FFCACA"/>
<path d="M50.6909 120.096C48.8509 118.516 45.3009 116.216 42.9309 114.946C41.4909 114.176 40.2609 113.496 38.7109 114.206C38.0309 114.516 37.4409 115.026 36.8909 115.606C36.8909 115.606 34.2909 118.236 32.7409 127.246C32.0309 131.366 33.1009 137.056 37.7509 136.186C41.9009 135.416 45.9809 132.506 49.2809 129.236C49.2809 129.236 48.2209 127.446 50.6909 120.096Z" fill="#FF9292"/>
<path d="M58.4208 122.486C57.4508 118.636 53.2508 116.736 50.6908 120.096C48.2208 127.446 49.2808 129.236 49.2808 129.236C49.4708 129.916 49.7208 130.556 50.0908 131.066C50.8308 132.086 51.9608 132.566 53.1108 132.576C53.4608 126.736 58.4208 122.476 58.4208 122.476V122.486Z" fill="#FF7878"/>
<path d="M71.4016 133.336C71.8616 131.116 72.9816 128.076 72.1716 125.836C71.4316 123.786 69.6716 123.426 67.9416 123.046C65.2216 122.456 62.4516 122.226 58.4116 122.476C58.4116 122.476 53.4516 126.736 53.1016 132.576C53.8716 135.666 55.3116 138.456 57.4916 140.596C60.6216 143.676 65.4316 145.066 68.6216 141.026C68.8116 140.786 68.9716 140.516 69.1216 140.246C70.7816 136.266 71.2916 133.826 71.2916 133.826C71.3216 133.656 71.3616 133.496 71.4016 133.326V133.336Z" fill="#FF9292"/>
</g>
</svg>
