<svg xmlns="http://www.w3.org/2000/svg" version="1.1" width="3300" height="2000"><g id="Notes"><style>
    text {
      font-family: monospace;
      text-anchor: middle;
    }
    text.emphasis {
      font-weight:bold;
    }
    text.lanchor {
      text-anchor: start;
    }
  </style><rect height="2200" id="artboard" fill="white" width="3300" x="0" y="0"/><line id="" style="fill:none;stroke:black;stroke-width:0.5;" x1="263" x2="3036" y1="292" y2="292"/><text class="lanchor emphasis" transform="matrix(1 0 0 1 263 322)">Weight/Scale Variations</text><text transform="matrix(1 0 0 1 559.711 322)">Ultralight</text><text transform="matrix(1 0 0 1 856.422 322)">Thin</text><text transform="matrix(1 0 0 1 1153.13 322)">Light</text><text transform="matrix(1 0 0 1 1449.84 322)">Regular</text><text transform="matrix(1 0 0 1 1746.56 322)">Medium</text><text transform="matrix(1 0 0 1 2043.27 322)">Semibold</text><text transform="matrix(1 0 0 1 2339.98 322)">Bold</text><text transform="matrix(1 0 0 1 2636.69 322)">Heavy</text><text transform="matrix(1 0 0 1 2933.4 322)">Black</text><text id="template-version" style="text-anchor: end;" transform="matrix(1 0 0 1 3036 1933)">Template v.1.0</text><text class="lanchor" transform="matrix(1 0 0 1 263 726)">Small</text><text class="lanchor" transform="matrix(1 0 0 1 263 1156)">Medium</text><text class="lanchor" transform="matrix(1 0 0 1 263 1586)">Large</text></g><g id="Guides"><g id="H-reference" style="fill:#27AAE1;stroke:none;" transform="matrix(1 0 0 1 339 696)"><path d="M 54.9316 0 L 57.666 0 L 30.5664 -70.459 L 28.0762 -70.459 L 0.976562 0 L 3.66211 0 L 12.9395 -24.4629 L 45.7031 -24.4629 Z M 29.1992 -67.0898 L 29.4434 -67.0898 L 44.8242 -26.709 L 13.8184 -26.709 Z"/></g><line id="Baseline-S" style="fill:none;stroke:#27AAE1;opacity:1;stroke-width:0.577;" x1="263" x2="3036" y1="696" y2="696"/><line id="Capline-S" style="fill:none;stroke:#27AAE1;opacity:1;stroke-width:0.577;" x1="263" x2="3036" y1="625.541" y2="625.541"/><g id="H-reference" style="fill:#27AAE1;stroke:none;" transform="matrix(1 0 0 1 339 1126)"><path d="M 54.9316 0 L 57.666 0 L 30.5664 -70.459 L 28.0762 -70.459 L 0.976562 0 L 3.66211 0 L 12.9395 -24.4629 L 45.7031 -24.4629 Z M 29.1992 -67.0898 L 29.4434 -67.0898 L 44.8242 -26.709 L 13.8184 -26.709 Z"/></g><line id="Baseline-M" style="fill:none;stroke:#27AAE1;opacity:1;stroke-width:0.577;" x1="263" x2="3036" y1="1126" y2="1126"/><line id="Capline-M" style="fill:none;stroke:#27AAE1;opacity:1;stroke-width:0.577;" x1="263" x2="3036" y1="1055.54" y2="1055.54"/><g id="H-reference" style="fill:#27AAE1;stroke:none;" transform="matrix(1 0 0 1 339 1556)"><path d="M 54.9316 0 L 57.666 0 L 30.5664 -70.459 L 28.0762 -70.459 L 0.976562 0 L 3.66211 0 L 12.9395 -24.4629 L 45.7031 -24.4629 Z M 29.1992 -67.0898 L 29.4434 -67.0898 L 44.8242 -26.709 L 13.8184 -26.709 Z"/></g><line id="Baseline-L" style="fill:none;stroke:#27AAE1;opacity:1;stroke-width:0.577;" x1="263" x2="3036" y1="1556" y2="1556"/><line id="Capline-L" style="fill:none;stroke:#27AAE1;opacity:1;stroke-width:0.577;" x1="263" x2="3036" y1="1485.54" y2="1485.54"/><rect height="119.336" id="left-margin" style="fill:darkred;stroke:none;opacity:0.4;" width="12.4512" x="1394.06" y="1030.79"/><rect height="119.336" id="right-margin" style="fill:darkgreen;stroke:none;opacity:0.4;" width="12.4512" x="1502.5112" y="1030.79"/><rect x="1406.5112" y="1045" width="96" height="96" fill="none" stroke="blue" stroke-dasharray="5"/><rect x="1394.06" y="1030.79" width="120.9024" height="119.336" fill="none" stroke="blue"/></g><g id="Symbols"><g id="Bold-L" transform="matrix(1 0 0 1 2266 1556)"><path d="M77.485 20.885 Q73.53 20.885 70.869 18.175 Q68.209 15.464 68.209 11.658 Q68.209 7.937 70.85 5.058 Q73.491 2.18 77.315 2.18 Q81.27 2.18 83.931 5.05 Q86.591 7.921 86.591 11.662 Q86.591 15.403 83.958 18.144 Q81.325 20.885 77.485 20.885 Z M77.485 -26.039 Q73.53 -26.039 70.869 -28.68 Q68.209 -31.321 68.209 -35.145 Q68.209 -39.1 70.85 -41.761 Q73.491 -44.421 77.315 -44.421 Q81.27 -44.421 83.931 -41.788 Q86.591 -39.155 86.591 -35.315 Q86.591 -31.36 83.958 -28.699 Q81.325 -26.039 77.485 -26.039 Z M77.485 -72.64 Q73.53 -72.64 70.869 -75.423 Q68.209 -78.207 68.209 -82.115 Q68.209 -86.024 70.85 -88.765 Q73.491 -91.506 77.315 -91.506 Q81.27 -91.506 83.931 -88.752 Q86.591 -85.999 86.591 -82.124 Q86.591 -78.182 83.958 -75.411 Q81.325 -72.64 77.485 -72.64 Z"/></g><g id="Semibold-L" transform="matrix(1 0 0 1 1970.27 1556)"><path d="M77.432 20.675 Q73.6 20.675 70.975 18.005 Q68.349 15.336 68.349 11.588 Q68.349 7.888 70.979 5.139 Q73.609 2.39 77.368 2.39 Q81.2 2.39 83.825 5.15 Q86.451 7.91 86.451 11.621 Q86.451 15.332 83.825 18.003 Q81.2 20.675 77.432 20.675 Z M77.432 -26.179 Q73.6 -26.179 70.975 -28.809 Q68.349 -31.439 68.349 -35.198 Q68.349 -39.03 70.979 -41.655 Q73.609 -44.281 77.368 -44.281 Q81.2 -44.281 83.825 -41.655 Q86.451 -39.03 86.451 -35.262 Q86.451 -31.43 83.825 -28.805 Q81.2 -26.179 77.432 -26.179 Z M77.432 -72.85 Q73.6 -72.85 70.975 -75.561 Q68.349 -78.271 68.349 -82.077 Q68.349 -85.883 70.979 -88.555 Q73.609 -91.226 77.368 -91.226 Q81.2 -91.226 83.825 -88.532 Q86.451 -85.838 86.451 -82.051 Q86.451 -78.226 83.825 -75.538 Q81.2 -72.85 77.432 -72.85 Z"/></g><g id="Medium-L" transform="matrix(1 0 0 1 1674.31 1556)"><path d="M77.393 20.517 Q73.653 20.517 71.053 17.879 Q68.454 15.24 68.454 11.535 Q68.454 7.851 71.076 5.199 Q73.698 2.548 77.407 2.548 Q81.147 2.548 83.747 5.225 Q86.346 7.901 86.346 11.591 Q86.346 15.28 83.726 17.898 Q81.106 20.517 77.393 20.517 Z M77.393 -26.284 Q73.653 -26.284 71.053 -28.906 Q68.454 -31.528 68.454 -35.237 Q68.454 -38.977 71.076 -41.577 Q73.698 -44.176 77.407 -44.176 Q81.147 -44.176 83.747 -41.556 Q86.346 -38.936 86.346 -35.223 Q86.346 -31.483 83.726 -28.883 Q81.106 -26.284 77.393 -26.284 Z M77.393 -73.008 Q73.653 -73.008 71.053 -75.664 Q68.454 -78.32 68.454 -82.049 Q68.454 -85.778 71.076 -88.397 Q73.698 -91.016 77.407 -91.016 Q81.147 -91.016 83.747 -88.367 Q86.346 -85.718 86.346 -81.997 Q86.346 -78.259 83.726 -75.634 Q81.106 -73.008 77.393 -73.008 Z"/></g><g id="Regular-L" transform="matrix(1 0 0 1 1378.56 1556)"><path d="M77.364 20.401 Q73.691 20.401 71.111 17.786 Q68.531 15.17 68.531 11.497 Q68.531 7.824 71.147 5.244 Q73.763 2.664 77.436 2.664 Q81.109 2.664 83.689 5.279 Q86.269 7.895 86.269 11.568 Q86.269 15.241 83.653 17.821 Q81.037 20.401 77.364 20.401 Z M77.364 -26.361 Q73.691 -26.361 71.111 -28.977 Q68.531 -31.593 68.531 -35.266 Q68.531 -38.939 71.147 -41.519 Q73.763 -44.099 77.436 -44.099 Q81.109 -44.099 83.689 -41.483 Q86.269 -38.867 86.269 -35.194 Q86.269 -31.521 83.653 -28.941 Q81.037 -26.361 77.364 -26.361 Z M77.364 -73.124 Q73.691 -73.124 71.111 -75.739 Q68.531 -78.355 68.531 -82.028 Q68.531 -85.701 71.147 -88.281 Q73.763 -90.861 77.436 -90.861 Q81.109 -90.861 83.689 -88.246 Q86.269 -85.63 86.269 -81.957 Q86.269 -78.284 83.653 -75.704 Q81.037 -73.124 77.364 -73.124 Z"/></g><g id="Light-L" transform="matrix(1 0 0 1 1082.77 1556)"><path d="M77.368 15.687 Q74.463 15.687 72.428 13.619 Q70.392 11.551 70.392 8.647 Q70.392 5.743 72.46 3.676 Q74.528 1.609 77.432 1.609 Q80.337 1.609 82.372 3.697 Q84.408 5.784 84.408 8.715 Q84.408 11.621 82.34 13.654 Q80.272 15.687 77.368 15.687 Z M77.368 -28.222 Q74.463 -28.222 72.428 -30.29 Q70.392 -32.358 70.392 -35.262 Q70.392 -38.167 72.46 -40.202 Q74.528 -42.238 77.432 -42.238 Q80.337 -42.238 82.372 -40.17 Q84.408 -38.102 84.408 -35.198 Q84.408 -32.293 82.34 -30.258 Q80.272 -28.222 77.368 -28.222 Z M77.368 -72.069 Q74.463 -72.069 72.428 -74.157 Q70.392 -76.244 70.392 -79.175 Q70.392 -82.081 72.46 -84.114 Q74.528 -86.147 77.432 -86.147 Q80.337 -86.147 82.372 -84.079 Q84.408 -82.011 84.408 -79.107 Q84.408 -76.203 82.34 -74.136 Q80.272 -72.069 77.368 -72.069 Z"/></g><g id="Thin-L" transform="matrix(1 0 0 1 787.282 1556)"><path d="M77.371 10.974 Q75.236 10.974 73.744 9.454 Q72.252 7.933 72.252 5.798 Q72.252 3.662 73.773 2.109 Q75.294 0.555 77.429 0.555 Q79.564 0.555 81.056 2.114 Q82.548 3.673 82.548 5.862 Q82.548 8 81.027 9.488 Q79.506 10.974 77.371 10.974 Z M77.371 -30.082 Q75.236 -30.082 73.744 -31.603 Q72.252 -33.124 72.252 -35.259 Q72.252 -37.394 73.773 -38.886 Q75.294 -40.378 77.429 -40.378 Q79.564 -40.378 81.056 -38.857 Q82.548 -37.336 82.548 -35.201 Q82.548 -33.066 81.027 -31.574 Q79.506 -30.082 77.371 -30.082 Z M77.371 -71.015 Q75.236 -71.015 73.744 -72.574 Q72.252 -74.133 72.252 -76.322 Q72.252 -78.46 73.773 -79.948 Q75.294 -81.434 77.429 -81.434 Q79.564 -81.434 81.056 -79.914 Q82.548 -78.393 82.548 -76.258 Q82.548 -74.122 81.027 -72.569 Q79.506 -71.015 77.371 -71.015 Z"/></g><g id="Ultralight-L" transform="matrix(1 0 0 1 491.205 1556)"><path d="M77.373 8.146 Q75.699 8.146 74.534 6.954 Q73.369 5.762 73.369 4.088 Q73.369 2.414 74.561 1.168 Q75.753 -0.077 77.427 -0.077 Q79.101 -0.077 80.266 1.164 Q81.431 2.407 81.431 4.151 Q81.431 5.828 80.239 6.987 Q79.047 8.146 77.373 8.146 Z M77.373 -31.199 Q75.699 -31.199 74.534 -32.391 Q73.369 -33.583 73.369 -35.257 Q73.369 -36.931 74.561 -38.096 Q75.753 -39.261 77.427 -39.261 Q79.101 -39.261 80.266 -38.069 Q81.431 -36.877 81.431 -35.203 Q81.431 -33.529 80.239 -32.364 Q79.047 -31.199 77.373 -31.199 Z M77.373 -70.382 Q75.699 -70.382 74.534 -71.625 Q73.369 -72.867 73.369 -74.611 Q73.369 -76.288 74.561 -77.447 Q75.753 -78.606 77.427 -78.606 Q79.101 -78.606 80.266 -77.414 Q81.431 -76.222 81.431 -74.548 Q81.431 -72.874 80.239 -71.628 Q79.047 -70.382 77.373 -70.382 Z"/></g><g id="Bold-M" transform="matrix(1 0 0 1 2281.8 1126)"><path d="M60.043 12.895 Q54.75 12.895 51.125 9.217 Q47.5 5.54 47.5 0.375 Q47.5 -4.892 51.133 -8.624 Q54.766 -12.355 59.957 -12.355 Q65.25 -12.355 68.875 -8.638 Q72.5 -4.92 72.5 0.3 Q72.5 5.52 68.873 9.208 Q65.246 12.895 60.043 12.895 Z M60.043 -22.73 Q54.75 -22.73 51.125 -26.363 Q47.5 -29.996 47.5 -35.187 Q47.5 -40.48 51.133 -44.105 Q54.766 -47.73 59.957 -47.73 Q65.25 -47.73 68.875 -44.103 Q72.5 -40.476 72.5 -35.273 Q72.5 -29.98 68.873 -26.355 Q65.246 -22.73 60.043 -22.73 Z M60.043 -58.105 Q54.75 -58.105 51.125 -61.848 Q47.5 -65.592 47.5 -70.848 Q47.5 -76.105 51.133 -79.73 Q54.766 -83.355 59.957 -83.355 Q65.25 -83.355 68.875 -79.728 Q72.5 -76.101 72.5 -70.87 Q72.5 -65.588 68.873 -61.847 Q65.246 -58.105 60.043 -58.105 Z"/></g><g id="Semibold-M" transform="matrix(1 0 0 1 1985.97 1126)"><path d="M60.015 12.08 Q54.913 12.08 51.37 8.498 Q47.826 4.916 47.826 -0.114 Q47.826 -5.202 51.383 -8.806 Q54.94 -12.409 59.985 -12.409 Q65.087 -12.409 68.63 -8.805 Q72.174 -5.201 72.174 -0.139 Q72.174 4.922 68.621 8.501 Q65.067 12.08 60.015 12.08 Z M60.015 -23.056 Q54.913 -23.056 51.37 -26.613 Q47.826 -30.17 47.826 -35.215 Q47.826 -40.317 51.383 -43.86 Q54.94 -47.404 59.985 -47.404 Q65.087 -47.404 68.63 -43.851 Q72.174 -40.297 72.174 -35.245 Q72.174 -30.143 68.621 -26.599 Q65.067 -23.056 60.015 -23.056 Z M60.015 -58.051 Q54.913 -58.051 51.37 -61.67 Q47.826 -65.289 47.826 -70.371 Q47.826 -75.453 51.383 -78.996 Q54.94 -82.54 59.985 -82.54 Q65.087 -82.54 68.63 -78.987 Q72.174 -75.433 72.174 -70.366 Q72.174 -65.269 68.621 -61.66 Q65.067 -58.051 60.015 -58.051 Z"/></g><g id="Medium-M" transform="matrix(1 0 0 1 1689.91 1126)"><path d="M59.995 11.468 Q55.035 11.468 51.553 7.958 Q48.071 4.448 48.071 -0.481 Q48.071 -5.435 51.57 -8.942 Q55.069 -12.45 60.005 -12.45 Q64.965 -12.45 68.447 -8.93 Q71.929 -5.411 71.929 -0.469 Q71.929 4.474 68.431 7.971 Q64.933 11.468 59.995 11.468 Z M59.995 -23.301 Q55.035 -23.301 51.553 -26.8 Q48.071 -30.299 48.071 -35.235 Q48.071 -40.195 51.57 -43.677 Q55.069 -47.159 60.005 -47.159 Q64.965 -47.159 68.447 -43.661 Q71.929 -40.163 71.929 -35.225 Q71.929 -30.265 68.431 -26.783 Q64.933 -23.301 59.995 -23.301 Z M59.995 -58.01 Q55.035 -58.01 51.553 -61.536 Q48.071 -65.061 48.071 -70.013 Q48.071 -74.964 51.57 -78.446 Q55.069 -81.928 60.005 -81.928 Q64.965 -81.928 68.447 -78.43 Q71.929 -74.932 71.929 -69.988 Q71.929 -65.03 68.431 -61.52 Q64.933 -58.01 59.995 -58.01 Z"/></g><g id="Regular-M" transform="matrix(1 0 0 1 1394.06 1126)"><path d="M59.98 11.02 Q55.125 11.02 51.688 7.563 Q48.25 4.105 48.25 -0.75 Q48.25 -5.605 51.707 -9.042 Q55.165 -12.48 60.02 -12.48 Q64.875 -12.48 68.312 -9.023 Q71.75 -5.565 71.75 -0.71 Q71.75 4.145 68.293 7.583 Q64.835 11.02 59.98 11.02 Z M59.98 -23.48 Q55.125 -23.48 51.688 -26.937 Q48.25 -30.395 48.25 -35.25 Q48.25 -40.105 51.707 -43.542 Q55.165 -46.98 60.02 -46.98 Q64.875 -46.98 68.312 -43.523 Q71.75 -40.065 71.75 -35.21 Q71.75 -30.355 68.293 -26.917 Q64.835 -23.48 59.98 -23.48 Z M59.98 -57.98 Q55.125 -57.98 51.688 -61.437 Q48.25 -64.895 48.25 -69.75 Q48.25 -74.605 51.707 -78.042 Q55.165 -81.48 60.02 -81.48 Q64.875 -81.48 68.312 -78.023 Q71.75 -74.565 71.75 -69.71 Q71.75 -64.855 68.293 -61.417 Q64.835 -57.98 59.98 -57.98 Z"/></g><g id="Light-M" transform="matrix(1 0 0 1 1098.18 1126)"><path d="M59.98 7.366 Q56.156 7.366 53.453 4.643 Q50.75 1.92 50.75 -1.904 Q50.75 -5.728 53.473 -8.431 Q56.196 -11.134 60.02 -11.134 Q63.844 -11.134 66.547 -8.411 Q69.25 -5.688 69.25 -1.864 Q69.25 1.96 66.527 4.663 Q63.804 7.366 59.98 7.366 Z M59.98 -25.98 Q56.156 -25.98 53.453 -28.703 Q50.75 -31.426 50.75 -35.25 Q50.75 -39.074 53.473 -41.777 Q56.196 -44.48 60.02 -44.48 Q63.844 -44.48 66.547 -41.757 Q69.25 -39.034 69.25 -35.21 Q69.25 -31.386 66.527 -28.683 Q63.804 -25.98 59.98 -25.98 Z M59.98 -59.326 Q56.156 -59.326 53.453 -62.049 Q50.75 -64.772 50.75 -68.596 Q50.75 -72.42 53.473 -75.123 Q56.196 -77.826 60.02 -77.826 Q63.844 -77.826 66.547 -75.103 Q69.25 -72.38 69.25 -68.556 Q69.25 -64.732 66.527 -62.029 Q63.804 -59.326 59.98 -59.326 Z"/></g><g id="Thin-M" transform="matrix(1 0 0 1 802.565 1126)"><path d="M59.98 3.712 Q57.188 3.712 55.219 1.724 Q53.25 -0.265 53.25 -3.058 Q53.25 -5.85 55.239 -7.819 Q57.227 -9.788 60.02 -9.788 Q62.812 -9.788 64.781 -7.799 Q66.75 -5.81 66.75 -3.018 Q66.75 -0.225 64.761 1.744 Q62.773 3.712 59.98 3.712 Z M59.98 -28.48 Q57.188 -28.48 55.219 -30.469 Q53.25 -32.457 53.25 -35.25 Q53.25 -38.042 55.239 -40.011 Q57.227 -41.98 60.02 -41.98 Q62.812 -41.98 64.781 -39.991 Q66.75 -38.003 66.75 -35.21 Q66.75 -32.417 64.761 -30.449 Q62.773 -28.48 59.98 -28.48 Z M59.98 -60.672 Q57.188 -60.672 55.219 -62.661 Q53.25 -64.65 53.25 -67.442 Q53.25 -70.235 55.239 -72.204 Q57.227 -74.172 60.02 -74.172 Q62.812 -74.172 64.781 -72.184 Q66.75 -70.195 66.75 -67.402 Q66.75 -64.61 64.761 -62.641 Q62.773 -60.672 59.98 -60.672 Z"/></g><g id="Ultralight-M" transform="matrix(1 0 0 1 506.415 1126)"><path d="M59.98 1.52 Q57.806 1.52 56.278 -0.028 Q54.75 -1.576 54.75 -3.75 Q54.75 -5.924 56.298 -7.452 Q57.846 -8.98 60.02 -8.98 Q62.194 -8.98 63.722 -7.432 Q65.25 -5.884 65.25 -3.71 Q65.25 -1.536 63.702 -0.008 Q62.154 1.52 59.98 1.52 Z M59.98 -29.98 Q57.806 -29.98 56.278 -31.528 Q54.75 -33.076 54.75 -35.25 Q54.75 -37.424 56.298 -38.952 Q57.846 -40.48 60.02 -40.48 Q62.194 -40.48 63.722 -38.932 Q65.25 -37.384 65.25 -35.21 Q65.25 -33.036 63.702 -31.508 Q62.154 -29.98 59.98 -29.98 Z M59.98 -61.48 Q57.806 -61.48 56.278 -63.028 Q54.75 -64.576 54.75 -66.75 Q54.75 -68.924 56.298 -70.452 Q57.846 -71.98 60.02 -71.98 Q62.194 -71.98 63.722 -70.432 Q65.25 -68.884 65.25 -66.71 Q65.25 -64.536 63.702 -63.008 Q62.154 -61.48 59.98 -61.48 Z"/></g><g id="Bold-S" transform="matrix(1 0 0 1 2294.23 696)"><path d="M47.353 -0.415 Q43.494 -0.415 40.88 -3.091 Q38.267 -5.768 38.267 -9.526 Q38.267 -13.365 40.907 -16.062 Q43.548 -18.76 47.327 -18.76 Q51.186 -18.76 53.8 -16.052 Q56.413 -13.345 56.413 -9.543 Q56.413 -5.741 53.777 -3.078 Q51.141 -0.415 47.353 -0.415 Z M47.353 -26.156 Q43.494 -26.156 40.88 -28.797 Q38.267 -31.438 38.267 -35.217 Q38.267 -39.076 40.907 -41.69 Q43.548 -44.303 47.327 -44.303 Q51.186 -44.303 53.8 -41.667 Q56.413 -39.031 56.413 -35.243 Q56.413 -31.384 53.777 -28.77 Q51.141 -26.156 47.353 -26.156 Z M47.353 -51.7 Q43.494 -51.7 40.88 -54.428 Q38.267 -57.156 38.267 -60.987 Q38.267 -64.817 40.907 -67.431 Q43.548 -70.045 47.327 -70.045 Q51.186 -70.045 53.8 -67.409 Q56.413 -64.773 56.413 -60.962 Q56.413 -57.112 53.777 -54.406 Q51.141 -51.7 47.353 -51.7 Z"/></g><g id="Semibold-S" transform="matrix(1 0 0 1 1998.1 696)"><path d="M47.331 -1.059 Q43.622 -1.059 41.073 -3.659 Q38.524 -6.26 38.524 -9.911 Q38.524 -13.609 41.104 -16.206 Q43.685 -18.803 47.349 -18.803 Q51.058 -18.803 53.607 -16.184 Q56.156 -13.566 56.156 -9.889 Q56.156 -6.213 53.578 -3.636 Q51 -1.059 47.331 -1.059 Z M47.331 -26.414 Q43.622 -26.414 41.073 -28.994 Q38.524 -31.575 38.524 -35.239 Q38.524 -38.948 41.104 -41.497 Q43.685 -44.046 47.349 -44.046 Q51.058 -44.046 53.607 -41.468 Q56.156 -38.89 56.156 -35.221 Q56.156 -31.512 53.578 -28.963 Q51 -26.414 47.331 -26.414 Z M47.331 -51.657 Q43.622 -51.657 41.073 -54.287 Q38.524 -56.917 38.524 -60.61 Q38.524 -64.303 41.104 -66.852 Q43.685 -69.401 47.349 -69.401 Q51.058 -69.401 53.607 -66.824 Q56.156 -64.246 56.156 -60.564 Q56.156 -56.86 53.578 -54.259 Q51 -51.657 47.331 -51.657 Z"/></g><g id="Medium-S" transform="matrix(1 0 0 1 1701.85 696)"><path d="M47.315 -1.541 Q43.719 -1.541 41.218 -4.085 Q38.717 -6.629 38.717 -10.201 Q38.717 -13.793 41.252 -16.314 Q43.788 -18.835 47.365 -18.835 Q50.961 -18.835 53.462 -16.283 Q55.963 -13.732 55.963 -10.149 Q55.963 -6.567 53.429 -4.054 Q50.895 -1.541 47.315 -1.541 Z M47.315 -26.607 Q43.719 -26.607 41.218 -29.142 Q38.717 -31.678 38.717 -35.255 Q38.717 -38.851 41.252 -41.352 Q43.788 -43.853 47.365 -43.853 Q50.961 -43.853 53.462 -41.319 Q55.963 -38.785 55.963 -35.205 Q55.963 -31.609 53.429 -29.108 Q50.895 -26.607 47.315 -26.607 Z M47.315 -51.625 Q43.719 -51.625 41.218 -54.182 Q38.717 -56.738 38.717 -60.327 Q38.717 -63.917 41.252 -66.418 Q43.788 -68.919 47.365 -68.919 Q50.961 -68.919 53.462 -66.385 Q55.963 -63.85 55.963 -60.266 Q55.963 -56.671 53.429 -54.148 Q50.895 -51.625 47.315 -51.625 Z"/></g><g id="Regular-S" transform="matrix(1 0 0 1 1405.73 696)"><path d="M47.303 -1.895 Q43.79 -1.895 41.324 -4.397 Q38.858 -6.899 38.858 -10.413 Q38.858 -13.927 41.361 -16.393 Q43.863 -18.858 47.377 -18.858 Q50.891 -18.858 53.356 -16.356 Q55.822 -13.854 55.822 -10.34 Q55.822 -6.826 53.319 -4.36 Q50.817 -1.895 47.303 -1.895 Z M47.303 -26.748 Q43.79 -26.748 41.324 -29.251 Q38.858 -31.753 38.858 -35.267 Q38.858 -38.78 41.361 -41.246 Q43.863 -43.712 47.377 -43.712 Q50.891 -43.712 53.356 -41.209 Q55.822 -38.707 55.822 -35.193 Q55.822 -31.679 53.319 -29.214 Q50.817 -26.748 47.303 -26.748 Z M47.303 -51.602 Q43.79 -51.602 41.324 -54.104 Q38.858 -56.606 38.858 -60.12 Q38.858 -63.634 41.361 -66.1 Q43.863 -68.565 47.377 -68.565 Q50.891 -68.565 53.356 -66.063 Q55.822 -63.561 55.822 -60.047 Q55.822 -56.533 53.319 -54.067 Q50.817 -51.602 47.303 -51.602 Z"/></g><g id="Light-S" transform="matrix(1 0 0 1 1109.75 696)"><path d="M47.303 -4.778 Q44.603 -4.778 42.717 -6.701 Q40.831 -8.623 40.831 -11.324 Q40.831 -14.024 42.754 -15.91 Q44.677 -17.796 47.377 -17.796 Q50.077 -17.796 51.963 -15.873 Q53.849 -13.95 53.849 -11.25 Q53.849 -8.55 51.926 -6.664 Q50.003 -4.778 47.303 -4.778 Z M47.303 -28.721 Q44.603 -28.721 42.717 -30.644 Q40.831 -32.567 40.831 -35.267 Q40.831 -37.967 42.754 -39.853 Q44.677 -41.739 47.377 -41.739 Q50.077 -41.739 51.963 -39.816 Q53.849 -37.893 53.849 -35.193 Q53.849 -32.493 51.926 -30.607 Q50.003 -28.721 47.303 -28.721 Z M47.303 -52.664 Q44.603 -52.664 42.717 -54.587 Q40.831 -56.51 40.831 -59.21 Q40.831 -61.91 42.754 -63.796 Q44.677 -65.682 47.377 -65.682 Q50.077 -65.682 51.963 -63.759 Q53.849 -61.837 53.849 -59.136 Q53.849 -56.436 51.926 -54.55 Q50.003 -52.664 47.303 -52.664 Z"/></g><g id="Thin-S" transform="matrix(1 0 0 1 814.015 696)"><path d="M47.303 -7.66 Q45.417 -7.66 44.11 -9.004 Q42.803 -10.347 42.803 -12.234 Q42.803 -14.121 44.147 -15.427 Q45.49 -16.734 47.377 -16.734 Q49.263 -16.734 50.57 -15.391 Q51.877 -14.047 51.877 -12.161 Q51.877 -10.274 50.533 -8.967 Q49.19 -7.66 47.303 -7.66 Z M47.303 -30.693 Q45.417 -30.693 44.11 -32.037 Q42.803 -33.38 42.803 -35.267 Q42.803 -37.153 44.147 -38.46 Q45.49 -39.767 47.377 -39.767 Q49.263 -39.767 50.57 -38.423 Q51.877 -37.08 51.877 -35.193 Q51.877 -33.307 50.533 -32 Q49.19 -30.693 47.303 -30.693 Z M47.303 -53.726 Q45.417 -53.726 44.11 -55.069 Q42.803 -56.413 42.803 -58.299 Q42.803 -60.186 44.147 -61.493 Q45.49 -62.8 47.377 -62.8 Q49.263 -62.8 50.57 -61.456 Q51.877 -60.113 51.877 -58.226 Q51.877 -56.339 50.533 -55.033 Q49.19 -53.726 47.303 -53.726 Z"/></g><g id="Ultralight-S" transform="matrix(1 0 0 1 517.792 696)"><path d="M47.303 -9.39 Q45.905 -9.39 44.946 -10.386 Q43.987 -11.382 43.987 -12.78 Q43.987 -14.178 44.983 -15.138 Q45.978 -16.097 47.377 -16.097 Q48.775 -16.097 49.734 -15.101 Q50.693 -14.105 50.693 -12.707 Q50.693 -11.309 49.697 -10.349 Q48.702 -9.39 47.303 -9.39 Z M47.303 -31.877 Q45.905 -31.877 44.946 -32.873 Q43.987 -33.868 43.987 -35.267 Q43.987 -36.665 44.983 -37.624 Q45.978 -38.583 47.377 -38.583 Q48.775 -38.583 49.734 -37.587 Q50.693 -36.592 50.693 -35.193 Q50.693 -33.795 49.697 -32.836 Q48.702 -31.877 47.303 -31.877 Z M47.303 -54.363 Q45.905 -54.363 44.946 -55.359 Q43.987 -56.355 43.987 -57.753 Q43.987 -59.151 44.983 -60.111 Q45.978 -61.07 47.377 -61.07 Q48.775 -61.07 49.734 -60.074 Q50.693 -59.078 50.693 -57.68 Q50.693 -56.282 49.697 -55.322 Q48.702 -54.363 47.303 -54.363 Z"/></g></g></svg>