<svg xmlns="http://www.w3.org/2000/svg" width="84" height="46" viewBox="0 0 84 46">
  <g id="logo_splash_kr" transform="translate(-131 -569)">
    <rect id="area" width="84" height="46" transform="translate(131 569)" fill="none"/>
    <path id="빼기_4" data-name="빼기 4" d="M-1955.462-686.657a3.535,3.535,0,0,1-.62-.055c-.445-.079-.816-.152-1.1-.216-1.179-.287-2.39-.642-3.6-1.057a28.443,28.443,0,0,1-3.5-1.463,22.609,22.609,0,0,1-3.192-1.944,14.754,14.754,0,0,1-2.664-2.5,18.345,18.345,0,0,1-5.639,4.3,32.367,32.367,0,0,1-6.984,2.568c-.288.064-.668.137-1.129.216a4.642,4.642,0,0,1-.789.067,5.117,5.117,0,0,1-.651-.042,2.886,2.886,0,0,1-1.416-.625,3.242,3.242,0,0,1-1.008-1.728,2.623,2.623,0,0,1-.048-1.632,2.656,2.656,0,0,1,.72-1.1,3.518,3.518,0,0,1,1.1-.671,7.757,7.757,0,0,1,1.057-.337,24.8,24.8,0,0,0,4.08-1.272,16.637,16.637,0,0,0,3.384-1.848,10.339,10.339,0,0,0,2.4-2.376,6.28,6.28,0,0,0,1.128-2.9,3.907,3.907,0,0,1,1.248-2.568,3.851,3.851,0,0,1,2.543-.841,3.81,3.81,0,0,1,2.52.864,3.905,3.905,0,0,1,1.273,2.544,6.66,6.66,0,0,0,1.224,3.024,10.577,10.577,0,0,0,2.5,2.4,16.666,16.666,0,0,0,3.48,1.823,27.288,27.288,0,0,0,4.224,1.248,8.861,8.861,0,0,1,.912.336,3.4,3.4,0,0,1,1.032.672,2.779,2.779,0,0,1,.7,1.1,2.474,2.474,0,0,1-.048,1.584,3.3,3.3,0,0,1-.984,1.679,3.149,3.149,0,0,1-1.368.672A3.942,3.942,0,0,1-1955.462-686.657Zm38.836-.463h-20.3a5.557,5.557,0,0,1-4.176-1.368,5.567,5.567,0,0,1-1.3-3.96V-702.1a3.426,3.426,0,0,1,1.128-2.712,3.94,3.94,0,0,1,2.664-.984,3.7,3.7,0,0,1,2.569.936,3.666,3.666,0,0,1,1.128,2.615h16.32a3.513,3.513,0,0,1,1.08-2.615,3.7,3.7,0,0,1,2.569-.936,3.94,3.94,0,0,1,2.664.984,3.426,3.426,0,0,1,1.128,2.712v9.648a5.567,5.567,0,0,1-1.3,3.96A5.557,5.557,0,0,1-1916.627-687.12Zm-18.288-9.216v1.44c0,.86.161,1.393.48,1.584a3.517,3.517,0,0,0,1.68.288h12a3.517,3.517,0,0,0,1.68-.288c.318-.19.48-.723.48-1.584v-1.44Zm-21.5-6.719a3.44,3.44,0,0,1-2.5-.936,3.5,3.5,0,0,1-.959-2.616V-728.4a3.584,3.584,0,0,1,.959-2.641,3.392,3.392,0,0,1,2.5-.959,3.543,3.543,0,0,1,2.448.959,3.4,3.4,0,0,1,1.056,2.641v21.792a3.33,3.33,0,0,1-1.056,2.616A3.6,3.6,0,0,1-1956.418-703.056Zm-8.88-2.4a3.462,3.462,0,0,1-2.472-.936,3.452,3.452,0,0,1-.984-2.616v-6.1h-.336a2.907,2.907,0,0,1-2.209-.864,3.037,3.037,0,0,1-.815-2.16,3,3,0,0,1,.815-2.088,2.865,2.865,0,0,1,2.209-.888h.336v-6.48a3.532,3.532,0,0,1,.984-2.64,3.413,3.413,0,0,1,2.472-.96,3.543,3.543,0,0,1,2.448.96,3.4,3.4,0,0,1,1.056,2.64v18.576a3.327,3.327,0,0,1-1.056,2.616A3.594,3.594,0,0,1-1965.3-705.456Zm-24.912-.48h0c-.224,0-.53-.016-.912-.049a3.449,3.449,0,0,1-1.152-.311,3.047,3.047,0,0,1-1.057-.841,3.266,3.266,0,0,1-.624-1.68,2.337,2.337,0,0,1,.168-1.489,2.523,2.523,0,0,1,.815-.912,3.071,3.071,0,0,1,1.1-.456,5.4,5.4,0,0,1,1.032-.12h.239l-.48-6.24c-.067-.913.195-4.422.624-5.136a3.145,3.145,0,0,1-2.28-.816,2.886,2.886,0,0,1-.84-2.16,2.928,2.928,0,0,1,.84-2.111,3.045,3.045,0,0,1,2.28-.864h16.9a3.045,3.045,0,0,1,2.28.864,2.928,2.928,0,0,1,.84,2.111,2.886,2.886,0,0,1-.84,2.16,3.144,3.144,0,0,1-2.28.816,17.488,17.488,0,0,1,.72,5.136l-.384,5.088h0c.286,0,.593.016.911.048a2.151,2.151,0,0,1,.913.312,2.617,2.617,0,0,1,.768.744,2.9,2.9,0,0,1,.432,1.344,3.182,3.182,0,0,1-.144,1.7,2.6,2.6,0,0,1-.792,1.032,2.974,2.974,0,0,1-1.08.528,8,8,0,0,1-1.008.192l-4.776.408c-1.262.109-2.514.206-3.72.288-1.176.08-2.435.152-3.744.216C-1986.8-706.063-1988.4-706-1990.211-705.936Zm8.324-12.691c-2.074,0-4.152,2.356-4.624,4.462a2.476,2.476,0,0,0,.262,2.084c.675.925,2.255,1.186,3.861,1.331.6.053,1.08.078,1.5.078a3.475,3.475,0,0,0,2.6-.758,2.541,2.541,0,0,0,.586-1.944c-.077-2.267-1.82-5.051-3.952-5.242C-1981.727-718.623-1981.807-718.626-1981.886-718.626Zm5.638-1.47a2.175,2.175,0,0,0-1.852,1.16,2.17,2.17,0,0,0-.2,1.655,1.718,1.718,0,0,0,.843,1.04,1.709,1.709,0,0,0,.8.193,2.175,2.175,0,0,0,1.853-1.16,2.171,2.171,0,0,0,.2-1.656,1.715,1.715,0,0,0-.842-1.038A1.7,1.7,0,0,0-1976.248-720.1Zm-11.4-1a1.685,1.685,0,0,0-.645.127,2,2,0,0,0-.941,2.639,2.082,2.082,0,0,0,1.865,1.346,1.7,1.7,0,0,0,.644-.127,2,2,0,0,0,.941-2.64A2.082,2.082,0,0,0-1987.647-721.095Zm8.709-3.32a2.34,2.34,0,0,0-2.126,1.948,2.572,2.572,0,0,0,.3,1.939,1.807,1.807,0,0,0,1.136.815,1.754,1.754,0,0,0,.36.038,2.338,2.338,0,0,0,2.125-1.948,2.569,2.569,0,0,0-.3-1.938,1.807,1.807,0,0,0-1.136-.816A1.715,1.715,0,0,0-1978.938-724.415Zm-5.248-.447a1.71,1.71,0,0,0-.258.02,2.316,2.316,0,0,0-1.706,2.672,2.2,2.2,0,0,0,2.013,2.083,1.8,1.8,0,0,0,.257-.019,2.315,2.315,0,0,0,1.7-2.673A2.2,2.2,0,0,0-1984.186-724.862Zm69.287,17.726a3.763,3.763,0,0,1-2.616-.984,3.5,3.5,0,0,1-1.08-2.712v-17.424a3.575,3.575,0,0,1,1.08-2.736A3.711,3.711,0,0,1-1914.9-732a3.824,3.824,0,0,1,2.616,1.008,3.5,3.5,0,0,1,1.128,2.736v17.424a3.426,3.426,0,0,1-1.128,2.712A3.878,3.878,0,0,1-1914.9-707.136Zm-26.541-.38a7.41,7.41,0,0,1-2.859-.508,5.9,5.9,0,0,1-2.183-1.536,6.255,6.255,0,0,1-1.273-2.328,10.092,10.092,0,0,1-.408-2.928v-9.7a5.567,5.567,0,0,1,1.3-3.96,5.557,5.557,0,0,1,4.176-1.368H-1928a3.257,3.257,0,0,1,2.232.743,2.715,2.715,0,0,1,.84,2.137,2.627,2.627,0,0,1-.84,2.136,3.4,3.4,0,0,1-2.232.7h-10.944a3.333,3.333,0,0,0-1.464.24c-.3.16-.455.6-.455,1.3v1.008h12.576a2.835,2.835,0,0,1,2.088.792,2.773,2.773,0,0,1,.792,2.04,2.816,2.816,0,0,1-.792,2.111,2.886,2.886,0,0,1-2.088.769h-12.576a3.309,3.309,0,0,0,.624,2.064,2.489,2.489,0,0,0,1.927.588c.135,0,.278,0,.425-.012,1.812-.063,3.629-.144,5.4-.24s3.629-.256,5.544-.48c.245-.031.56-.062.96-.1.085-.007.171-.01.255-.01a3.2,3.2,0,0,1,.9.131,2.4,2.4,0,0,1,1.032.624,2.485,2.485,0,0,1,.6,1.416,3.327,3.327,0,0,1-.1,1.633,2.479,2.479,0,0,1-.648.984,2.642,2.642,0,0,1-.913.528,4.8,4.8,0,0,1-.887.216c-2.872.382-5.61.633-8.136.743s-4.981.2-7.272.265C-1941.25-707.517-1941.346-707.516-1941.44-707.516Z" transform="translate(2125 1301)" fill="#fff"/>
  </g>
</svg>
