<svg xmlns="http://www.w3.org/2000/svg" width="60" height="60" viewBox="0 0 60 60">
  <g id="icon_service" transform="translate(-272 -668)">
    <rect id="area" width="60" height="60" transform="translate(272 668)" fill="none"/>
    <g id="그룹_53790" data-name="그룹 53790" transform="translate(-2854.98 301.953)">
      <path id="패스_20309" data-name="패스 20309" d="M3303.956,459.777a20.5,20.5,0,0,0-18.5,29.964l-1.244,7.049a2.459,2.459,0,0,0,2.849,2.849l7.015-1.238a20.5,20.5,0,1,0,9.875-38.625Zm.115,30.329a2.186,2.186,0,1,1,2.187-2.186A2.186,2.186,0,0,1,3304.071,490.106Zm4.966-13.62a5.275,5.275,0,0,1-.826,1.353c-.292.343-.819.925-1.568,1.729a5.888,5.888,0,0,0-.433.52,1.5,1.5,0,0,0-.178.3,1.436,1.436,0,0,0-.078.262c-.022.118-.053.334-.094.642a1.819,1.819,0,0,1-1.737,1.778,2.162,2.162,0,0,1-.328.006,1.9,1.9,0,0,1-1.087-.417,2.017,2.017,0,0,1-.712-1.468,4.249,4.249,0,0,1,.857-3.1,16.524,16.524,0,0,1,1.1-1.257c.376-.4.648-.694.808-.885a2.169,2.169,0,0,0,.313-.5.82.82,0,0,0,.065-.411,1.031,1.031,0,0,0-.432-.776,1.316,1.316,0,0,0-.745-.265,2.142,2.142,0,0,0-.319.006,1.459,1.459,0,0,0-1.049.421,3.715,3.715,0,0,0-.588,1.413,2,2,0,0,1-1.815,1.8,2.185,2.185,0,0,1-.329.005,1.96,1.96,0,0,1-1.178-.481,1.9,1.9,0,0,1-.709-1.3,4.313,4.313,0,0,1,.5-2.354,5.4,5.4,0,0,1,1.858-2.035,6.306,6.306,0,0,1,2.983-1,7.642,7.642,0,0,1,1.156-.021,6.027,6.027,0,0,1,1.748.361,4.86,4.86,0,0,1,2.143,1.512,4.27,4.27,0,0,1,.935,2.311A3.8,3.8,0,0,1,3309.037,476.485Z" transform="translate(-146.658 -84.809)" fill="#7561e3"/>
      <g id="그룹_53789" data-name="그룹 53789" transform="translate(3127.98 370.047)">
        <path id="패스_20310" data-name="패스 20310" d="M3218.835,420.872v-1.64a23.773,23.773,0,1,0-23.774-23.773,24.1,24.1,0,0,0,.335,4.008c.064.384-.02.788.063,1.166l-1.443.329a25.687,25.687,0,0,1-.594-5.5,25.412,25.412,0,1,1,25.413,25.413Z" transform="translate(-3189.835 -370.047)" fill="#1a1a1a"/>
        <path id="패스_20311" data-name="패스 20311" d="M4088.716,703.648c0,4.163-1.5,7.538-3.35,7.538a2.546,2.546,0,0,1-2.016-1.518c-.812-1.376.451-3.561.451-6.021s-1.265-4.633-.458-6.009a2.556,2.556,0,0,1,2.024-1.529C4087.216,696.11,4088.716,699.485,4088.716,703.648Z" transform="translate(-4030.716 -678.236)" fill="#1a1a1a"/>
        <path id="패스_20312" data-name="패스 20312" d="M3127.979,703.648c0,4.163,1.5,7.538,3.35,7.538a2.548,2.548,0,0,0,2.017-1.518c.81-1.376-.452-3.561-.452-6.021s1.265-4.633.458-6.009a2.556,2.556,0,0,0-2.023-1.529C3129.479,696.11,3127.979,699.485,3127.979,703.648Z" transform="translate(-3127.979 -678.236)" fill="#1a1a1a"/>
        <ellipse id="타원_1084" data-name="타원 1084" cx="4.224" cy="2.459" rx="4.224" ry="2.459" transform="translate(24.776 47.489)" fill="#1a1a1a"/>
      </g>
    </g>
  </g>
</svg>
