<svg width="47" height="47" viewBox="0 0 47 47" fill="none" xmlns="http://www.w3.org/2000/svg">
<path d="M30.2053 1.96292H15.8736C14.6684 1.90441 13.4887 2.32353 12.5905 3.12933C11.6924 3.93513 11.1483 5.06261 11.0762 6.26709V20.4057C11.1219 22.7311 11.8012 25 13.041 26.9679C14.2808 28.9358 16.034 30.5281 18.1118 31.5733C19.6297 32.3778 21.3215 32.7984 23.0394 32.7984C24.7574 32.7984 26.4492 32.3778 27.9671 31.5733C30.0449 30.5281 31.7981 28.9358 33.0379 26.9679C34.2777 25 34.957 22.7311 35.0027 20.4057V6.26709C34.9306 5.06261 34.3865 3.93513 33.4883 3.12933C32.5902 2.32353 31.4105 1.90441 30.2053 1.96292Z" stroke="#787878" stroke-width="3" stroke-linecap="round"/>
<path d="M35.0033 6.26712H39.7821C40.9838 6.21428 42.1581 6.63595 43.0517 7.44117C43.9452 8.24639 44.4865 9.37061 44.5586 10.5713C44.5512 13.2696 43.8545 15.9212 42.5344 18.2746C41.1523 20.7077 39.2222 22.7852 36.8971 24.3423L35.0033 25.6336L33.1537 26.7527M11.0767 6.26712H6.29795C5.09626 6.21428 3.92196 6.63595 3.02839 7.44117C2.13482 8.24639 1.59359 9.37061 1.52148 10.5713C1.52846 13.2701 2.22411 15.9224 3.54561 18.2746C4.92775 20.7077 6.8579 22.7852 9.18291 24.3423L11.0767 25.6336L12.9264 26.7527M18.2636 38.5438V31.6362M27.8165 38.5438V31.6362M15.6182 38.5438H30.4618C31.0582 38.5438 31.6488 38.6612 32.1998 38.8895C32.7508 39.1177 33.2514 39.4522 33.6731 39.8739C34.0948 40.2957 34.4294 40.7963 34.6576 41.3473C34.8858 41.8983 35.0033 42.4889 35.0033 43.0853V43.86C35.0033 44.1624 34.8832 44.4523 34.6694 44.6661C34.4556 44.8799 34.1656 45 33.8633 45H12.2168C11.9144 45 11.6245 44.8799 11.4107 44.6661C11.1969 44.4523 11.0767 44.1624 11.0767 43.86V43.0853C11.0767 41.8812 11.5549 40.7264 12.4061 39.8748C13.2573 39.0231 14.4118 38.5444 15.6159 38.5438H15.6182Z" stroke="#787878" stroke-width="3" stroke-linecap="round"/>
<path d="M23.3723 19.5426L26.1176 20.9851C26.2337 21.0455 26.3644 21.0722 26.4948 21.0624C26.6253 21.0525 26.7504 21.0064 26.8561 20.9292C26.9618 20.8521 27.0438 20.747 27.093 20.6257C27.1422 20.5044 27.1565 20.3719 27.1343 20.2429L26.6085 17.1881C26.5891 17.0755 26.5973 16.9599 26.6326 16.8513C26.6678 16.7426 26.7291 16.6442 26.811 16.5646L29.0328 14.4009C29.1284 14.3103 29.1963 14.1946 29.2289 14.0671C29.2615 13.9396 29.2574 13.8054 29.217 13.6802C29.1766 13.5549 29.1016 13.4436 29.0007 13.3591C28.8998 13.2746 28.777 13.2204 28.6466 13.2027L25.5779 12.7606C25.466 12.7438 25.36 12.7001 25.2688 12.6332C25.1776 12.5664 25.104 12.4783 25.0544 12.3767L23.6515 9.57321C23.5935 9.45541 23.5037 9.3562 23.3923 9.28682C23.2809 9.21744 23.1522 9.18066 23.021 9.18066C22.8897 9.18066 22.761 9.21744 22.6496 9.28682C22.5382 9.3562 22.4484 9.45541 22.3904 9.57321L20.9898 12.3767C20.9398 12.4785 20.8659 12.5666 20.7743 12.6335C20.6827 12.7004 20.5762 12.744 20.464 12.7606L17.4395 13.2027C17.3088 13.2198 17.1856 13.2734 17.084 13.3574C16.9825 13.4414 16.9067 13.5524 16.8654 13.6775C16.8241 13.8027 16.8189 13.937 16.8505 14.0649C16.8821 14.1929 16.9492 14.3093 17.044 14.4009L19.2659 16.5646C19.3483 16.6439 19.4101 16.7422 19.4458 16.8509C19.4815 16.9596 19.49 17.0754 19.4706 17.1881L18.9448 20.2429C18.9206 20.3722 18.9333 20.5056 18.9816 20.6279C19.0299 20.7502 19.1118 20.8564 19.2178 20.9342C19.3238 21.012 19.4497 21.0583 19.5808 21.0677C19.712 21.0771 19.8431 21.0493 19.9592 20.9874L22.7045 19.5449C22.807 19.4891 22.9218 19.4599 23.0384 19.4599C23.155 19.4599 23.2698 19.4891 23.3723 19.5449" fill="#AEAEAE"/>
</svg>
