<svg xmlns="http://www.w3.org/2000/svg" width="70" height="70" viewBox="0 0 70 70">
  <g id="shower_ver2" transform="translate(-129 -254)">
    <rect id="area" width="70" height="70" transform="translate(129 254)" fill="none"/>
    <g id="그룹_53857" data-name="그룹 53857" transform="translate(132.09 262.282)">
      <path id="합치기_10" data-name="합치기 10" d="M32.313,38.744H13.674a13.671,13.671,0,1,1,3.531-26.867A17.483,17.483,0,0,1,32.313.068V.012c.117,0,.234-.011.344-.011.232,0,.461,0,.688.013l.074,0v0a17.487,17.487,0,0,1,16.6,15.337,11.518,11.518,0,0,1,2.02-.187,11.789,11.789,0,0,1,0,23.578Z" transform="translate(0)" fill="#fff"/>
      <path id="패스_20413" data-name="패스 20413" d="M-20833.441-5079.6l9.184-17.781" transform="translate(20853.955 5128.85)" fill="none" stroke="#a7f3ff" stroke-linecap="round" stroke-width="4"/>
      <path id="패스_20416" data-name="패스 20416" d="M-20833.441-5079.6l9.184-17.781" transform="translate(20878.277 5128.85)" fill="none" stroke="#a7f3ff" stroke-linecap="round" stroke-width="4"/>
      <path id="패스_20414" data-name="패스 20414" d="M-20832.158-5081.919l9.188-18.832" transform="translate(20838.85 5138.949)" fill="none" stroke="#a7f3ff" stroke-linecap="round" stroke-width="4"/>
      <path id="패스_20417" data-name="패스 20417" d="M-20832.158-5081.919l9.188-18.832" transform="translate(20863.172 5138.949)" fill="none" stroke="#a7f3ff" stroke-linecap="round" stroke-width="4"/>
    </g>
    <g id="그룹_53884" data-name="그룹 53884" transform="translate(-30.479 -76.542)">
      <path id="패스_20465" data-name="패스 20465" d="M210.485,336.165h9.1l-3.413,9.2h7.962L210.485,363.4l2.653-13.025h-7.961Z" transform="translate(-34.284 -0.935)" fill="#ffd81c" stroke="#ffd81c" stroke-width="2"/>
    </g>
  </g>
</svg>
