<svg xmlns="http://www.w3.org/2000/svg" width="38" height="38" viewBox="0 0 38 38">
  <g id="attendance_active" transform="translate(-67 -328)">
    <rect id="사각형_29576" data-name="사각형 29576" width="38" height="38" rx="12" transform="translate(67 328)" fill="#fc0"/>
    <g id="그룹_53765" data-name="그룹 53765" transform="translate(-0.148 1.202)">
      <path id="합치기_2" data-name="합치기 2" d="M14.462,22.734c-.594-.033-.977-.5-1.348-.692-.371.19-.754.66-1.348.692-1.517.4-3.685-.05-4.1-.889a.439.439,0,0,0-.6-.158c-.561.976-2.128-.593-2.411-.711a1.508,1.508,0,0,1-.381-.229,1.607,1.607,0,0,1-.562-1.08.954.954,0,0,1-.386-.226A1.771,1.771,0,0,1,2.051,18.7c-.408-.6-.6-1.129-.25-1.715C1,16.573.494,16.072.536,15.428a1.863,1.863,0,0,1-.5-1.347,2.26,2.26,0,0,1,0-.772,2.034,2.034,0,0,1,.561-1.8A2.2,2.2,0,0,1,.477,9.311q.009-.04.019-.08A3.4,3.4,0,0,1,1.39,7.659,2.228,2.228,0,0,1,1.542,5.9C.379,4.472.36.719,2.209.743A6.4,6.4,0,0,1,5.2,1.849a2.387,2.387,0,0,1,.291.2l.091.007A2.335,2.335,0,0,1,6.428,1.5a4.018,4.018,0,0,1,.341-.421A3.508,3.508,0,0,1,8.2.173a2.494,2.494,0,0,1,1.871.156l.047.025a2.491,2.491,0,0,1,.738.063q.069.017.138.039A2.394,2.394,0,0,1,12.191.009a2.343,2.343,0,0,1,.924.107,2.34,2.34,0,0,1,.923-.107,2.4,2.4,0,0,1,1.194.446q.068-.022.138-.039a2.5,2.5,0,0,1,.739-.063l.047-.025a2.492,2.492,0,0,1,1.87-.156,3.511,3.511,0,0,1,1.436.9A4.019,4.019,0,0,1,19.8,1.5a2.368,2.368,0,0,1,.506.268,2.064,2.064,0,0,1,.338-.327A5.931,5.931,0,0,1,23.171.068c1.727-.289,2.075,3.4,1,4.643a3.21,3.21,0,0,1,.458,1.11,2.144,2.144,0,0,1,.211,1.838,3.391,3.391,0,0,1,.894,1.572q.01.038.018.076a2.2,2.2,0,0,1-.116,2.2,2.034,2.034,0,0,1,.561,1.805,2.253,2.253,0,0,1,0,.771,1.866,1.866,0,0,1-.5,1.346c.042.644-.461,1.145-1.266,1.557.353.585.158,1.111-.249,1.715a1.771,1.771,0,0,1-1.275.744.956.956,0,0,1-.386.226,1.606,1.606,0,0,1-.563,1.08,1.477,1.477,0,0,1-.381.229c-.282.118-1.85,1.687-2.41.711a.438.438,0,0,0-.6.158c-.312.627-1.6,1.037-2.866,1.037A4.89,4.89,0,0,1,14.462,22.734Z" transform="translate(73.147 335.15)" fill="#fff"/>
      <g id="왼쪽귀" transform="translate(73.668 337.051) rotate(-8)">
        <path id="패스_19552" data-name="패스 19552" d="M.444.246A6.146,6.146,0,0,1,2.663,0c2.063.024,1.064,2.371-.168,2.7C1.215,3.047-.933.774.444.246Z" transform="matrix(0.799, 0.602, -0.602, 0.799, 1.648, 0)" fill="#ffb1b1"/>
      </g>
      <g id="오른쪽귀" transform="translate(93.556 336.098)">
        <path id="패스_19553" data-name="패스 19553" d="M.35,2.1A4.533,4.533,0,0,0,2.1,2.307c1.624-.02.838-2-.133-2.278C.956-.259-.734,1.656.35,2.1Z" transform="matrix(-0.799, 0.602, -0.602, -0.799, 3.811, 1.844)" fill="#ffb1b1"/>
      </g>
      <g id="얼굴" transform="translate(76.263 344.098)">
        <rect id="사각형_29519" data-name="사각형 29519" width="10.058" height="8.133" transform="matrix(0.951, 0.309, -0.309, 0.951, 5.878, 0)" fill="#fff"/>
        <path id="패스_19536" data-name="패스 19536" d="M432.085,435.176c.566,0,.832-.514.879-1.008a1.939,1.939,0,0,0-.244-1.1.75.75,0,0,0-1.235,0,2.11,2.11,0,0,0-.247,1.092C431.271,434.646,431.521,435.176,432.085,435.176Z" transform="translate(-426.575 -430.409)" fill="#050505"/>
        <path id="패스_19537" data-name="패스 19537" d="M495.161,437.945c.848-.3.7-1.419.41-2.063a.685.685,0,0,0-1.065-.137,1.305,1.305,0,0,0-.424.822,1.751,1.751,0,0,0,.022.789A.84.84,0,0,0,495.161,437.945Z" transform="translate(-480.356 -432.817)" fill="#050505"/>
        <path id="패스_19544" data-name="패스 19544" d="M1.02,3.251c.777-.409.643-1.93.376-2.807A.528.528,0,0,0,.42.258,2.162,2.162,0,0,0,.032,1.376a3.514,3.514,0,0,0,.02,1.073C.168,3.054.605,3.469,1.02,3.251Z" transform="matrix(-0.174, -0.985, 0.985, -0.174, 15.738, 6.751)" fill="#ffb1b1"/>
        <path id="패스_19545" data-name="패스 19545" d="M1.02.059c.777.409.643,1.93.376,2.807a.528.528,0,0,1-.976.187A2.162,2.162,0,0,1,.031,1.934,3.514,3.514,0,0,1,.051.861C.168.256.605-.159,1.02.059Z" transform="matrix(0.174, -0.985, 0.985, 0.174, 1, 6.177)" fill="#ffb1b1"/>
        <g id="그룹_53605" data-name="그룹 53605" transform="matrix(0.951, 0.309, -0.309, 0.951, 8.153, 3.796)">
          <g id="그룹_53606" data-name="그룹 53606" transform="translate(0 0.627)">
            <g id="패스_20278" data-name="패스 20278" transform="translate(-471.717 -318.999) rotate(-18)" fill="#f54f68">
              <path d="M 351.9983520507812 454.6484680175781 C 350.6335754394531 454.6484680175781 350.0887756347656 453.2447509765625 349.9913635253906 452.5025329589844 L 349.9534301757812 452.2133178710938 L 350.2450256347656 452.2200622558594 L 353.6786499023438 452.2994995117188 L 353.9461059570312 452.3056945800781 L 353.9218139648438 452.5721130371094 C 353.8563842773438 453.290283203125 353.3701477050781 454.6484680175781 351.9983520507812 454.6484680175781 Z" stroke="none"/>
              <path d="M 350.2392578125 452.4700012207031 C 350.2392578125 452.4700012207031 350.4923095703125 454.3984680175781 351.9983520507812 454.3984680175781 C 353.5043640136719 454.3984680175781 353.6728515625 452.5494384765625 353.6728515625 452.5494384765625 L 350.2392578125 452.4700012207031 M 349.6676025390625 451.9566345214844 L 354.2193298339844 452.0619506835938 L 354.1708068847656 452.5948181152344 C 354.0981750488281 453.3916015625 353.5506896972656 454.8984680175781 351.9983520507812 454.8984680175781 C 350.4600830078125 454.8984680175781 349.8507690429688 453.3525085449219 349.7434997558594 452.5350646972656 L 349.6676025390625 451.9566345214844 Z" stroke="none" fill="#050505"/>
            </g>
            <path id="패스_20279" data-name="패스 20279" d="M0,0H6.891V3.6L-.08,3.131Z" transform="translate(-1.342 0.016) rotate(-17)" fill="#fff"/>
            <g id="그룹_53476" data-name="그룹 53476" transform="translate(1.894 -0.241)">
              <path id="패스_20074" data-name="패스 20074" d="M.8,2.525a.33.33,0,0,1-.319-.249L.01.41A.33.33,0,0,1,.65.249l.471,1.865a.33.33,0,0,1-.239.4A.336.336,0,0,1,.8,2.525Z" transform="translate(0 0)" fill="#050505"/>
            </g>
            <g id="그룹_53478" data-name="그룹 53478" transform="translate(-0.309 0.862)">
              <g id="그룹_53477" data-name="그룹 53477" transform="translate(0 0)">
                <path id="패스_20075" data-name="패스 20075" d="M1.452,2.527A2.193,2.193,0,0,1,.177,2.114a.422.422,0,1,1,.491-.688,1.327,1.327,0,0,0,1.1.215,1.309,1.309,0,0,0,.858-.71C2.64.906,2.655.879,2.67.853A.435.435,0,0,1,2.963.595a.426.426,0,0,1,.378.08A.9.9,0,0,1,3.429.73,1.312,1.312,0,0,0,4.521.948,1.333,1.333,0,0,0,5.388.236a.423.423,0,0,1,.759.373A2.178,2.178,0,0,1,4.728,1.767a2.151,2.151,0,0,1-1.51-.18,2.152,2.152,0,0,1-1.242.874A2.135,2.135,0,0,1,1.452,2.527Z" fill="#050505"/>
              </g>
            </g>
          </g>
          <g id="그룹_53607" data-name="그룹 53607" transform="translate(1.159 0)">
            <path id="패스_20076" data-name="패스 20076" d="M2.2,1.579l-.385.263a.864.864,0,0,1-.577.146L.775,1.939a.864.864,0,0,1-.748-.649h0A.864.864,0,0,1,.653.241L1.5.027a.865.865,0,0,1,1.05.627h0A.864.864,0,0,1,2.2,1.579Z" transform="translate(0 0)" fill="#050505"/>
          </g>
        </g>
      </g>
    </g>
  </g>
</svg>
