<svg xmlns="http://www.w3.org/2000/svg" width="14" height="14" viewBox="0 0 14 14">
  <g id="icon_report" transform="translate(-305 -151)">
    <rect id="사각형_29616" data-name="사각형 29616" width="14" height="14" transform="translate(305 151)" fill="none"/>
    <g id="그룹_53797" data-name="그룹 53797" transform="translate(-342.73 -482.524)">
      <path id="패스_20319" data-name="패스 20319" d="M733.781,793.765v-5.051a5.228,5.228,0,0,0-10.456,0v5.051a1.475,1.475,0,0,0-1.429,1.472V796.5a.359.359,0,0,0,.359.359h12.6a.359.359,0,0,0,.359-.359v-1.267A1.475,1.475,0,0,0,733.781,793.765Zm-9.737-5.051a4.51,4.51,0,0,1,9.019,0v5.05h-9.019Zm10.448,7.431H722.615v-.908a.756.756,0,0,1,.755-.755h10.366a.756.756,0,0,1,.756.755Z" transform="translate(-73.872 -149.852)" fill="#737980" stroke="#737980" stroke-width="0.2"/>
      <path id="패스_20320" data-name="패스 20320" d="M849.906,849.039a3.01,3.01,0,0,0-2.769,2.945.359.359,0,1,0,.718,0c0-1.629,1.387-2.012,2.051-2.227a.359.359,0,0,0,0-.718Z" transform="translate(-195.579 -213.297)" fill="#737980" stroke="#737980" stroke-width="0.2"/>
    </g>
  </g>
</svg>
