<svg xmlns="http://www.w3.org/2000/svg" xmlns:xlink="http://www.w3.org/1999/xlink" width="70" height="70" viewBox="0 0 70 70">
  <defs>
    <clipPath id="clip-path">
      <rect id="사각형_29627" data-name="사각형 29627" width="53" height="52" transform="translate(19 377.733)" fill="#fff" stroke="#707070" stroke-width="1"/>
    </clipPath>
  </defs>
  <g id="rainy_ver2" transform="translate(-10 -360)">
    <rect id="area" width="70" height="70" transform="translate(10 360)" fill="none"/>
    <g id="마스크_그룹_12" data-name="마스크 그룹 12" transform="translate(0 0.267)" clip-path="url(#clip-path)">
      <g id="그룹_53865" data-name="그룹 53865" transform="matrix(0.966, 0.259, -0.259, 0.966, 26.038, 374.108)">
        <path id="패스_20426" data-name="패스 20426" d="M25.953,0C39.875,0,51.243,9.973,51.9,22.5c-.061.072-.1.13-.17.22-.066-.013-.109-.284-.172-.3a18.047,18.047,0,0,0-3.851-.409,16.146,16.146,0,0,0-8.217,2.1c-1.772-2.947-13.54-11.265-13.54-11.265s-11.771,8.318-13.54,11.265a16.154,16.154,0,0,0-8.217-2.1A17.943,17.943,0,0,0,0,22.5C.663,9.973,12.028,0,25.953,0Z" transform="translate(0 2.52)" fill="#f54f68"/>
        <path id="패스_20427" data-name="패스 20427" d="M.573,42.883a.579.579,0,0,0,.573-.585V.585A.58.58,0,0,0,.573,0,.579.579,0,0,0,0,.585V42.3A.579.579,0,0,0,.573,42.883Z" transform="translate(25.569 0)" fill="#f9d731" stroke="#e5e5e5" stroke-width="2"/>
        <path id="패스_20430" data-name="패스 20430" d="M13.962,20.587a25.851,25.851,0,0,0-13.54,3.53A26.582,26.582,0,0,1,0,19.391C0,8.681,6.251,0,13.962,0S27.924,8.681,27.924,19.391a26.584,26.584,0,0,1-.419,4.726c-.053.064-.138.125-.223.218-.08-.048-.048-.385-.125-.43A26.1,26.1,0,0,0,13.962,20.587Z" transform="translate(12.042 2.518)" fill="#ffe256"/>
        <path id="패스_20431" data-name="패스 20431" d="M4.4,8.323a4.406,4.406,0,0,0,4.4-4.4V1.005a1,1,0,1,0-2.008,0V3.923a2.392,2.392,0,0,1-4.785,0,1.005,1.005,0,1,0-2.01,0A4.407,4.407,0,0,0,4.4,8.323Z" transform="translate(18.343 41.541)" fill="#277b6c" stroke="#3f4246" stroke-width="2"/>
      </g>
    </g>
    <g id="그룹_53867" data-name="그룹 53867" transform="translate(0 -1.488)">
      <path id="패스_20432" data-name="패스 20432" d="M-20825.146-5087.221v-10.155" transform="translate(20862.004 5467.146)" fill="none" stroke="#a7f3ff" stroke-linecap="round" stroke-width="4"/>
      <path id="패스_20462" data-name="패스 20462" d="M-20825.146-5085.9v-11.479" transform="translate(20893.004 5466.147)" fill="none" stroke="#a7f3ff" stroke-linecap="round" stroke-width="4"/>
      <path id="패스_20434" data-name="패스 20434" d="M-20823.859-5082.95v-17.8" transform="translate(20848.234 5466.361)" fill="none" stroke="#a7f3ff" stroke-linecap="round" stroke-width="4"/>
      <path id="패스_20464" data-name="패스 20464" d="M-20823.859-5096.55v-4.2" transform="translate(20848.234 5490.901)" fill="none" stroke="#a7f3ff" stroke-linecap="round" stroke-width="4"/>
      <path id="패스_20463" data-name="패스 20463" d="M-20823.859-5082.95v-17.8" transform="translate(20883.234 5477.3)" fill="none" stroke="#a7f3ff" stroke-linecap="round" stroke-width="4"/>
    </g>
  </g>
</svg>
