<svg xmlns="http://www.w3.org/2000/svg" width="16" height="16" viewBox="0 0 16 16">
  <g id="icon_bulb" transform="translate(-10 -14)">
    <rect id="area" width="16" height="16" transform="translate(10 14)" fill="none"/>
    <g id="그룹_53737" data-name="그룹 53737" transform="translate(-2962.952 -244.931)">
      <path id="패스_20238" data-name="패스 20238" d="M3115.769,405.762a2.117,2.117,0,0,1,.807,1.636v.076a.514.514,0,0,0,.512.516h3.412a.514.514,0,0,0,.513-.516V407.4a2.125,2.125,0,0,1,.82-1.649,4.427,4.427,0,0,0,.041-6.321,4.34,4.34,0,0,0-3.079-1.27h-.063a4.348,4.348,0,0,0-3.011,1.273,4.416,4.416,0,0,0,.048,6.329Zm3.771-6.152a2.249,2.249,0,0,1,2.247,2.247.367.367,0,0,1-.735,0,1.514,1.514,0,0,0-1.512-1.512.367.367,0,0,1,0-.735Z" transform="translate(-137.843 -135.962)" fill="#ffbf00"/>
      <path id="패스_20239" data-name="패스 20239" d="M3226.5,840.52a.514.514,0,0,0-.513-.515h-2.662a.516.516,0,0,0,0,1.031h2.662A.514.514,0,0,0,3226.5,840.52Z" transform="translate(-243.707 -567.445)" fill="gray"/>
      <path id="패스_20240" data-name="패스 20240" d="M3244.459,905.711a1.6,1.6,0,0,0,1.368-.849h-2.736A1.6,1.6,0,0,0,3244.459,905.711Z" transform="translate(-263.507 -630.78)" fill="gray"/>
      <g id="그룹_53730" data-name="그룹 53730" transform="translate(2980.462 258.931)">
        <path id="패스_20241" data-name="패스 20241" d="M3281.014,261.458a.49.49,0,0,1-.49-.49v-1.547a.49.49,0,0,1,.98,0v1.547A.49.49,0,0,1,3281.014,261.458Z" transform="translate(-3280.524 -258.931)" fill="#ffbf00"/>
      </g>
      <g id="그룹_53731" data-name="그룹 53731" transform="translate(2984.465 261.042)">
        <path id="패스_20242" data-name="패스 20242" d="M3451.652,351a.49.49,0,0,1-.346-.836l1.094-1.094a.49.49,0,1,1,.693.693L3452,350.858A.488.488,0,0,1,3451.652,351Z" transform="translate(-3451.162 -348.928)" fill="#ffbf00"/>
      </g>
      <g id="그룹_53732" data-name="그룹 53732" transform="translate(2986.122 266.138)">
        <path id="패스_20243" data-name="패스 20243" d="M3523.879,567.18h-1.547a.49.49,0,1,1,0-.979h1.547a.49.49,0,1,1,0,.979Z" transform="translate(-3521.842 -566.201)" fill="#ffbf00"/>
      </g>
      <g id="그룹_53733" data-name="그룹 53733" transform="translate(2975.366 261.042)">
        <path id="패스_20244" data-name="패스 20244" d="M3064.835,351a.489.489,0,0,1-.346-.143l-1.094-1.094a.49.49,0,1,1,.693-.693l1.094,1.094a.49.49,0,0,1-.346.836Z" transform="translate(-3063.252 -348.927)" fill="#ffbf00"/>
      </g>
      <g id="그룹_53734" data-name="그룹 53734" transform="translate(2984.465 270.141)">
        <path id="패스_20245" data-name="패스 20245" d="M3451.652,736.838a.49.49,0,0,0-.346.836l1.094,1.094a.49.49,0,0,0,.693-.693L3452,736.981A.488.488,0,0,0,3451.652,736.838Z" transform="translate(-3451.162 -736.838)" fill="#ffbf00"/>
      </g>
      <g id="그룹_53735" data-name="그룹 53735" transform="translate(2975.366 270.141)">
        <path id="패스_20246" data-name="패스 20246" d="M3064.835,736.838a.488.488,0,0,0-.346.143l-1.094,1.094a.49.49,0,0,0,.693.693l1.094-1.094a.49.49,0,0,0-.346-.836Z" transform="translate(-3063.252 -736.838)" fill="#ffbf00"/>
      </g>
      <g id="그룹_53736" data-name="그룹 53736" transform="translate(2973.255 266.138)">
        <path id="패스_20247" data-name="패스 20247" d="M2975.292,567.18h-1.547a.49.49,0,1,1,0-.979h1.547a.49.49,0,1,1,0,.979Z" transform="translate(-2973.255 -566.201)" fill="#ffbf00"/>
      </g>
    </g>
  </g>
</svg>
