<svg width="41" height="41" viewBox="0 0 41 41" fill="none" xmlns="http://www.w3.org/2000/svg">
<rect width="41" height="41" rx="20" fill="#DDDDDD"/>
<path d="M17.3496 29.6145C17.3496 29.2159 17.4311 28.8211 17.5894 28.4528C17.7477 28.0845 17.9797 27.7499 18.2722 27.468C18.5647 27.1861 18.912 26.9625 19.2942 26.81C19.6763 26.6574 20.0859 26.5789 20.4996 26.5789C20.9133 26.5789 21.3229 26.6574 21.7051 26.81C22.0872 26.9625 22.4345 27.1861 22.727 27.468C23.0195 27.7499 23.2515 28.0845 23.4098 28.4528C23.5681 28.8211 23.6496 29.2159 23.6496 29.6145C23.6496 30.4196 23.3177 31.1917 22.727 31.761C22.1363 32.3303 21.335 32.6501 20.4996 32.6501C19.6642 32.6501 18.863 32.3303 18.2722 31.761C17.6815 31.1917 17.3496 30.4196 17.3496 29.6145ZM17.6583 11.3857C17.6164 11.0027 17.6584 10.6155 17.7818 10.2493C17.9051 9.88297 18.107 9.54577 18.3744 9.25953C18.6417 8.97329 18.9685 8.7444 19.3335 8.58773C19.6986 8.43106 20.0937 8.3501 20.4933 8.3501C20.8929 8.3501 21.2881 8.43106 21.6531 8.58773C22.0181 8.7444 22.3449 8.97329 22.6123 9.25953C22.8796 9.54577 23.0815 9.88297 23.2048 10.2493C23.3282 10.6155 23.3703 11.0027 23.3283 11.3857L22.2258 22.0316C22.181 22.4443 21.9792 22.8264 21.6592 23.1042C21.3393 23.3819 20.9239 23.5356 20.4933 23.5356C20.0627 23.5356 19.6473 23.3819 19.3274 23.1042C19.0074 22.8264 18.8056 22.4443 18.7608 22.0316L17.6583 11.3857Z" fill="white"/>
</svg>
