<svg xmlns="http://www.w3.org/2000/svg" width="16" height="16" viewBox="0 0 16 16">
  <g id="icon_marking" transform="translate(-161 -733)">
    <rect id="area" width="16" height="16" transform="translate(161 733)" fill="none"/>
    <g id="그룹_180" data-name="그룹 180" transform="translate(161.666 734.28)">
      <path id="패스_19849" data-name="패스 19849" d="M2114.15,1167.995c2.641.233,4.686.074,4.6-2.528-.078-2.252-1.824-4.87-3.874-5.05s-4.262,2.088-4.764,4.289C2109.528,1167.248,2111.51,1167.762,2114.15,1167.995Z" transform="translate(-2107.272 -1154.399)" fill="#4ab0f5"/>
      <path id="패스_19850" data-name="패스 19850" d="M2120.286,1038.366a2.229,2.229,0,0,0,1.671-2.575,2.081,2.081,0,0,0-2.225-1.988,2.229,2.229,0,0,0-1.672,2.575A2.081,2.081,0,0,0,2120.286,1038.366Z" transform="translate(-2114.871 -1033.785)" fill="#4ab0f5"/>
      <path id="패스_19851" data-name="패스 19851" d="M2047.329,1119.415a1.907,1.907,0,0,0-.923,2.543,1.942,1.942,0,0,0,2.46,1.173,1.907,1.907,0,0,0,.923-2.543A1.942,1.942,0,0,0,2047.329,1119.415Z" transform="translate(-2046.239 -1115.664)" fill="#4ab0f5"/>
      <path id="패스_19938" data-name="패스 19938" d="M2.289,0a2.2,2.2,0,0,1,2.32,1.983A2.113,2.113,0,0,1,2.321,3.928,2.2,2.2,0,0,1,0,1.945,2.113,2.113,0,0,1,2.289,0Z" transform="matrix(0.215, -0.977, 0.977, 0.215, 7.683, 4.543)" fill="#4ab0f5"/>
      <path id="패스_19939" data-name="패스 19939" d="M1.99,0A2,2,0,0,1,4.038,1.851a1.852,1.852,0,0,1-1.99,1.784A2,2,0,0,1,0,1.785,1.852,1.852,0,0,1,1.99,0Z" transform="translate(10.139 7.463) rotate(-61.813)" fill="#4ab0f5"/>
    </g>
  </g>
</svg>
