<svg width="141" height="126" viewBox="0 0 141 126" fill="none" xmlns="http://www.w3.org/2000/svg">
<path d="M50.8355 85.5719C64.6005 84.7302 74.9896 82.2966 72.4533 68.708C70.2537 56.9436 59.1878 44.5707 48.5036 45.2246C37.8193 45.8784 28.2553 59.5147 27.4305 71.4635C26.4742 85.2671 37.0705 86.4136 50.8355 85.5719Z" fill="#D9D9D9"/>
<path d="M36.113 39.3934C41.5151 37.7026 44.4446 31.0648 42.6528 24.5713C40.861 18.0778 35.026 14.1855 29.6238 15.8763C24.2217 17.567 21.2922 24.2048 23.084 30.6983C24.8758 37.1918 30.7088 41.0869 36.113 39.3934Z" fill="#D9D9D9"/>
<path d="M13.2112 38.4217C12.1238 39.155 11.1908 40.1012 10.4653 41.2058C9.73984 42.3104 9.23627 43.5515 8.9838 44.8582C8.73134 46.1648 8.73484 47.5111 8.99407 48.8196C9.2533 50.1281 9.76327 51.3731 10.4945 52.4829C11.7709 54.8635 13.9108 56.6424 16.4524 57.4354C18.994 58.2283 21.7334 57.9717 24.0788 56.7211C25.1659 55.9876 26.0985 55.0415 26.8237 53.9368C27.5489 52.8321 28.0524 51.5908 28.3046 50.2843C28.5569 48.9777 28.5528 47.6313 28.2935 46.3229C28.0341 45.0146 27.5244 43.7699 26.7932 42.6602C25.5168 40.2802 23.377 38.5019 20.836 37.7089C18.295 36.9159 15.5564 37.1719 13.2112 38.4217Z" fill="#D9D9D9"/>
<path d="M48.4922 25.2927C48.9623 18.5666 53.9146 13.3769 59.5527 13.7254C65.1908 14.0738 69.3797 19.8204 68.9088 26.559C68.4379 33.2975 63.4888 38.4749 57.8508 38.1264C52.2127 37.778 48.0238 32.0314 48.4922 25.2927Z" fill="#D9D9D9"/>
<path d="M66.1378 40.888C66.9606 38.2982 68.7293 36.136 71.0784 34.8482C73.4275 33.5604 76.1775 33.2454 78.76 33.9683C79.9699 34.4574 81.0719 35.1903 81.9998 36.123C82.9277 37.0556 83.6624 38.1688 84.1598 39.3956C84.6572 40.6224 84.9069 41.9376 84.894 43.2621C84.8812 44.5866 84.606 45.8932 84.0849 47.1033C83.2623 49.6927 81.4941 51.8547 79.1455 53.1426C76.7968 54.4306 74.0474 54.746 71.4651 54.0238C70.2549 53.535 69.1525 52.8022 68.2243 51.8696C67.296 50.937 66.561 49.8238 66.0635 48.5968C65.5659 47.3699 65.316 46.0545 65.3287 44.7298C65.3415 43.4051 65.6167 42.0983 66.1378 40.888Z" fill="#D9D9D9"/>
<path d="M97.5623 112.243C104.948 116.148 111.09 118.165 114.063 110.336C116.635 103.557 114.812 93.6668 109.079 90.636C103.345 87.6053 94.0979 91.6437 89.9034 97.5647C85.0561 104.404 90.1761 108.338 97.5623 112.243Z" fill="#D9D9D9"/>
<path d="M104.511 83.7151C107.839 84.5439 111.447 82.0339 112.568 78.1097C113.689 74.1856 111.898 70.3322 108.57 69.5034C105.242 68.6746 101.634 71.1846 100.513 75.1087C99.3923 79.0329 101.182 82.8871 104.511 83.7151Z" fill="#D9D9D9"/>
<path d="M92.9696 75.99C92.1759 76.0264 91.3948 76.2217 90.6712 76.5644C89.9476 76.9071 89.2958 77.3903 88.7531 77.9866C88.2105 78.5829 87.7878 79.2805 87.5093 80.0391C87.2308 80.7978 87.102 81.6026 87.1303 82.4073C87.04 84.0413 87.586 85.6363 88.6508 86.848C89.7155 88.0596 91.2136 88.7906 92.8212 88.8833C93.6149 88.8466 94.3957 88.6512 95.1191 88.3084C95.8426 87.9657 96.4945 87.4823 97.037 86.8859C97.5794 86.2895 98.0019 85.5918 98.2803 84.8332C98.5587 84.0746 98.6875 83.27 98.6591 82.4653C98.7493 80.8317 98.2031 79.237 97.1387 78.0255C96.0743 76.8141 94.5769 76.0829 92.9696 75.99Z" fill="#D9D9D9"/>
<path d="M115.359 80.3231C117.724 76.9919 121.922 75.8689 124.729 77.8269C127.535 79.785 127.89 84.0786 125.522 87.4161C123.153 90.7535 118.961 91.8712 116.154 89.9131C113.347 87.955 112.992 83.6614 115.359 80.3231Z" fill="#D9D9D9"/>
<path d="M119.571 93.9548C120.813 92.8746 122.41 92.3138 124.031 92.3883C125.652 92.4628 127.174 93.167 128.282 94.3553C128.754 94.9899 129.093 95.7165 129.279 96.4915C129.465 97.2666 129.494 98.0741 129.364 98.8656C129.235 99.6571 128.949 100.416 128.525 101.097C128.101 101.778 127.546 102.368 126.895 102.829C125.653 103.909 124.057 104.47 122.436 104.396C120.815 104.322 119.293 103.618 118.185 102.43C117.713 101.795 117.374 101.069 117.187 100.294C117.001 99.5185 116.972 98.7108 117.102 97.9192C117.231 97.1276 117.517 96.3684 117.941 95.6871C118.365 95.0058 118.92 94.4166 119.571 93.9548Z" fill="#D9D9D9"/>
</svg>
