<svg xmlns="http://www.w3.org/2000/svg" width="28" height="28" viewBox="0 0 28 28">
  <g id="icon_sole" transform="translate(-161 -733)">
    <rect id="area" width="28" height="28" transform="translate(161 733)" fill="none"/>
    <g id="그룹_180" data-name="그룹 180" transform="translate(162.165 735.24)">
      <path id="패스_19849" data-name="패스 19849" d="M2117.258,1173.686c4.622.407,8.2.13,8.044-4.424-.136-3.942-3.192-8.522-6.779-8.838s-7.458,3.653-8.338,7.506C2109.169,1172.38,2112.636,1173.279,2117.258,1173.686Z" transform="translate(-2105.221 -1149.893)" fill="#fff"/>
      <path id="패스_19850" data-name="패스 19850" d="M2121.97,1041.8a3.9,3.9,0,0,0,2.925-4.506c-.268-2.2-2.012-3.762-3.895-3.478a3.9,3.9,0,0,0-2.926,4.506C2118.343,1040.529,2120.086,1042.086,2121.97,1041.8Z" transform="translate(-2112.494 -1033.785)" fill="#fff"/>
      <path id="패스_19851" data-name="패스 19851" d="M2048.146,1119.507a3.337,3.337,0,0,0-1.615,4.45,3.4,3.4,0,0,0,4.3,2.054,3.337,3.337,0,0,0,1.615-4.45A3.4,3.4,0,0,0,2048.146,1119.507Z" transform="translate(-2046.239 -1112.942)" fill="#fff"/>
      <path id="패스_19938" data-name="패스 19938" d="M4.005,0C6.233.019,8.051,1.573,8.066,3.471s-1.778,3.422-4.005,3.4S.015,5.3,0,3.4,1.778-.019,4.005,0Z" transform="matrix(0.215, -0.977, 0.977, 0.215, 13.445, 7.95)" fill="#fff"/>
      <path id="패스_19939" data-name="패스 19939" d="M3.482,0A3.506,3.506,0,0,1,7.066,3.24,3.241,3.241,0,0,1,3.585,6.362,3.506,3.506,0,0,1,0,3.123,3.241,3.241,0,0,1,3.482,0Z" transform="translate(17.743 13.06) rotate(-61.813)" fill="#fff"/>
    </g>
  </g>
</svg>
