<svg xmlns="http://www.w3.org/2000/svg" width="12" height="12" viewBox="0 0 12 12">
  <g id="marker_marking" transform="translate(-161 -733)">
    <rect id="area" width="12" height="12" transform="translate(161 733)" fill="none"/>
    <g id="그룹_180" data-name="그룹 180" transform="translate(161.499 733.96)">
      <path id="패스_19849" data-name="패스 19849" d="M2113.115,1166.1c1.981.174,3.515.055,3.448-1.9-.059-1.689-1.368-3.652-2.906-3.788s-3.2,1.566-3.573,3.217C2109.648,1165.538,2111.134,1165.923,2113.115,1166.1Z" transform="translate(-2107.956 -1155.901)" fill="#fff"/>
      <path id="패스_19850" data-name="패스 19850" d="M2119.724,1037.221a1.671,1.671,0,0,0,1.253-1.931,1.56,1.56,0,0,0-1.669-1.491,1.671,1.671,0,0,0-1.254,1.931A1.56,1.56,0,0,0,2119.724,1037.221Z" transform="translate(-2115.663 -1033.785)" fill="#fff"/>
      <path id="패스_19851" data-name="패스 19851" d="M2047.056,1119.385a1.43,1.43,0,0,0-.692,1.907,1.456,1.456,0,0,0,1.844.88,1.43,1.43,0,0,0,.692-1.907A1.457,1.457,0,0,0,2047.056,1119.385Z" transform="translate(-2046.239 -1116.571)" fill="#fff"/>
      <path id="패스_19938" data-name="패스 19938" d="M1.717,0a1.648,1.648,0,0,1,1.74,1.488A1.585,1.585,0,0,1,1.74,2.946,1.648,1.648,0,0,1,0,1.459,1.585,1.585,0,0,1,1.717,0Z" transform="matrix(0.215, -0.977, 0.977, 0.215, 5.762, 3.407)" fill="#fff"/>
      <path id="패스_19939" data-name="패스 19939" d="M1.492,0A1.5,1.5,0,0,1,3.028,1.388,1.389,1.389,0,0,1,1.536,2.727,1.5,1.5,0,0,1,0,1.338,1.389,1.389,0,0,1,1.492,0Z" transform="translate(7.604 5.597) rotate(-61.813)" fill="#fff"/>
    </g>
  </g>
</svg>
