<svg xmlns="http://www.w3.org/2000/svg" width="32" height="32" viewBox="0 0 32 32">
  <g id="icon_invite" transform="translate(-161 -192)">
    <rect id="area" width="32" height="32" transform="translate(161 192)" fill="none"/>
    <g id="그룹_53782" data-name="그룹 53782" transform="translate(-112.665 -37.246)">
      <g id="그룹_53781" data-name="그룹 53781" transform="translate(275.437 231.163)">
        <g id="그룹_53776" data-name="그룹 53776">
          <rect id="사각형_29592" data-name="사각형 29592" width="28.456" height="17.533" transform="translate(0 10.633)" fill="#ffbe00"/>
          <path id="패스_20296" data-name="패스 20296" d="M303.893,241.839s-9.849-10.676-14.228-10.676h0c-4.379,0-14.228,10.676-14.228,10.676Z" transform="translate(-275.437 -231.163)" fill="#ffbe00"/>
        </g>
        <g id="그룹_53778" data-name="그룹 53778" transform="translate(0.976 4.336)">
          <g id="그룹_53777" data-name="그룹 53777">
            <rect id="사각형_29593" data-name="사각형 29593" width="26.504" height="16.945" rx="2" fill="#fff"/>
          </g>
        </g>
        <g id="그룹_53779" data-name="그룹 53779" transform="translate(0 10.633)">
          <path id="패스_20298" data-name="패스 20298" d="M275.437,416.528s12.892-5.728,12.892-8.767S275.437,399,275.437,399Z" transform="translate(-275.437 -398.995)" fill="#ffcb33"/>
          <path id="패스_20299" data-name="패스 20299" d="M533.971,416.527s-12.892-5.728-12.892-8.767,12.892-8.767,12.892-8.767Z" transform="translate(-505.516 -398.994)" fill="#ffcb33"/>
        </g>
        <path id="패스_20302" data-name="패스 20302" d="M303.893,539.755s-10.739-9.2-14.228-9.2-14.228,9.2-14.228,9.2Z" transform="translate(-275.437 -511.588)" fill="#ffbe00"/>
      </g>
      <rect id="사각형_29594" data-name="사각형 29594" width="15.378" height="1.5" transform="translate(282.272 238.825)" fill="#dbdfe0" stroke="rgba(0,0,0,0)" stroke-width="1"/>
      <rect id="사각형_29595" data-name="사각형 29595" width="15.378" height="1.5" transform="translate(282.272 242.388)" fill="#dbdfe0" stroke="rgba(0,0,0,0)" stroke-width="1"/>
      <rect id="사각형_29596" data-name="사각형 29596" width="6.544" height="1.5" transform="translate(289.107 245.496)" fill="#dbdfe0" stroke="rgba(0,0,0,0)" stroke-width="1"/>
    </g>
  </g>
</svg>
