<svg width="44" height="44" viewBox="0 0 44 44" fill="none" xmlns="http://www.w3.org/2000/svg">
<rect width="44" height="44" fill="white"/>
<path d="M22.3699 30.4346C26.8242 30.4346 30.4351 26.8237 30.4351 22.3694C30.4351 17.9151 26.8242 14.3042 22.3699 14.3042C17.9156 14.3042 14.3047 17.9151 14.3047 22.3694C14.3047 26.8237 17.9156 30.4346 22.3699 30.4346Z" stroke="#5E6D7B" stroke-width="2"/>
<path d="M22.3698 24.6736C23.6424 24.6736 24.6741 23.6419 24.6741 22.3693C24.6741 21.0966 23.6424 20.0649 22.3698 20.0649C21.0971 20.0649 20.0654 21.0966 20.0654 22.3693C20.0654 23.6419 21.0971 24.6736 22.3698 24.6736Z" fill="#5E6D7B"/>
<path d="M28.7065 22.3696H32.7391M22.3696 32.7392V28.7066M12 22.3696H16.0326" stroke="#5E6D7B" stroke-linecap="round"/>
<path d="M14.9337 8.8482L21.2628 18.0797C21.8587 18.9488 23.1413 18.9488 23.7372 18.0797L30.0663 8.8482C30.7488 7.85279 30.0361 6.5 28.8292 6.5L16.1708 6.5C14.9639 6.5 14.2512 7.85279 14.9337 8.8482Z" fill="url(#paint0_linear_1728_7018)" stroke="white"/>
<defs>
<linearGradient id="paint0_linear_1728_7018" x1="22.5" y1="8.71429" x2="22.5" y2="13.8571" gradientUnits="userSpaceOnUse">
<stop stop-color="white"/>
<stop offset="1" stop-color="#5E6D7B"/>
</linearGradient>
</defs>
</svg>
