<svg xmlns="http://www.w3.org/2000/svg" width="16" height="16" viewBox="0 0 16 16">
  <g id="icon_pee" transform="translate(-312 -620)">
    <rect id="area" width="16" height="16" transform="translate(312 620)" fill="none"/>
    <rect id="사각형_29586" data-name="사각형 29586" width="7" height="3" transform="translate(317 626)" fill="#333"/>
    <path id="빼기_2" data-name="빼기 2" d="M-1373.5-3152.247a6.843,6.843,0,0,1-5.436-2.492,5.375,5.375,0,0,1-.617-1.012,4.8,4.8,0,0,1-.443-2c0-.023,0-.047,0-.071s0-.048,0-.072a11.226,11.226,0,0,1,2.608-6.573,17.175,17.175,0,0,1,3.677-3.711.362.362,0,0,1,.208-.066.358.358,0,0,1,.214.07,17.842,17.842,0,0,1,3.689,3.715,11.185,11.185,0,0,1,2.6,6.708C-1367-3154.717-1369.917-3152.247-1373.5-3152.247Zm-2.736-5.206a.257.257,0,0,0-.215.112.249.249,0,0,0-.029.232,3.558,3.558,0,0,0,2.984,1.656,3.558,3.558,0,0,0,2.984-1.656.249.249,0,0,0-.029-.232.257.257,0,0,0-.215-.112Zm4.74-4a1,1,0,0,0-1,1,1,1,0,0,0,1,1,1,1,0,0,0,1-1A1,1,0,0,0-1371.5-3161.453Zm-4,0a1,1,0,0,0-1,1,1,1,0,0,0,1,1,1,1,0,0,0,1-1A1,1,0,0,0-1375.5-3161.453Z" transform="translate(1693.5 3788.247)" fill="#eebf00"/>
  </g>
</svg>
