<svg width="76" height="65" viewBox="0 0 76 65" fill="none" xmlns="http://www.w3.org/2000/svg">
<path d="M27.1546 45.4001C34.5327 44.9489 40.1012 43.6445 38.7418 36.361C37.5628 30.0553 31.6315 23.4234 25.9047 23.7739C20.1779 24.1243 15.0516 31.4334 14.6095 37.838C14.097 45.2367 19.7766 45.8512 27.1546 45.4001Z" fill="#787878"/>
<path d="M19.2629 20.6487C22.1585 19.7425 23.7287 16.1846 22.7683 12.7041C21.8079 9.22355 18.6803 7.1373 15.7847 8.04354C12.8892 8.94978 11.319 12.5076 12.2794 15.9882C13.2398 19.4687 16.3663 21.5565 19.2629 20.6487Z" fill="#787878"/>
<path d="M6.98879 20.1278C6.40598 20.5209 5.90588 21.0281 5.51702 21.6201C5.12817 22.2122 4.85825 22.8774 4.72293 23.5778C4.58761 24.2781 4.58948 24.9998 4.72843 25.7011C4.86738 26.4025 5.14072 27.0698 5.53265 27.6647C6.2168 28.9406 7.36382 29.8942 8.72611 30.3192C10.0884 30.7442 11.5567 30.6066 12.8139 29.9363C13.3965 29.5432 13.8964 29.036 14.2851 28.4439C14.6738 27.8518 14.9437 27.1865 15.0789 26.4862C15.2141 25.7858 15.2119 25.0642 15.0729 24.3629C14.9339 23.6616 14.6607 22.9945 14.2687 22.3997C13.5846 21.124 12.4377 20.1708 11.0757 19.7458C9.71371 19.3207 8.24583 19.4579 6.98879 20.1278Z" fill="#787878"/>
<path d="M25.898 13.0907C26.1499 9.48552 28.8044 6.70388 31.8264 6.89064C34.8484 7.07741 37.0937 10.1576 36.8413 13.7694C36.5889 17.3813 33.9362 20.1564 30.9141 19.9696C27.8921 19.7828 25.6469 16.7027 25.898 13.0907Z" fill="#787878"/>
<path d="M35.3575 21.4497C35.7985 20.0616 36.7465 18.9027 38.0056 18.2124C39.2647 17.5222 40.7387 17.3533 42.1229 17.7408C42.7714 18.003 43.3621 18.3958 43.8595 18.8957C44.3569 19.3956 44.7507 19.9922 45.0172 20.6498C45.2838 21.3074 45.4177 22.0123 45.4108 22.7223C45.4039 23.4322 45.2564 24.1325 44.9771 24.7812C44.5362 26.1691 43.5884 27.3279 42.3296 28.0182C41.0707 28.7086 39.597 28.8777 38.2129 28.4906C37.5642 28.2285 36.9734 27.8358 36.4758 27.3359C35.9783 26.836 35.5843 26.2393 35.3176 25.5817C35.0509 24.9241 34.9169 24.219 34.9238 23.509C34.9306 22.7989 35.0782 22.0985 35.3575 21.4497Z" fill="#787878"/>
<path d="M52.5002 57.5791C56.4592 59.6722 59.7512 60.7533 61.3446 56.5569C62.7231 52.9231 61.7459 47.6221 58.6729 45.9976C55.5999 44.3731 50.6433 46.5377 48.3951 49.7114C45.7969 53.3772 48.5412 55.486 52.5002 57.5791Z" fill="#787878"/>
<path d="M56.2241 42.2881C58.0077 42.7323 59.9419 41.3869 60.5425 39.2836C61.1432 37.1803 60.1831 35.1148 58.3995 34.6706C56.6159 34.2263 54.6817 35.5717 54.081 37.6751C53.4803 39.7784 54.4394 41.8443 56.2241 42.2881Z" fill="#787878"/>
<path d="M50.0379 38.1475C49.6125 38.167 49.1939 38.2717 48.806 38.4554C48.4182 38.639 48.0688 38.8981 47.7779 39.2177C47.4871 39.5373 47.2605 39.9112 47.1112 40.3178C46.962 40.7245 46.8929 41.1559 46.9081 41.5872C46.8597 42.463 47.1524 43.3179 47.7231 43.9674C48.2938 44.6168 49.0967 45.0086 49.9584 45.0583C50.3838 45.0386 50.8023 44.9339 51.1901 44.7502C51.5779 44.5665 51.9273 44.3074 52.2181 43.9877C52.5088 43.6681 52.7353 43.2941 52.8845 42.8874C53.0337 42.4808 53.1027 42.0496 53.0875 41.6183C53.1359 40.7427 52.8431 39.8879 52.2726 39.2385C51.7021 38.5892 50.8994 38.1973 50.0379 38.1475Z" fill="#787878"/>
<path d="M62.0393 40.4699C63.3064 38.6843 65.5567 38.0824 67.0611 39.1319C68.5655 40.1814 68.7558 42.4828 67.4863 44.2717C66.2168 46.0606 63.9695 46.6596 62.4651 45.6101C60.9607 44.5606 60.7704 42.2592 62.0393 40.4699Z" fill="#787878"/>
<path d="M64.2956 47.7765C64.9614 47.1975 65.8173 46.8969 66.6863 46.9369C67.5553 46.9768 68.3711 47.3543 68.965 47.9912C69.2178 48.3313 69.3995 48.7208 69.4991 49.1362C69.5988 49.5517 69.6144 49.9845 69.5449 50.4087C69.4755 50.8329 69.3224 51.2398 69.095 51.6049C68.8676 51.97 68.5704 52.2858 68.2214 52.5332C67.5557 53.1122 66.7 53.4128 65.8311 53.373C64.9622 53.3331 64.1465 52.9559 63.5526 52.3192C63.2996 51.9791 63.1178 51.5896 63.0181 51.1741C62.9183 50.7587 62.9027 50.3258 62.9721 49.9015C63.0415 49.4772 63.1945 49.0702 63.4219 48.705C63.6494 48.3399 63.9466 48.0241 64.2956 47.7765Z" fill="#787878"/>
</svg>
